<svg width="81" height="81" viewBox="0 0 81 81" fill="none" xmlns="http://www.w3.org/2000/svg">
<circle cx="40.5" cy="40.5" r="40.5" fill="#00C5FF"/>
<path d="M43.1874 43.8286H37.8163C37.7573 43.8286 37.7037 43.8676 37.6823 43.9232L32.6329 55.155C32.5953 55.2552 32.665 55.3609 32.7669 55.3553H48.2261C48.3279 55.3553 48.3923 55.244 48.3601 55.1495L43.3107 43.9176C43.2946 43.8676 43.241 43.8286 43.1874 43.8286Z" fill="black"/>
<path d="M32.7025 52.1568L37.0819 42.4882C37.0926 42.4604 37.098 42.427 37.0873 42.3936L30.7514 28.2912C30.7085 28.1243 30.4727 28.1466 30.4727 28.3246L32.4345 52.1012C32.4238 52.2569 32.6436 52.307 32.7025 52.1568Z" fill="black"/>
<path d="M24.8494 36.9082L28.9822 27.5733C29.068 27.4509 29.2449 27.5177 29.2395 27.6679L31.4158 53.5028C31.4105 53.6586 31.2014 53.7031 31.1424 53.5585L24.6082 38.9943C24.3348 38.3045 24.4259 37.5146 24.8494 36.9082Z" fill="black"/>
<path d="M48.5699 52.0998L50.5318 28.3232C50.5318 28.1507 50.2959 28.1229 50.253 28.2898L43.917 42.3922C43.9063 42.4256 43.9116 42.459 43.9223 42.4868L48.3018 52.1554C48.3608 52.3056 48.5806 52.2555 48.5699 52.0998Z" fill="black"/>
<path d="M56.3906 38.9933L49.8564 53.5575C49.7974 53.7077 49.5884 53.6632 49.583 53.5018L51.7593 27.6669C51.7539 27.5167 51.9308 27.4555 52.0166 27.5723L56.1547 36.9072C56.5782 37.5136 56.664 38.3035 56.3906 38.9933Z" fill="black"/>
</svg>
