<svg width="14" height="14" viewBox="0 0 14 14" fill="none" xmlns="http://www.w3.org/2000/svg">
<circle cx="7" cy="7" r="7" fill="#727272"/>
<path d="M8.05859 4.66016L6.96289 11H5.0293L6.13086 4.66016H8.05859ZM6.30078 3.06055C6.29297 2.75586 6.39453 2.51367 6.60547 2.33398C6.82031 2.1543 7.07227 2.0625 7.36133 2.05859C7.63867 2.05469 7.88477 2.13672 8.09961 2.30469C8.31445 2.46875 8.42383 2.69727 8.42773 2.99023C8.43555 3.29492 8.33203 3.53711 8.11719 3.7168C7.90625 3.89648 7.65625 3.98828 7.36719 3.99219C7.08984 3.99609 6.84375 3.91602 6.62891 3.75195C6.41797 3.58398 6.30859 3.35352 6.30078 3.06055Z" fill="white"/>
</svg>
