<svg width="16" height="12" viewBox="0 0 16 12" fill="none" xmlns="http://www.w3.org/2000/svg">
<path fill-rule="evenodd" clip-rule="evenodd" d="M0 2C0 0.895431 0.89543 0 2 0H14C15.1046 0 16 0.89543 16 2V10C16 11.1046 15.1046 12 14 12H2C0.895431 12 0 11.1046 0 10V2ZM14 2L2 2V10H14V2Z" fill="#DEDEDE"/>
<path fill-rule="evenodd" clip-rule="evenodd" d="M12 9L4 9L4 7L12 7L12 9Z" fill="#DEDEDE"/>
<path fill-rule="evenodd" clip-rule="evenodd" d="M7 6L3 6L3 4L7 4L7 6Z" fill="#DEDEDE"/>
<path fill-rule="evenodd" clip-rule="evenodd" d="M10 6L8 6L8 4L10 4L10 6Z" fill="#DEDEDE"/>
<path fill-rule="evenodd" clip-rule="evenodd" d="M13 6L11 6L11 4L13 4L13 6Z" fill="#DEDEDE"/>
</svg>
