<svg width="14" height="14" viewBox="0 0 14 14" fill="none" xmlns="http://www.w3.org/2000/svg">
<path fill-rule="evenodd" clip-rule="evenodd" d="M2 4L2 8.74228e-08L4 0L4 4L2 4Z" fill="#DEDEDE"/>
<path fill-rule="evenodd" clip-rule="evenodd" d="M2 14L2 8L4 8L4 14L2 14Z" fill="#DEDEDE"/>
<path fill-rule="evenodd" clip-rule="evenodd" d="M10 6L10 8.74228e-08L12 0L12 6L10 6Z" fill="#DEDEDE"/>
<path fill-rule="evenodd" clip-rule="evenodd" d="M3 5C2.44772 5 2 5.44772 2 6C2 6.55228 2.44772 7 3 7C3.55228 7 4 6.55228 4 6C4 5.44772 3.55228 5 3 5ZM6 6C6 7.65685 4.65685 9 3 9C1.34315 9 0 7.65685 0 6C0 4.34315 1.34315 3 3 3C4.65685 3 6 4.34315 6 6Z" fill="#DEDEDE"/>
<path fill-rule="evenodd" clip-rule="evenodd" d="M10 14L10 10L12 10L12 14L10 14Z" fill="#DEDEDE"/>
<path fill-rule="evenodd" clip-rule="evenodd" d="M11 7C10.4477 7 10 7.44772 10 8C10 8.55228 10.4477 9 11 9C11.5523 9 12 8.55228 12 8C12 7.44772 11.5523 7 11 7ZM14 8C14 9.65685 12.6569 11 11 11C9.34315 11 8 9.65685 8 8C8 6.34315 9.34315 5 11 5C12.6569 5 14 6.34315 14 8Z" fill="#DEDEDE"/>
</svg>
