<svg width="150" height="37" viewBox="0 0 150 37" fill="none" xmlns="http://www.w3.org/2000/svg">
<path d="M61.6975 4.79678H59.4643V8.00785H61.6975C61.9178 8.00785 62.0279 7.89773 62.0279 7.67749V5.12714C62.0279 4.9069 61.9178 4.79678 61.6975 4.79678ZM61.7768 9.83141H59.4643V13.0425H61.7768C61.9971 13.0425 62.1072 12.9324 62.1072 12.7121V10.1618C62.1072 9.94153 61.9971 9.83141 61.7768 9.83141ZM57.4822 2.97321H62.6886C63.0586 2.97321 63.3713 3.10095 63.6268 3.35642C63.8823 3.6119 64.01 3.92464 64.01 4.29464V7.92856C64.01 8.18404 63.9175 8.40427 63.7325 8.58927C63.5563 8.77427 63.3229 8.88439 63.0322 8.91963C63.3229 8.95487 63.5696 9.06939 63.7722 9.2632C63.9836 9.4482 64.0893 9.66403 64.0893 9.9107V13.5446C64.0893 13.9146 63.9616 14.2274 63.7061 14.4828C63.4506 14.7383 63.1379 14.8661 62.7679 14.8661H57.4822V2.97321Z" fill="white"/>
<path d="M65.4133 2.97321H67.3955V9.95034L70.2101 2.97321H72.3508V14.8661H70.3687V7.88892L67.5672 14.8661H65.4133V2.97321Z" fill="white"/>
<path d="M77.9643 4.79678H75.6518V8.74784H77.9643C78.1845 8.74784 78.2946 8.63773 78.2946 8.41749V5.12714C78.2946 4.9069 78.1845 4.79678 77.9643 4.79678ZM73.6697 2.97321H78.9554C79.3254 2.97321 79.6381 3.10095 79.8936 3.35642C80.149 3.6119 80.2768 3.92464 80.2768 4.29464V9.24999C80.2768 9.61999 80.149 9.93272 79.8936 10.1882C79.6381 10.4437 79.3254 10.5714 78.9554 10.5714H75.6518V14.8661H73.6697V2.97321Z" fill="white"/>
<path d="M81.6008 2.97321H87.8644V4.79678H85.7236V14.8661H83.7415V4.79678H81.6008V2.97321Z" fill="white"/>
<path d="M89.2067 2.97321H91.1889V8.41749C91.1889 8.63773 91.299 8.74784 91.5192 8.74784H93.5014C93.7216 8.74784 93.8317 8.63773 93.8317 8.41749V2.97321H95.8139V13.5446C95.8139 13.9146 95.6861 14.2274 95.4307 14.4828C95.1752 14.7383 94.8624 14.8661 94.4925 14.8661H89.2067V13.0425H93.5014C93.7216 13.0425 93.8317 12.9324 93.8317 12.7121V9.9107C93.7965 10.1045 93.6864 10.2631 93.5014 10.3864C93.3252 10.5097 93.1358 10.5714 92.9332 10.5714H90.5282C90.1582 10.5714 89.8454 10.4437 89.59 10.1882C89.3345 9.93272 89.2067 9.61999 89.2067 9.24999V2.97321Z" fill="white"/>
<path d="M100.93 6.2107L99.9261 10.3996H101.948L100.944 6.2107H100.93ZM99.6882 2.97321H102.173L105.066 14.8661H103.031L102.384 12.2232H99.49L98.8425 14.8661H96.8075L99.6882 2.97321Z" fill="white"/>
<path d="M108.613 2.97321H113V14.8661H111.018V4.79678H110.199L107.767 14.8661H105.732L108.613 2.97321Z" fill="white"/>
<path d="M118.614 9.09142H116.301V13.0425H118.614C118.834 13.0425 118.944 12.9324 118.944 12.7121V9.42177C118.944 9.20153 118.834 9.09142 118.614 9.09142ZM114.319 2.97321H116.301V7.26785H119.605C119.975 7.26785 120.287 7.39559 120.543 7.65106C120.798 7.90654 120.926 8.21927 120.926 8.58927V13.5446C120.926 13.9146 120.798 14.2274 120.543 14.4828C120.287 14.7383 119.975 14.8661 119.605 14.8661H114.319V2.97321Z" fill="white"/>
<path d="M122.25 2.97321H124.232V8.00785H127.206V2.97321H129.188V14.8661H127.206V9.83141H124.232V14.8661H122.25V2.97321Z" fill="white"/>
<path d="M134.801 9.09142H132.489V13.0425H134.801C135.021 13.0425 135.131 12.9324 135.131 12.7121V9.42177C135.131 9.20153 135.021 9.09142 134.801 9.09142ZM130.506 2.97321H132.489V7.26785H135.792C136.162 7.26785 136.475 7.39559 136.73 7.65106C136.986 7.90654 137.114 8.21927 137.114 8.58927V13.5446C137.114 13.9146 136.986 14.2274 136.73 14.4828C136.475 14.7383 136.162 14.8661 135.792 14.8661H130.506V2.97321ZM139.096 2.98642H141.078V14.8793H139.096V2.98642Z" fill="white"/>
<path d="M144.543 0H145.573C145.573 0.229047 145.666 0.422857 145.851 0.581428C146.036 0.739999 146.26 0.819285 146.525 0.819285C146.789 0.819285 147.014 0.739999 147.199 0.581428C147.384 0.422857 147.476 0.229047 147.476 0H148.507C148.507 0.54619 148.313 1.01309 147.925 1.40071C147.538 1.78833 147.071 1.98214 146.525 1.98214C145.979 1.98214 145.512 1.78833 145.124 1.40071C144.736 1.01309 144.543 0.54619 144.543 0ZM143.063 2.97321H145.045V9.95034L147.859 2.97321H150V14.8661H148.018V7.88892L145.217 14.8661H143.063V2.97321Z" fill="white"/>
<path d="M57.4822 21.4732H64.4197V33.366H62.4375V23.2968H59.4643V33.366H57.4822V21.4732Z" fill="white"/>
<path d="M65.7385 21.4732H67.7207V26.5078H68.0907L70.4824 21.4732H72.676L69.8614 27.4196L72.676 33.366H70.4824L68.0907 28.3314H67.7207V33.366H65.7385V21.4732Z" fill="white"/>
<path d="M46.134 0.330079H2.75647C2.02541 0.330079 1.32429 0.610829 0.807353 1.11057C0.290413 1.61031 0 2.2881 0 2.99483L0 27.8341C0 28.5409 0.290413 29.2187 0.807353 29.7184C1.32429 30.2181 2.02541 30.4989 2.75647 30.4989H23.0691V33.4919H16.362C16.0168 33.4919 15.6857 33.6245 15.4416 33.8605C15.1975 34.0964 15.0603 34.4165 15.0603 34.7502C15.0603 35.084 15.1975 35.404 15.4416 35.64C15.6857 35.876 16.0168 36.0086 16.362 36.0086H32.4961C32.8414 36.0086 33.1724 35.876 33.4166 35.64C33.6607 35.404 33.7978 35.084 33.7978 34.7502C33.7978 34.4165 33.6607 34.0964 33.4166 33.8605C33.1724 33.6245 32.8414 33.4919 32.4961 33.4919H25.6724V30.4989H46.1363C46.8674 30.4989 47.5685 30.2181 48.0854 29.7184C48.6024 29.2187 48.8928 28.5409 48.8928 27.8341V2.99483C48.8928 2.64471 48.8214 2.29801 48.6827 1.97457C48.5441 1.65112 48.3408 1.35726 48.0846 1.10979C47.8284 0.862314 47.5243 0.666075 47.1896 0.532289C46.8549 0.398502 46.4962 0.32979 46.134 0.330079ZM46.1441 25.9175C46.1441 26.4667 45.9184 26.9935 45.5167 27.3818C45.1149 27.7702 44.5701 27.9883 44.002 27.9883H4.88992C4.3218 27.9883 3.77694 27.7702 3.37522 27.3818C2.9735 26.9935 2.74782 26.4667 2.74782 25.9175V4.91233C2.74782 4.36311 2.9735 3.83639 3.37522 3.44803C3.77694 3.05968 4.3218 2.8415 4.88992 2.8415H44.0006C44.5687 2.8415 45.1136 3.05968 45.5153 3.44803C45.917 3.83639 46.1427 4.36311 46.1427 4.91233L46.1441 25.9175Z" fill="white"/>
<path d="M26.1962 16.4575H22.4744C22.4336 16.4575 22.3964 16.4834 22.3816 16.5204L18.8826 23.9827C18.8566 24.0492 18.9049 24.1194 18.9755 24.1157H29.6878C29.7583 24.1157 29.8029 24.0418 29.7806 23.979L26.2817 16.5167C26.2705 16.4834 26.2334 16.4575 26.1962 16.4575Z" fill="white"/>
<path d="M18.9309 21.992L21.9656 15.5683C21.973 15.5498 21.9767 15.5276 21.9693 15.5054L17.5789 6.13595C17.5492 6.02507 17.3857 6.03985 17.3857 6.15813L18.7452 21.955C18.7378 22.0585 18.8901 22.0918 18.9309 21.992Z" fill="white"/>
<path d="M13.4893 11.8604L16.3531 5.65845C16.4125 5.57713 16.5351 5.62149 16.5313 5.72128L18.0394 22.8857C18.0357 22.9892 17.8908 23.0188 17.85 22.9227L13.3221 13.2464C13.1327 12.7881 13.1958 12.2633 13.4893 11.8604Z" fill="white"/>
<path d="M29.9255 21.9567L31.285 6.1598C31.285 6.04522 31.1216 6.02674 31.0918 6.13762L26.7014 15.5071C26.694 15.5293 26.6977 15.5515 26.7052 15.5699L29.7398 21.9937C29.7807 22.0935 29.933 22.0602 29.9255 21.9567Z" fill="white"/>
<path d="M35.3447 13.2472L30.8169 22.9235C30.776 23.0233 30.6312 22.9937 30.6274 22.8865L32.1355 5.72209C32.1318 5.62229 32.2543 5.58164 32.3138 5.65925L35.1813 11.8612C35.4747 12.2641 35.5342 12.7889 35.3447 13.2472Z" fill="white"/>
</svg>
