<svg width="52" height="60" viewBox="0 0 52 60" fill="none" xmlns="http://www.w3.org/2000/svg">
<path fill-rule="evenodd" clip-rule="evenodd" d="M4.64771 0H46.5316C49.9264 0 51.1794 1.25287 51.1794 4.6493V45.6324C51.1794 46.0167 51.1638 46.3738 51.1298 46.7045C51.1233 46.7664 51.1174 46.828 51.1113 46.8895C51.0454 47.5664 50.9804 48.2324 50.3484 48.9822C50.2812 49.0624 49.5772 49.5863 49.5772 49.5863C49.5088 49.6198 49.4443 49.6517 49.3821 49.6825C49.0996 49.8225 48.863 49.9398 48.5129 50.0806L27.8888 58.7214C26.818 59.2122 26.3703 59.4035 25.5927 59.388V59.3882H25.5896H25.5866V59.388C24.809 59.4035 24.3612 59.2122 23.2906 58.7214L2.66634 50.0806C2.31594 49.9395 2.07899 49.8221 1.79607 49.6819C1.73417 49.6513 1.67007 49.6195 1.6021 49.5863C1.6021 49.5863 0.898158 49.0624 0.830789 48.9822C0.198767 48.2324 0.13386 47.5664 0.0679013 46.8895C0.0619005 46.828 0.0558998 46.7664 0.0494536 46.7045C0.015503 46.3738 0 46.0167 0 45.6324V4.6493C0 1.25287 1.25287 0 4.64771 0ZM40.2298 21.3265V26.4663C40.2298 27.3771 39.8087 27.7998 38.9351 27.7998H38.2873C37.3811 27.7998 36.96 27.3771 36.96 26.4663V12.0879C36.96 11.177 37.3811 10.7544 38.2873 10.7544H38.8701C39.7443 10.7544 40.1652 11.177 40.1652 12.0879V16.5448H43.564V11.8927C43.564 9.06292 42.2043 7.69659 39.3884 7.69659H37.7046C34.8887 7.69659 33.4962 9.09518 33.4962 11.9255V26.6287C33.4962 29.4591 34.8887 30.8576 37.7046 30.8576H39.4206C42.2372 30.8576 43.6289 29.4591 43.6289 26.6287V21.3265H40.2298ZM11.0141 20.6441H15.0929V17.4891H11.0141V11.0479H15.2553V7.89288H7.55038V30.6634H15.3198V27.5082H11.0141V20.6441ZM31.6651 30.6634H28.2007V7.89288H31.6651V30.6634ZM23.1746 18.009C23.1746 18.9199 22.7543 19.3431 21.8802 19.3431H20.4555V10.9502H21.8802C22.7543 10.9502 23.1746 11.3729 23.1746 12.2836V18.009ZM22.4306 7.89288H16.9922V30.6635H20.4559V22.4007H22.4306C25.2471 22.4007 26.6389 21.0023 26.6389 18.1725V12.1218C26.6389 9.29148 25.2471 7.89288 22.4306 7.89288ZM43.7168 41.2974L43.7263 41.2027L43.7357 41.0988V40.9948V40.9758V40.8719L43.7263 40.768L43.7168 40.6734L43.698 40.5789L43.6791 40.4843L43.6601 40.3993L43.6323 40.3141L43.604 40.2291L43.5662 40.1535L43.5189 40.0683L43.4722 39.9927L43.4154 39.9077L43.3592 39.8321L43.2932 39.7659L43.2276 39.6902L43.152 39.6241L43.0769 39.5579L43.0017 39.5107L42.9261 39.4539L42.8511 39.4067L42.7666 39.3595L42.6815 39.3121L42.5874 39.2648L42.4935 39.2271L42.3995 39.1798L42.2956 39.1426L42.2111 39.1142L42.1266 39.0858L42.0319 39.0574L41.9475 39.0291L41.8535 39.0008L41.7595 38.9723L41.6649 38.9535L41.5615 38.9252L41.4675 38.8967L41.3641 38.8779L41.2607 38.8495L41.1573 38.8211L41.0532 38.7928L40.9593 38.7739L40.8748 38.7454L40.7897 38.7266L40.7147 38.6983L40.6396 38.6793L40.5266 38.6416L40.4227 38.6037L40.3287 38.5659L40.2537 38.5186L40.1686 38.4713L40.103 38.4052L40.0651 38.3485L40.0185 38.2444L40.009 38.1217V38.1026L40.0185 38.0082L40.0556 37.9231L40.1124 37.838L40.1969 37.7623L40.2631 37.7245L40.3382 37.6867L40.4227 37.6679L40.5172 37.6488L40.6207 37.63H40.7335H40.8275L40.912 37.6394L41.0066 37.6488L41.1006 37.6583L41.1945 37.6773L41.2884 37.6962L41.3831 37.7151L41.477 37.7435L41.5709 37.7719L41.6745 37.8001L41.7501 37.838L41.8346 37.8663L41.9097 37.9041L41.9948 37.9419L42.0698 37.9798L42.1543 38.0175L42.23 38.0649L42.3145 38.1026L42.3901 38.1594L42.4652 38.2066L42.5497 38.254L42.6253 38.3106L42.6815 38.235L42.7287 38.1594L42.7848 38.0838L42.8417 38.0082L42.8977 37.9231L42.9451 37.8475L43.0017 37.7719L43.058 37.6962L43.1051 37.6206L43.1614 37.545L43.2181 37.4693L43.2655 37.3937L43.3215 37.3087L43.3783 37.233L43.4345 37.1574L43.4817 37.0818L43.5378 37.0061L43.4628 36.9494L43.3877 36.8927L43.3121 36.8359L43.237 36.7888L43.152 36.732L43.0769 36.6847L42.9923 36.6375L42.9073 36.5902L42.8322 36.5523L42.7475 36.5051L42.6531 36.4672L42.5685 36.4294L42.4841 36.3916L42.3995 36.3633L42.3051 36.3256L42.2205 36.3065L42.136 36.2782L42.0414 36.2498L41.9569 36.2309L41.8629 36.212L41.769 36.193L41.6839 36.1742L41.5898 36.1553L41.4864 36.1459L41.3925 36.127L41.2884 36.1174H41.1945L41.0911 36.108L40.9876 36.0986H40.8843H40.7808H40.6768H40.5828L40.4889 36.108L40.395 36.1174L40.3003 36.127L40.2064 36.1364L40.1218 36.1553L40.0279 36.1742L39.9429 36.193L39.8583 36.212L39.7832 36.2309L39.698 36.2594L39.6041 36.2971L39.5102 36.3256L39.4251 36.3633L39.3406 36.4106L39.2561 36.4484L39.171 36.4956L39.096 36.5428L39.0208 36.5996L38.9452 36.6563L38.8796 36.7035L38.804 36.7697L38.7383 36.8455L38.6722 36.9116L38.6066 36.9872L38.5499 37.0628L38.4936 37.1384L38.4464 37.2234L38.3997 37.3087L38.3619 37.3937L38.3241 37.4788L38.2868 37.5638L38.268 37.6488L38.2395 37.7341L38.2206 37.8192L38.2017 37.9041L38.1923 37.9987L38.1829 38.0838L38.1734 38.1782V38.2729V38.2917V38.3957L38.1829 38.4997L38.1923 38.5942L38.2017 38.6887L38.2206 38.7739L38.2395 38.8684L38.268 38.944L38.2957 39.0291L38.3241 39.1048L38.3619 39.1704L38.4092 39.2554L38.4558 39.3311L38.5032 39.3972L38.5593 39.4633L38.6161 39.5296L38.6817 39.5958L38.7478 39.6618L38.8134 39.7186L38.889 39.7659L38.9641 39.8227L39.0486 39.8698L39.1243 39.9171L39.2184 39.9644L39.3027 40.0116L39.3973 40.0495L39.4913 40.0872L39.5852 40.1251L39.6886 40.1629L39.7738 40.1913L39.8583 40.2196L39.9429 40.2481L40.0368 40.267L40.1218 40.2952L40.216 40.3237L40.3097 40.3426L40.4043 40.3709L40.4983 40.3899L40.6017 40.4182L40.6958 40.4371L40.7991 40.4655L40.8937 40.4843L40.9876 40.5127L41.0722 40.5315L41.1573 40.56L41.2323 40.5789L41.298 40.5978L41.4108 40.645L41.5053 40.6828L41.5898 40.7207L41.6649 40.7584L41.7407 40.8152L41.8062 40.8719L41.8535 40.9381L41.8913 41.0326L41.9006 41.1461V41.1649L41.8913 41.2595L41.8629 41.3445L41.825 41.4203L41.769 41.4864L41.6934 41.5431L41.6277 41.581L41.5521 41.6093L41.4675 41.6281L41.3831 41.6472L41.2884 41.666L41.185 41.6754H41.0722H40.9781L40.8748 41.666H40.7808L40.6862 41.6472L40.5828 41.6376L40.4889 41.6187L40.395 41.5999L40.3003 41.581L40.216 41.5525L40.1218 41.5242L40.0279 41.4958L39.9429 41.4581L39.8583 41.4297L39.7738 41.3918L39.6886 41.3541L39.6041 41.3162L39.5292 41.2689L39.4439 41.2312L39.3691 41.1838L39.2844 41.1271L39.2088 41.08L39.1243 41.0232L39.0486 40.9665L38.9641 40.9098L38.889 40.8531L38.8323 40.9287L38.7668 40.9948L38.71 41.0705L38.6444 41.1461L38.5877 41.2121L38.5314 41.2879L38.4654 41.3635L38.4092 41.4297L38.343 41.5053L38.2868 41.5714L38.2206 41.6472L38.1646 41.7228L38.1078 41.7888L38.0421 41.8644L37.9854 41.9402L37.9198 42.0063L37.863 42.0819L37.9382 42.1481L38.0042 42.2048L38.0794 42.2616L38.155 42.3183L38.2301 42.3751L38.3051 42.4317L38.3807 42.479L38.4558 42.5262L38.5409 42.5735L38.6161 42.6207L38.7006 42.668L38.7856 42.7059L38.8702 42.7525L38.9547 42.7904L39.0397 42.8281L39.1337 42.866L39.2184 42.8943L39.3123 42.9227L39.3973 42.9605L39.4913 42.9889L39.5852 43.0172L39.6698 43.0363L39.7642 43.0645L39.8583 43.0834L39.9522 43.1023L40.0462 43.1213L40.1409 43.1401L40.2348 43.1496L40.3287 43.1685L40.4322 43.1779L40.5266 43.1874L40.6207 43.197H40.724L40.8181 43.2064H40.912H41.016H41.1194H41.2134L41.3075 43.197L41.4108 43.1874L41.5053 43.1779L41.5898 43.1685L41.6839 43.1591L41.7785 43.1401L41.8629 43.1213L41.9475 43.1023L42.0414 43.0834L42.1266 43.0551L42.2205 43.0266L42.3145 42.9984L42.4084 42.9605L42.5029 42.9227L42.5874 42.8754L42.6719 42.8375L42.7571 42.7904L42.8322 42.7336L42.9073 42.687L42.9829 42.6303L43.0486 42.5735L43.124 42.5073L43.1802 42.4506L43.2464 42.3843L43.3026 42.3183L43.3498 42.2427L43.4061 42.1671L43.4533 42.0913L43.5005 42.0158L43.5378 41.9308L43.5756 41.855L43.6134 41.77L43.6418 41.6754L43.6601 41.5903L43.6885 41.4958L43.7074 41.4012L43.7168 41.2974ZM37.0316 43.0934H37.1261H37.2202V42.9988V42.9136V42.8192V42.7246V42.6307V42.5455V42.4511V42.3566V42.2713V42.1769V42.0824V41.9974V41.9027V41.8082V41.7137V41.6285V41.534H37.1261H37.0316H36.9377H36.8437H36.7498H36.6552H36.5612H36.4673H36.3733H36.2693H36.1753H36.0814H35.9875H35.8927H35.7989H35.7049H35.6109H35.5163H35.4223H35.3284H35.2345H35.1404H35.0459H34.952H34.858H34.7639H34.6694H34.5754H34.4815H34.378H34.2835H34.1895H34.0956H34.0017H33.9071H33.8131H33.7192H33.625H33.5306V41.4395V41.3356V41.241V41.1465V41.0426V40.9481V40.8535V40.7495V40.6549V40.5604V40.4564V40.362H33.625H33.7192H33.8131H33.9071H34.0017H34.0956H34.1895H34.2835H34.3686H34.4627H34.5566H34.6505H34.7451H34.839H34.9331H35.027H35.1215H35.2154H35.3096H35.4035H35.498H35.5919H35.686H35.78H35.8745H35.9684H36.0531H36.147H36.2415H36.3355H36.4294H36.5233H36.6179H36.7119H36.8059V40.2674V40.1822V40.0877V39.9931V39.9081V39.8136V39.7191V39.6245V39.5394V39.4449V39.3504V39.2652V39.1708V39.0768V38.9917V38.8972H36.7119H36.6179H36.5233H36.4294H36.3355H36.2415H36.147H36.0531H35.9684H35.8745H35.78H35.686H35.5919H35.498H35.4035H35.3096H35.2154H35.1215H35.027H34.9331H34.839H34.7451H34.6505H34.5566H34.4627H34.3686H34.2835H34.1895H34.0956H34.0017H33.9071H33.8131H33.7192H33.625H33.5306V38.8026V38.7081V38.6136V38.519V38.4245V38.33V38.2449V38.1503V38.0558V37.9613V37.8668V37.7724H33.625H33.7192H33.8131H33.9071H34.0017H34.0956H34.1801H34.2741H34.3686H34.4627H34.5566H34.6505H34.7451H34.839H34.9331H35.027H35.1215H35.2154H35.3096H35.394H35.4886H35.5825H35.6764H35.7705H35.865H35.9589H36.0531H36.147H36.2415H36.3355H36.4294H36.5233H36.6085H36.7024H36.7964H36.8904H36.985H37.079H37.1729V37.6777V37.5927V37.4981V37.4036V37.3091V37.2239V37.1295V37.0348V36.9498V36.8553V36.7608V36.6756V36.5811V36.4866V36.3921V36.3069V36.2124H37.079H36.985H36.8904H36.7964H36.7024H36.6085H36.5139H36.4199H36.326H36.2321H36.1376H36.0435H35.9496H35.8556H35.7705H35.6764H35.5825H35.4886H35.394H35.3H35.2061H35.1121H35.0176H34.9235H34.8295H34.7357H34.6417H34.547H34.4531H34.3592H34.2652H34.1707H34.0766H33.9826H33.8887H33.7942H33.7001H33.6062H33.5122H33.4178H33.3238H33.2297H33.1357H33.0507H32.9567H32.8629H32.7687H32.6743H32.5803H32.4863H32.3923H32.2978H32.2038H32.1098H32.016H31.9214H31.8274H31.7334V36.3069V36.4016V36.496V36.5906V36.6852V36.7796V36.8742V36.9688V37.0633V37.1578V37.2523V37.3469V37.4414V37.5359V37.6304V37.725V37.8196V37.914V37.9991V38.0937V38.1882V38.2827V38.3773V38.4718V38.5663V38.6608V38.7554V38.8499V38.9444V39.0391V39.1335V39.2275V39.322V39.4166V39.5111V39.6056V39.7001V39.7947V39.8892V39.9837V40.0783V40.1729V40.2674V40.362V40.4564V40.5509V40.6454V40.7401V40.8345V40.9291V41.0236V41.1182V41.2126V41.3072V41.3922V41.4869V41.5814V41.6758V41.7705V41.8649V41.9595V42.054V42.1486V42.2431V42.3378V42.4322V42.5267V42.6211V42.7157V42.8098V42.9043V42.9988V43.0934H31.8274H31.9214H32.016H32.1098H32.2038H32.2978H32.3923H32.4863H32.5803H32.6837H32.7778H32.8722H32.9662H33.0602H33.154H33.2487H33.3427H33.4366H33.5306H33.625H33.7192H33.8131H33.9071H34.0017H34.0956H34.1895H34.2835H34.378H34.4815H34.5754H34.6694H34.7639H34.858H34.952H35.0459H35.1404H35.2345H35.3284H35.4223H35.5163H35.6109H35.7049H35.7989H35.8927H35.9875H36.0814H36.1753H36.2693H36.3733H36.4673H36.5612H36.6552H36.7498H36.8437H36.9377H37.0316ZM30.1561 43.0934H30.25H30.3439V42.9988V42.9043V42.8098V42.7157V42.6211V42.5267V42.4322V42.3378V42.2431V42.1486V42.054V41.9595V41.8649V41.7705V41.6758V41.5814V41.4869V41.3922V41.3072V41.2126V41.1182V41.0236V40.9291V40.8345V40.7401V40.6454V40.5509V40.4564V40.362V40.2674V40.1729V40.0783V39.9837V39.8892V39.7947V39.7001V39.6056V39.5111V39.4166V39.322V39.2275V39.1335V39.0391V38.9444V38.8499V38.7554V38.6608V38.5663V38.4718V38.3773V38.2827V38.1882V38.0937V37.9991V37.914V37.8196V37.725V37.6304V37.5359V37.4414V37.3469V37.2523V37.1578V37.0633V36.9688V36.8742V36.7796V36.6852V36.5906V36.496V36.4016V36.3069V36.2124H30.25H30.1561H30.0709H29.9769H29.883H29.789H29.704H29.6099H29.516H29.422H29.3369H29.2428H29.149H29.055H28.9699H28.876H28.782H28.6879H28.6029H28.5089H28.415L28.3677 36.2881L28.3209 36.3731L28.2643 36.4482L28.2169 36.5332L28.1702 36.6088L28.123 36.6941L28.0668 36.7691L28.0195 36.8542L27.9724 36.9299L27.9255 37.0055L27.869 37.0899L27.8221 37.1656L27.7749 37.2506L27.7277 37.3263L27.6715 37.4108L27.6241 37.4864L27.5775 37.562L27.5302 37.6466L27.4829 37.7221L27.4268 37.8072L27.3796 37.883L27.3322 37.9673L27.2855 38.0431L27.2288 38.1281L27.1822 38.2032L27.1349 38.2788L27.0876 38.3639L27.0315 38.4396L26.9842 38.5246L26.9373 38.5997L26.8902 38.6848L26.834 38.7604L26.7867 38.8449L26.7396 38.9207L26.6928 38.8449L26.6456 38.7604L26.5888 38.6848L26.542 38.5997L26.4949 38.5246L26.4481 38.4396L26.4008 38.3639L26.3442 38.2788L26.2974 38.2032L26.2501 38.1281L26.2035 38.0431L26.1562 37.9673L26.0996 37.883L26.0527 37.8072L26.0054 37.7221L25.9589 37.6466L25.9115 37.562L25.8548 37.4864L25.8081 37.4108L25.7608 37.3263L25.7135 37.2506L25.6574 37.1656L25.6101 37.0899L25.5634 37.0055L25.5161 36.9299L25.4689 36.8542L25.4126 36.7691L25.3654 36.6941L25.3187 36.6088L25.2715 36.5332L25.2241 36.4482L25.168 36.3731L25.1208 36.2881L25.0741 36.2124H24.9795H24.8855H24.801H24.707H24.6125H24.5184H24.4341H24.34H24.2455H24.1516H24.067H23.9731H23.8784H23.7845H23.7H23.6055H23.5114H23.4175H23.3329H23.2384H23.1445V36.3069V36.4016V36.496V36.5906V36.6852V36.7796V36.8742V36.9688V37.0633V37.1578V37.2523V37.3469V37.4414V37.5359V37.6304V37.725V37.8196V37.914V37.9991V38.0937V38.1882V38.2827V38.3773V38.4718V38.5663V38.6608V38.7554V38.8499V38.9444V39.0391V39.1335V39.2275V39.322V39.4166V39.5111V39.6056V39.7001V39.7947V39.8892V39.9837V40.0783V40.1729V40.2674V40.362V40.4564V40.5509V40.6454V40.7401V40.8345V40.9291V41.0236V41.1182V41.2126V41.3072V41.3922V41.4869V41.5814V41.6758V41.7705V41.8649V41.9595V42.054V42.1486V42.2431V42.3378V42.4322V42.5267V42.6211V42.7157V42.8098V42.9043V42.9988V43.0934H23.2384H23.3329H23.4269H23.521H23.615H23.7094H23.8034H23.8975H23.9914H24.0859H24.1799H24.2738H24.3679H24.4624H24.5563H24.6503H24.7444H24.8388H24.9328V42.9988V42.9043V42.8098V42.7152V42.6201V42.5256V42.431V42.3364V42.242V42.1475V42.0623V41.9673V41.8727V41.7783V41.6836V41.5892V41.4941V41.3995V41.305V41.2105V41.1159V41.0213V40.9263V40.8317V40.7372V40.6427V40.5482V40.4536V40.3585V40.2641V40.1694V40.075V39.9899V39.8953V39.8004V39.7057V39.6112V39.5167V39.4221V39.3271V39.2325V39.1379V39.0434L24.9889 39.119L25.0364 39.2047L25.0924 39.2802L25.1397 39.3653L25.1963 39.4411L25.2431 39.5261L25.2998 39.6023L25.3466 39.6874L25.4032 39.763L25.4505 39.8481L25.5067 39.9237L25.5539 40.0095L25.6101 40.0851L25.6574 40.1701L25.7135 40.2457L25.7608 40.3313L25.8176 40.4069L25.8736 40.492L25.921 40.5676L25.9771 40.6532L26.0245 40.7288L26.0811 40.8139L26.1278 40.8895L26.1846 40.9753L26.2312 41.0509L26.288 41.1359L26.3353 41.2116L26.3914 41.2967L26.4386 41.3729L26.4949 41.4579L26.542 41.5335L26.5983 41.6185L26.6456 41.6949L26.7022 41.7799H26.7396L26.7867 41.7043L26.843 41.6185L26.8902 41.5429L26.947 41.4673L26.9936 41.3823L27.0503 41.3066L27.097 41.2304L27.1443 41.1454L27.2011 41.0698L27.2477 40.9942L27.3045 40.918L27.3512 40.8329L27.4078 40.7573L27.4552 40.6815L27.5019 40.5961L27.5587 40.5203L27.6052 40.4447L27.662 40.3597L27.7086 40.284L27.7654 40.2078L27.8128 40.1228L27.8594 40.0472L27.9162 39.9716L27.9629 39.886L28.0195 39.8103L28.0668 39.7347L28.123 39.6591L28.1702 39.5734L28.2169 39.4978L28.2737 39.4221L28.3209 39.3371L28.3771 39.2614L28.4244 39.1858L28.4807 39.1001L28.5277 39.0245V39.119V39.2136V39.3081V39.4032V39.4978V39.5923V39.6869V39.7813V39.8765V39.971V40.0655V40.16V40.2544V40.3491V40.4441V40.5388V40.6332V40.7278V40.8223V40.9169V41.012V41.1064V41.2011V41.2955V41.39V41.4845V41.5797V41.6742V41.7687V41.8633V41.9579V42.0529V42.1475V42.242V42.3364V42.431V42.5256V42.6201V42.7152V42.8098V42.9043V42.9988V43.0934H28.6218H28.7158H28.8103H28.9137H29.0078H29.1017H29.1962H29.2902H29.3841H29.4876H29.5816H29.6761H29.77H29.8642H29.9581H30.0619H30.1561ZM19.3021 40.1722L19.3304 40.2578L19.3683 40.3429H19.2743H19.1799H19.0858H18.9918H18.8979H18.8039H18.7093H18.6154H18.5309H18.4364H18.3422H18.2483H18.1544H18.0599H17.9659H17.8719H17.7779L17.8152 40.2578L17.8435 40.1722L17.8814 40.0777L17.9192 39.9925L17.9469 39.9069L17.9848 39.8218L18.0225 39.7273L18.0599 39.6416L18.0882 39.5565L18.1261 39.4715L18.1638 39.3859L18.1917 39.2914L18.2295 39.2062L18.2673 39.1206L18.2957 39.0355L18.333 38.9505L18.3708 38.8555L18.4086 38.7702L18.4364 38.6852L18.4743 38.5996L18.5121 38.5051L18.5403 38.4195L18.5776 38.3343L18.6154 38.4195L18.6438 38.5051L18.681 38.5996L18.7189 38.6852L18.7472 38.7702L18.7849 38.8555L18.8223 38.9505L18.8505 39.0355L18.8884 39.1206L18.9262 39.2062L18.9539 39.2914L18.9918 39.3859L19.0203 39.4715L19.0574 39.5565L19.0952 39.6416L19.1237 39.7273L19.1614 39.8218L19.1987 39.9069L19.227 39.9925L19.2649 40.0777L19.3021 40.1722ZM22.1913 43.0945H22.2857H22.3796L22.3419 43.0094L22.304 42.9243L22.2669 42.8392L22.2385 42.7448L22.2006 42.6601L22.1629 42.5751L22.1255 42.4901L22.0878 42.405L22.05 42.3199L22.0128 42.2254L21.9749 42.1402L21.9465 42.0552L21.9092 41.9701L21.8715 41.8851L21.8336 41.8L21.7959 41.7055L21.7586 41.6203L21.7208 41.5352L21.6829 41.4502L21.6552 41.3651L21.6174 41.28L21.5795 41.1854L21.5416 41.1004L21.5044 41.0153L21.4665 40.9303L21.4288 40.8452L21.3916 40.7601L21.3632 40.6655L21.3254 40.5805L21.2881 40.4954L21.2503 40.4103L21.2124 40.3253L21.1747 40.2402L21.1374 40.1456L21.0997 40.0606L21.0712 39.9755L21.0341 39.8904L20.9962 39.8054L20.9584 39.7203L20.9206 39.6257L20.8833 39.5406L20.8454 39.4555L20.8077 39.3705L20.7798 39.2855L20.7421 39.2002L20.7042 39.1159L20.667 39.0212L20.6291 38.9362L20.5913 38.8511L20.5535 38.766L20.5163 38.681L20.4879 38.5958L20.4501 38.5013L20.4129 38.4163L20.375 38.3312L20.3373 38.2461L20.2994 38.1611L20.262 38.0759L20.2243 37.9814L20.196 37.8964L20.1587 37.8113L20.1209 37.7262L20.0831 37.641L20.0459 37.556L20.008 37.4615L19.9702 37.3764L19.9324 37.2914L19.9046 37.2063L19.8667 37.1213L19.8289 37.036L19.7918 36.9416L19.7539 36.8565L19.7162 36.7714L19.6783 36.6864L19.6411 36.6012L19.6127 36.5162L19.5749 36.4216L19.5376 36.3366L19.4998 36.2515L19.462 36.1663H19.368H19.2835H19.1888H19.0949H19.001H18.9164H18.822H18.728H18.6341H18.5495H18.4549H18.3609H18.267H18.1824H18.0879H17.9939H17.9H17.8149H17.7209L17.6837 36.2515L17.6458 36.3366L17.6081 36.4216L17.5797 36.5162L17.5424 36.6012L17.5047 36.6864L17.4668 36.7714L17.4296 36.8565L17.3917 36.9416L17.3538 37.036L17.316 37.1213L17.2883 37.2063L17.2504 37.2914L17.2126 37.3764L17.1753 37.4615L17.1374 37.556L17.0997 37.641L17.0625 37.7262L17.0247 37.8113L16.9963 37.8964L16.9585 37.9814L16.9213 38.0759L16.8834 38.1611L16.8457 38.2461L16.8083 38.3312L16.7706 38.4163L16.7327 38.5013L16.7044 38.5958L16.6672 38.681L16.6293 38.766L16.5916 38.8511L16.5542 38.9362L16.5165 39.0212L16.4787 39.1159L16.4414 39.2002L16.413 39.2855L16.3752 39.3705L16.3374 39.4555L16.3002 39.5406L16.2623 39.6257L16.2245 39.7203L16.1872 39.8054L16.1494 39.8904L16.121 39.9755L16.0833 40.0606L16.0459 40.1456L16.0082 40.2402L15.9705 40.3253L15.9331 40.4103L15.8954 40.4954L15.8575 40.5805L15.8292 40.6655L15.7919 40.7601L15.7541 40.8452L15.7162 40.9303L15.6791 41.0153L15.6412 41.1004L15.6034 41.1854L15.5661 41.28L15.5378 41.3651L15.4999 41.4502L15.4622 41.5352L15.4248 41.6203L15.3871 41.7055L15.3492 41.8L15.312 41.8851L15.2741 41.9701L15.2459 42.0552L15.2081 42.1402L15.1708 42.2254L15.133 42.3199L15.0951 42.405L15.0578 42.4901L15.0201 42.5751L14.9823 42.6601L14.9539 42.7448L14.9166 42.8392L14.8788 42.9243L14.841 43.0094L14.8037 43.0945H14.8977H14.9918H15.0857H15.1803H15.2838H15.3777H15.4715H15.5661H15.6602H15.7541H15.8481H15.9425H16.0365H16.1306H16.234H16.3279H16.4226H16.5165H16.6104H16.7044L16.7423 43.0094L16.7706 42.9243L16.8083 42.8392L16.8457 42.7448L16.874 42.6601L16.9119 42.5751L16.9491 42.4901L16.9775 42.405L17.0153 42.3199L17.0531 42.2348L17.0809 42.1498L17.1186 42.0552L17.1565 41.9701L17.1848 41.8851L17.2221 41.8H17.316H17.4106H17.5047H17.5985H17.6837H17.7776H17.8716H17.9656H18.0596H18.1541H18.248H18.3419H18.4361H18.5306H18.6151H18.709H18.8036H18.8976H18.9915H19.0855H19.1796H19.274H19.368H19.462H19.547H19.6411H19.735H19.8289H19.9229L19.9608 41.8851L19.9891 41.9701L20.027 42.0552L20.0643 42.1498L20.0925 42.2348L20.1304 42.3199L20.1681 42.405L20.196 42.4901L20.2338 42.5751L20.2716 42.6601L20.2994 42.7448L20.3373 42.8392L20.375 42.9243L20.4033 43.0094L20.4407 43.0945H20.5352H20.6291H20.7137H20.8077H20.9021H20.9962H21.0902H21.1747H21.2692H21.3632H21.4571H21.5512H21.6457H21.7302H21.8242H21.9181H22.0128H22.1066H22.1913ZM13.965 42.2719L14.0406 42.2152L14.1062 42.1586V42.064V41.9695V41.8751V41.7899V41.6955V41.6009V41.5063V41.4118V41.3172V41.2322V41.1377V41.0432V40.9486V40.8541V40.7595V40.6649V40.5799V40.4853V40.3909V40.2962V40.2018V40.1072V40.0126V39.9276V39.8331V39.7385V39.6439V39.5494V39.4549V39.3699V39.2752V39.1808V39.0868H14.0122H13.9182H13.8237H13.7298H13.6358H13.5419H13.4472H13.3533H13.2593H13.1652H13.0708H12.9768H12.8829H12.7889H12.6943H12.6004H12.5065H12.4124H12.3178H12.2239H12.1299H12.036H11.9415H11.8474H11.7535H11.6595H11.565H11.471H11.377H11.2831H11.1891H11.0945H11.0005V39.1808V39.2658V39.3605V39.4549V39.5494V39.6347V39.7291V39.8237V39.9181V40.0032V40.0978V40.1923V40.2869V40.372V40.4665H11.0945H11.1795H11.2736H11.3676H11.4616H11.5466H11.6406H11.7345H11.8286H11.9136H12.0077H12.1016H12.1956H12.2806H12.3746V40.561V40.6555V40.7501V40.8446V40.9486V41.0432V41.1377V41.2322V41.3266L12.2995 41.374L12.2333 41.4118L12.1489 41.4496L12.0734 41.4875L11.9886 41.5252L11.9042 41.5441L11.8102 41.5725L11.7157 41.5913L11.6217 41.6103L11.5277 41.6197L11.4243 41.6291L11.3202 41.6387H11.2074H11.104L11.0005 41.6291L10.9066 41.6197L10.8126 41.6009L10.718 41.582L10.6241 41.5535L10.53 41.5252L10.4451 41.4875L10.3606 41.4496L10.276 41.4118L10.2004 41.3645L10.1254 41.3172L10.0503 41.2606L9.97457 41.2038L9.90912 41.1471L9.85221 41.081L9.78663 41.0147L9.72997 40.9486L9.67379 40.8729L9.62653 40.7973L9.57927 40.7217L9.5325 40.6366L9.49476 40.5515L9.4569 40.457L9.42906 40.3814L9.40073 40.2962L9.38192 40.2112L9.36287 40.1261L9.34406 40.0411L9.33453 39.9466L9.32513 39.8615L9.31635 39.7669V39.6724V39.6535V39.5494L9.32513 39.4549L9.33453 39.3605L9.35346 39.2564L9.37239 39.1714L9.3912 39.0774L9.41966 38.9829L9.4569 38.8977L9.48536 38.8127L9.52309 38.7276L9.57036 38.652L9.617 38.5669L9.66427 38.4913L9.71103 38.4251L9.76783 38.3495L9.8334 38.2833L9.89007 38.2171L9.95564 38.1605L10.022 38.1037L10.0875 38.0471L10.1633 37.9997L10.2382 37.9523L10.3138 37.9051L10.3983 37.8673L10.483 37.8295L10.5673 37.8012L10.6525 37.7729L10.737 37.7539L10.831 37.7351L10.916 37.7256L11.01 37.7162H11.104H11.2074L11.3113 37.7256L11.4148 37.7351L11.5089 37.7445L11.6028 37.7633L11.6967 37.7823L11.7819 37.8012L11.8664 37.8295L11.9509 37.8579L12.0265 37.8863L12.1016 37.9241L12.1772 37.9619L12.2617 38.0093L12.3368 38.0564L12.4124 38.1037L12.4875 38.1509L12.5626 38.2076L12.6382 38.255L12.7133 38.3211L12.7889 38.3778L12.845 38.3022L12.9111 38.2361L12.9674 38.1605L13.0336 38.0849L13.0896 38.0093L13.1464 37.9429L13.2121 37.8673L13.2687 37.7918L13.3344 37.7162L13.3912 37.6498L13.4472 37.5742L13.5134 37.4986L13.5696 37.4326L13.6264 37.3568L13.6919 37.2813L13.7487 37.2057L13.8143 37.1395L13.871 37.0639L13.7959 37.0071L13.7203 36.941L13.6453 36.8842L13.5696 36.8275L13.4946 36.7802L13.4195 36.7235L13.3344 36.6762L13.2593 36.629L13.1749 36.5817L13.0992 36.5344L13.0147 36.4966L12.9302 36.4494L12.845 36.4116L12.7605 36.3737L12.676 36.336L12.5909 36.3075L12.5158 36.2792L12.4314 36.2604L12.3463 36.2319L12.2617 36.213L12.1772 36.1941L12.0922 36.1753L11.9981 36.1563L11.9042 36.1374L11.8191 36.128L11.7157 36.1091L11.6217 36.0997H11.5277L11.4243 36.0901L11.3202 36.0806H11.2168H11.1135H11.0194H10.916L10.8215 36.0901L10.7275 36.0997L10.6335 36.1091L10.5395 36.1185L10.4451 36.1374L10.351 36.1469L10.257 36.1657L10.1725 36.1941L10.078 36.213L9.9935 36.2413L9.90912 36.2604L9.82387 36.2981L9.72997 36.3266L9.65486 36.3548L9.56083 36.4022L9.47583 36.4399L9.3912 36.4778L9.30682 36.525L9.22169 36.5723L9.13719 36.6196L9.06221 36.6668L8.98649 36.7141L8.91139 36.7708L8.83579 36.818L8.76069 36.8748L8.69499 36.9315L8.61942 36.9977L8.55383 37.0543L8.48772 37.1207L8.42202 37.1866L8.36529 37.2529L8.29971 37.319L8.24298 37.3853L8.18678 37.4609L8.13005 37.5365L8.07395 37.6121L8.02662 37.6877L7.97948 37.7633L7.93267 37.839L7.88543 37.9146L7.83819 37.9997L7.80096 38.0849L7.76312 38.1699L7.72537 38.255L7.68804 38.34L7.65019 38.4345L7.62182 38.5196L7.59345 38.6142L7.56572 38.6993L7.54674 38.7938L7.51838 38.8883L7.4995 38.9733L7.49012 39.068L7.47124 39.1619L7.46166 39.2658L7.4528 39.3605V39.4549L7.44342 39.5589V39.6535V39.6724V39.7669V39.8709L7.4528 39.9654L7.46166 40.06L7.47124 40.1546L7.48052 40.2396L7.4995 40.3341L7.50899 40.4192L7.52787 40.5137L7.55623 40.5989L7.57511 40.6934L7.60294 40.7784L7.62182 40.8634L7.65968 40.9486L7.68804 41.0242L7.72537 41.1092L7.76312 41.1944L7.80096 41.2794L7.83819 41.3645L7.88543 41.4401L7.93267 41.5252L7.97948 41.6009L8.02662 41.6764L8.08281 41.7521L8.13005 41.8277L8.18678 41.8939L8.24298 41.9695L8.29971 42.0357L8.36529 42.1019L8.43151 42.1681L8.4971 42.2248L8.56332 42.291L8.62891 42.3476L8.69499 42.4044L8.77022 42.4611L8.84532 42.5177L8.92091 42.5745L8.99589 42.6217L9.07161 42.6691L9.15612 42.7163L9.2311 42.7631L9.31635 42.8104L9.40073 42.8482L9.48536 42.886L9.57036 42.9237L9.66427 42.9616L9.74877 42.9899L9.8334 43.0276L9.91852 43.0561L10.0124 43.075L10.0969 43.1033L10.1915 43.1223L10.276 43.1411L10.37 43.1601L10.4639 43.1789L10.5586 43.1885L10.6525 43.198L10.7464 43.2074L10.8498 43.2168L10.9438 43.2262H11.0384H11.1417H11.2452H11.3487L11.452 43.2168L11.5466 43.2074L11.6501 43.198L11.744 43.1885L11.8474 43.1789L11.9415 43.1695L12.036 43.1506L12.1299 43.1318L12.2145 43.1129L12.3091 43.0939L12.3936 43.0655L12.4875 43.0373L12.5721 43.0088L12.6571 42.9805L12.7417 42.952L12.8261 42.9142L12.9208 42.8764L13.0053 42.8386L13.0992 42.8008L13.1837 42.7536L13.2687 42.7163L13.3533 42.6691L13.4378 42.6217L13.5229 42.5745L13.598 42.5273L13.6736 42.48L13.7487 42.4232L13.8237 42.3761L13.8993 42.3193L13.965 42.2719ZM15.7223 51.2527H35.5512L25.4301 54.5903L15.7223 51.2527Z" fill="white"/>
</svg>
