<svg width="150" height="29" viewBox="0 0 150 29" fill="none" xmlns="http://www.w3.org/2000/svg">
<path fill-rule="evenodd" clip-rule="evenodd" d="M146.346 17.3392V18.3588H146.664C146.875 18.3588 147.034 18.3053 147.14 18.1969C147.202 18.1692 147.254 18.1242 147.292 18.0673C147.329 18.0104 147.35 17.9438 147.352 17.8753C147.352 17.6607 147.245 17.5531 147.14 17.4996C147.034 17.3919 146.876 17.3385 146.61 17.3385H146.346V17.3392ZM145.34 16.7481H146.77C147.3 16.7481 147.67 16.8016 147.935 17.0162C148.199 17.1773 148.359 17.4454 148.359 17.7677C148.359 18.035 148.305 18.2503 148.147 18.4115C147.987 18.5726 147.829 18.6795 147.564 18.7872L148.411 20.3971H147.3L146.61 18.9476H146.346V20.3971H145.34V16.7481ZM146.716 15.8897C147.087 15.8897 147.457 15.9432 147.775 16.1043C148.093 16.2655 148.411 16.4266 148.677 16.6947C148.888 16.9627 149.1 17.285 149.206 17.6073C149.365 17.9296 149.418 18.2503 149.418 18.6268C149.418 19.0033 149.365 19.3783 149.206 19.7006C149.094 20.0362 148.892 20.3337 148.623 20.5597C148.359 20.8278 148.093 21.0431 147.723 21.1501C147.405 21.3112 147.088 21.3647 146.716 21.3647C146.346 21.3647 146.028 21.3112 145.658 21.1501C145.34 20.9889 145.023 20.7743 144.81 20.5597C144.545 20.2917 144.333 19.9694 144.227 19.6471C144.069 19.3248 144.015 19.0041 144.015 18.6276C144.015 18.2518 144.069 17.9303 144.227 17.5546C144.387 17.2323 144.545 16.91 144.81 16.642C145.074 16.4274 145.392 16.2128 145.71 16.1051C146.028 15.9432 146.346 15.8897 146.716 15.8897ZM146.716 15.2994C147.193 15.2994 147.617 15.3529 148.041 15.514C148.411 15.7286 148.782 15.9432 149.1 16.2655C149.418 16.5878 149.63 16.9635 149.788 17.3392C149.948 17.7684 150 18.1976 150 18.6268C150 19.1102 149.948 19.5402 149.788 19.9152C149.636 20.3316 149.381 20.7013 149.047 20.9889C148.729 21.3112 148.359 21.5793 147.987 21.7404C147.564 21.9015 147.139 21.955 146.716 21.955C146.294 21.955 145.868 21.9015 145.446 21.7404C145.074 21.5258 144.704 21.3112 144.386 20.9355C144.068 20.6132 143.856 20.2917 143.645 19.8625C143.485 19.486 143.433 19.0575 143.433 18.6268C143.433 18.1976 143.485 17.7684 143.697 17.3392C143.856 16.9093 144.12 16.5343 144.438 16.212C144.756 15.8897 145.073 15.6751 145.498 15.514C145.869 15.3529 146.294 15.2994 146.716 15.2994ZM108.315 10.3614H118.379C121.185 10.3614 120.921 12.1331 120.444 13.9568C119.914 15.8348 119.438 17.7684 118.908 19.6998H113.983C114.512 17.7684 115.148 15.2452 115.678 13.3665C115.889 12.5073 115.836 12.1324 114.936 12.1324H112.765C112.075 14.6006 111.387 17.1773 110.698 19.6998H105.772C106.142 18.4657 106.46 17.285 106.779 16.0501C107.097 14.8152 107.468 13.3665 109.745 13.3665C110.063 12.1324 108.792 12.1324 107.838 12.1324L108.315 10.3614ZM59.0027 17.8753C58.6319 19.1095 58.5792 19.6998 57.5195 19.6998H47.6679C46.2902 19.6998 45.8139 18.788 46.132 17.7684C46.291 17.1781 46.45 16.4801 46.609 15.8897C46.9798 14.4403 47.1388 13.3673 48.5157 13.3673H55.2428C55.2955 13.2061 55.349 12.9915 55.401 12.8304C55.5073 12.4004 55.4545 12.1331 54.8185 12.1331H48.5157C47.9324 12.1331 47.9324 11.6497 48.0922 11.167C48.2505 10.7371 48.5157 10.3621 48.9393 10.3621H58.6854C60.0631 10.3621 60.6456 11.5962 60.3276 12.7235C59.8788 14.4388 59.4371 16.1562 59.0027 17.8753ZM54.2887 17.0704C54.3949 16.7481 54.606 15.5675 54.7122 15.2452H51.6931C51.6404 15.6209 51.3223 16.7481 51.2161 17.1239C51.0578 17.7142 51.4813 17.7142 52.2222 17.7142H53.1755C53.6526 17.715 54.1296 17.715 54.2887 17.0704ZM122.405 12.1324C121.97 13.8565 121.51 15.5742 121.027 17.285C120.762 18.4122 121.185 19.6998 122.668 19.6998H132.362C133.527 19.6998 133.897 18.3045 134.057 17.7684H126.694C126.006 17.7684 125.953 17.3927 126.113 16.7489C126.165 16.5877 126.271 16.212 126.271 16.0509H133.103C134.481 16.0509 134.693 15.3529 135.063 13.9576C135.223 13.3673 135.381 12.7227 135.541 12.1331C135.859 11.1136 135.169 10.3614 133.898 10.3614H124.788C123.782 10.3614 122.775 10.8982 122.405 12.1324ZM127.171 12.8304C127.33 12.1331 127.86 12.1331 128.39 12.1331H129.396C130.191 12.1331 130.616 12.1331 130.456 12.7769C130.404 13.045 130.35 13.3138 130.244 13.5819C130.192 13.9034 130.244 13.9576 129.874 13.9576H127.171C126.853 13.9576 126.853 14.0111 126.96 13.6895C127.012 13.3673 127.119 13.0992 127.171 12.8304ZM86.5989 12.1324C86.9162 10.8975 87.9231 10.3606 88.9827 10.3606H98.0393C99.3106 10.3606 99.946 11.1121 99.6822 12.1324C99.5224 12.7219 99.3641 13.3665 99.2044 13.9568C98.8343 15.3529 98.6226 16.0501 97.2449 16.0501H90.4651C90.4124 16.2113 90.3061 16.587 90.3061 16.7481C90.0943 17.3919 90.1998 17.7677 90.7832 17.7677H98.1983C98.0385 18.3045 97.6685 19.6991 96.5033 19.6991H86.8107C85.381 19.6991 84.904 18.4115 85.222 17.2843C85.6976 15.4063 86.1219 14.011 86.5989 12.1324ZM91.3122 12.8304C91.206 13.0992 91.1539 13.3673 91.0484 13.6888C90.9964 14.0111 90.9964 13.9568 91.3122 13.9568H94.0148C94.3328 13.9568 94.2786 13.9034 94.3848 13.5811C94.4383 13.313 94.4911 13.0442 94.5966 12.7762C94.7564 12.1324 94.3328 12.1324 93.485 12.1324H92.4781C91.9475 12.1324 91.4712 12.1324 91.3122 12.8304ZM71.1319 10.3614H72.086L72.7741 7.78466H77.7006L77.0111 10.3614H79.024V12.1331H76.5347C75.8994 14.6014 75.2106 17.1781 74.5225 19.7006C70.1785 19.7006 69.914 18.5741 70.55 16.0509L71.6089 12.1331H68.4836C67.7947 14.6014 67.1059 17.1781 66.4706 19.7006C62.1273 19.7006 61.8093 18.5741 62.4981 16.0509L63.557 12.1331H61.2267L62.1808 10.3614H64.0348L64.7229 7.78466H69.6494L68.9606 10.3614H71.1319ZM137.076 10.3614H138.929L139.619 7.78466H144.544L143.856 10.3614H146.028V12.1331H143.379C142.691 14.6014 142.056 17.1781 141.366 19.7006C137.024 19.7006 136.759 18.5741 137.394 16.0509L138.453 12.1331H136.122L137.076 10.3614ZM81.4078 7.0874L78.0179 19.6998H82.9437L86.3336 7.0874H81.4078ZM40.4638 19.6998C42.1053 19.6998 43.9592 19.6998 44.9126 16.0501C45.4424 14.118 45.0188 15.8348 45.5479 13.9568C46.025 12.1324 46.502 10.3614 43.6939 10.3614H38.3446L39.1924 7.0874H34.2666L32.9417 12.1331C33.8958 12.1331 35.1137 12.1331 34.7957 13.3673C32.5709 13.3673 32.2001 14.816 31.8821 16.0509C31.5648 17.2858 31.2467 18.4664 30.9287 19.7006H40.4638V19.6998ZM36.3323 17.7684L37.8683 12.1331H39.9875C40.9409 12.1331 40.9936 12.4546 40.7818 13.3138C40.3583 14.7091 40.1993 15.4605 39.9875 16.0509C39.5632 17.7684 39.5632 17.7684 36.3323 17.7684Z" fill="white"/>
<path d="M24.2583 12.7806C24.2583 12.7806 26.5328 12.9019 26.5328 11.498C26.5328 9.66532 23.5026 8.01465 23.5026 8.01465C23.5026 8.01465 23.9768 6.95871 24.2737 6.36803C24.5705 5.77734 25.4033 3.47935 25.4765 2.9534C25.569 2.2899 25.4264 2.08357 25.4264 2.08357C25.2221 3.49958 23.0246 7.57771 22.8473 7.71526C20.7038 6.66336 17.7584 6.36803 17.7584 6.36803C17.7584 6.36803 14.8747 0 12.1606 0C9.46968 0 9.4851 5.45368 9.4851 5.45368C9.4851 5.45368 8.72562 3.9082 7.76953 3.9082C6.37394 3.9082 5.91517 6.11719 5.91517 8.51632C3.16255 8.51632 0.845572 9.16364 0.637391 9.22433C0.433065 9.28502 -0.218465 9.78265 0.0745305 9.72196C0.679798 9.51967 3.50952 9.05845 5.98457 9.28502C6.12335 11.5628 7.39172 14.5324 7.39172 14.5324C7.39172 14.5324 4.66994 18.6671 4.66994 21.6165C4.66994 22.3933 4.99378 23.8133 6.94451 23.8133C8.58298 23.8133 10.4219 22.7817 10.765 22.5753C10.4643 23.0244 10.2407 23.8862 10.2407 24.2826C10.2407 24.6063 10.4258 25.5247 11.6864 25.5247C13.3056 25.5247 15.1176 24.222 15.1176 24.222C15.1176 24.222 16.8293 27.1996 18.2904 28.5631C18.6836 28.9312 19.0614 29 19.0614 29C19.0614 29 17.608 27.5354 15.6958 23.7567C17.4731 22.6077 19.3236 19.889 19.3236 19.889C19.3236 19.889 19.5433 19.897 21.2319 19.897C23.8766 19.897 27.6316 19.3145 27.6316 17.1095C27.6354 14.8358 24.2583 12.7806 24.2583 12.7806ZM24.5513 11.409C24.5513 12.2141 23.8226 12.2061 23.8226 12.2061L23.2675 12.2425C23.2675 12.2425 22.215 11.6639 21.575 11.3888C21.575 11.3888 22.5658 9.79074 22.7971 9.3457C22.9706 9.45494 24.5513 10.4907 24.5513 11.409ZM13.4829 3.20829C14.7282 3.20829 16.5016 6.28306 16.5016 6.28306C16.5016 6.28306 13.7335 6.02413 11.4551 7.42801C11.5168 5.21498 12.2262 3.20829 13.4829 3.20829ZM8.55985 5.70047C8.95308 5.70047 9.3386 6.20619 9.50052 6.631C9.50052 6.9142 9.63931 8.56487 9.63931 8.56487L7.35702 8.47182C7.35702 6.31543 8.16276 5.70047 8.55985 5.70047ZM8.32082 20.69C7.07174 20.69 6.81729 19.9618 6.81729 19.3064C6.81729 17.8216 7.94687 15.742 7.94687 15.742C7.94687 15.742 9.21523 18.5377 11.4243 19.715C10.3294 20.3906 9.42341 20.69 8.32082 20.69ZM12.3726 23.6151C11.4975 23.6151 11.3896 23.0204 11.3896 22.8828C11.3896 22.458 11.7096 21.9523 11.7096 21.9523C11.7096 21.9523 13.1784 20.9125 13.2709 20.7992L14.3581 22.9273C14.3581 22.9273 13.2478 23.6151 12.3726 23.6151ZM15.1021 22.458C14.5701 21.483 14.1769 20.4634 14.1769 20.4634C14.1769 20.4634 16.3628 20.6091 17.5386 19.3387C16.8061 19.6826 15.638 20.1196 14.281 19.986C17.1184 17.3644 18.7762 15.4629 20.1756 13.5007C20.0561 13.347 19.4161 12.8777 19.2581 12.8008C18.4138 13.8689 15.1253 17.5545 12.0797 19.3792C8.22444 17.1742 7.41485 10.6889 7.33389 9.34166L9.43883 9.55204C9.43883 9.55204 8.64852 11.0247 8.64852 12.109C8.64852 13.1892 8.77188 13.2458 8.77188 13.2458C8.77188 13.2458 8.7449 11.3605 9.8552 9.90402C10.7033 14.6295 11.5862 17.0488 12.2724 18.4932C12.6232 18.3394 13.2748 18.036 13.2748 18.036C13.2748 18.036 11.3317 12.1575 11.4397 8.18053C12.3225 7.68694 13.6294 7.17718 15.1021 7.17718C18.9805 7.17718 22.0993 8.92494 22.0993 8.92494L20.8811 10.7132C20.8811 10.7132 19.7939 8.64983 18.2557 8.28167C19.0653 8.91281 19.9751 9.75028 20.4455 10.9519C17.2302 9.637 13.3519 8.94113 12.1066 8.78739C11.9987 9.26883 12.0141 9.95661 12.0141 9.95661C12.0141 9.95661 17.2148 10.964 21.0006 13.2337C20.9736 18.2019 15.8154 22.017 15.1021 22.458ZM20.0291 18.744C20.0291 18.744 21.6444 16.5229 21.6174 13.5776C21.6174 13.5776 24.2274 15.2727 24.2274 16.9275C24.2274 18.7723 20.0291 18.744 20.0291 18.744Z" fill="white"/>
</svg>
