<svg width="150" height="46" viewBox="0 0 150 46" fill="none" xmlns="http://www.w3.org/2000/svg">
<path d="M22.5383 0C10.6303 0 0.919932 9.14821 0 20.8007L12.1124 25.8092C13.1346 25.0937 14.3612 24.6848 15.6899 24.6848C15.7922 24.6848 15.9455 24.6848 16.0477 24.6848L21.4651 16.9165C21.4651 16.8654 21.4651 16.8654 21.4651 16.8143C21.4651 12.1124 25.2981 8.27939 30 8.27939C34.7019 8.27939 38.5349 12.1124 38.5349 16.8143C38.5349 21.5162 34.7019 25.3492 30 25.3492C29.9489 25.3492 29.8467 25.3492 29.7956 25.3492L22.1295 30.8177C22.1295 30.9199 22.1295 31.0222 22.1295 31.1244C22.1295 34.6508 19.2675 37.5128 15.7411 37.5128C12.6235 37.5128 10.0681 35.3152 9.45485 32.3509L0.76661 28.7734C3.42419 38.2794 12.1635 45.23 22.5383 45.23C35.0085 45.23 45.1278 35.1107 45.1278 22.6405C45.1278 10.1193 35.0085 0 22.5383 0Z" fill="white"/>
<path d="M14.1566 34.2925L11.3969 33.1681C11.9079 34.1903 12.7256 35.0591 13.85 35.5191C16.3032 36.5412 19.1141 35.3657 20.1362 32.9126C20.6473 31.7371 20.6473 30.4083 20.1362 29.2329C19.6251 28.0574 18.7052 27.1375 17.5297 26.6264C16.3543 26.1153 15.0766 26.1664 14.0033 26.5753L16.8653 27.7507C18.6541 28.5174 19.5229 30.5617 18.7563 32.3504C18.0408 34.1903 15.9454 35.0591 14.1566 34.2925Z" fill="white"/>
<path d="M35.6729 16.7632C35.6729 13.6457 33.1175 11.0903 29.9999 11.0903C26.8824 11.0903 24.327 13.6457 24.327 16.7632C24.327 19.8808 26.8824 22.4362 29.9999 22.4362C33.1175 22.4362 35.6729 19.9319 35.6729 16.7632ZM25.7069 16.7632C25.7069 14.4123 27.5979 12.5213 29.9999 12.5213C32.402 12.5213 34.293 14.4123 34.293 16.7632C34.293 19.1142 32.402 21.0052 29.9999 21.0052C27.5979 21.0052 25.7069 19.1142 25.7069 16.7632Z" fill="white"/>
<path d="M69.3016 15.486L67.7683 18.1436C66.5929 17.3259 65.0086 16.8148 63.6287 16.8148C62.0443 16.8148 61.0733 17.4792 61.0733 18.6547C61.0733 20.0857 62.8109 20.3923 65.3663 21.3123C68.1261 22.2833 69.7104 23.4588 69.7104 25.963C69.7104 29.4383 67.0017 31.3804 63.0665 31.3804C61.1755 31.3804 58.8246 30.8693 57.0869 29.7961L58.2113 26.8318C59.6423 27.5985 61.3799 28.0584 62.9131 28.0584C65.0085 28.0584 65.9796 27.2918 65.9796 26.1675C65.9796 24.8898 64.4975 24.4809 62.0443 23.6632C59.2845 22.7433 57.3936 21.5167 57.3936 18.7058C57.3936 15.5371 59.9489 13.6973 63.5775 13.6973C66.0818 13.7995 68.1261 14.6172 69.3016 15.486Z" fill="white"/>
<path d="M81.1074 17.1719V31.1242H77.581V17.1719H72.368V14.1055H86.2692V17.1719H81.1074Z" fill="white"/>
<path d="M93.7818 17.1208V21.005H100.63V24.0203H93.7818V28.0578H101.703V31.1242H90.2554V14.1055H101.703V17.1208H93.7818Z" fill="white"/>
<path d="M109.676 27.8022L108.552 31.1242H104.821L111.209 14.1055H114.787L121.329 31.1242H117.445L116.269 27.8022H109.676ZM112.998 18.1429L110.647 24.9402H115.349L112.998 18.1429Z" fill="white"/>
<path d="M139.676 20.6983L135.026 30.6131H132.981L128.433 20.7494V31.1242H125.009V14.1055H128.382L134.106 26.3712L139.625 14.1055H143.101V31.1242H139.676V20.6983Z" fill="white"/>
<path d="M150 16.2524C150 17.7345 148.927 18.6033 147.649 18.6033C146.371 18.6033 145.298 17.6834 145.298 16.2524C145.298 14.7703 146.423 13.9014 147.649 13.9014C148.876 13.8503 150 14.7703 150 16.2524ZM145.656 16.2524C145.656 17.479 146.525 18.2456 147.598 18.2456C148.671 18.2456 149.54 17.479 149.54 16.2524C149.54 15.0258 148.671 14.2592 147.598 14.2592C146.525 14.2592 145.656 15.0258 145.656 16.2524ZM147.649 15.0258C148.262 15.0258 148.467 15.3324 148.467 15.6902C148.467 15.9968 148.262 16.2013 148.058 16.3546L148.62 17.3767H148.16L147.7 16.4568H147.189V17.3767H146.831V15.0258H147.649ZM147.24 16.0991H147.649C147.905 16.0991 148.058 15.9457 148.058 15.7413C148.058 15.5369 147.956 15.3836 147.649 15.3836H147.24V16.0991Z" fill="white"/>
</svg>
