<svg width="150" height="58" viewBox="0 0 150 58" fill="none" xmlns="http://www.w3.org/2000/svg">
<path d="M54.161 25.2723C52.3966 10.2727 41.0286 3.88176 35.8271 1.72513C34.4536 1.15098 33.0238 0.720375 31.5623 0.469187C11.1859 -2.97568 1.73015 13.6028 0.529253 15.8922C0.455298 16.0357 0.501081 16.2151 0.641948 16.2977L2.68805 17.5357C2.81835 17.6146 2.87117 17.7833 2.80778 17.9232C-5.035 35.4454 5.60048 47.5455 9.83002 51.4425C10.6928 52.232 11.6296 52.9496 12.6333 53.5633C30.8087 64.6981 45.2088 51.0298 45.2088 51.0298C57.6157 39.6797 54.161 25.2723 54.161 25.2723ZM8.54108 28.2722C6.30129 32.7792 6.81194 36.8772 6.63585 37.9357C6.47033 38.9297 5.85404 38.0578 5.78008 37.9465C5.77656 37.9393 5.77304 37.9322 5.766 37.925C4.49467 35.7145 4.77992 30.619 4.80105 30.2817C4.80105 30.2709 4.80458 30.2601 4.80458 30.2458C5.26592 27.6047 6.70981 23.5785 7.95648 22.3046C9.22429 21.0128 10.0906 19.0894 14.8484 16.7354C19.6238 14.3994 24.438 14.7403 28.9844 16.7354C33.5309 18.7306 36.9681 23.8118 37.3238 25.9325C37.6407 27.8128 36.4715 26.5138 36.225 26.2196C36.2004 26.1909 36.1828 26.1622 36.1722 26.1263C36.1159 25.9612 35.6756 25.2005 32.3371 22.5343C28.4245 19.4267 23.2054 18.5476 19.1871 19.6062C15.1337 20.6576 10.7809 23.7651 8.54108 28.2722ZM32.4991 39.1271C27.4455 44.6676 22.5257 40.6199 22.332 40.4584C22.3285 40.4548 22.3249 40.4512 22.3179 40.4476C17.3594 36.7839 20.0359 31.1357 20.2507 30.7087C20.2577 30.6908 20.2683 30.6764 20.2788 30.662C23.6068 26.2304 27.0334 26.7686 28.8119 27.5042C29.5514 27.8093 30.2029 28.2937 30.7523 28.8858C34.0134 32.5316 31.7278 36.26 31.027 37.2288C30.9284 37.3652 30.9566 37.5554 31.0904 37.6559L32.4568 38.6714C32.6012 38.779 32.6223 38.9907 32.4991 39.1271ZM48.8221 37.3437C48.8221 37.3437 43.3036 54.5501 25.3782 52.6841C25.3782 52.6841 13.5595 50.9258 11.5944 38.1833C11.5944 38.1762 11.5909 38.1654 11.5909 38.1582C11.5169 37.8568 10.0484 31.4802 17.384 25.7675C17.3911 25.7603 17.4016 25.7567 17.4087 25.7495C17.4862 25.7029 17.8313 25.5199 17.6763 26.1909C17.5002 26.9445 15.3485 27.5904 14.4857 34.0567C13.6229 40.523 18.9617 44.3662 20.3387 45.335C21.7122 46.3039 30.3861 49.8062 36.8906 43.3578C43.2402 37.0638 42.3316 28.954 42.2858 28.57C42.2858 28.5592 42.2823 28.5521 42.2823 28.5413C42.2718 28.1789 41.9759 20.8047 34.7037 14.7618C27.3715 8.6687 18.3349 10.4773 18.0355 10.5383C18.032 10.5383 18.025 10.5418 18.0215 10.5418C17.8348 10.5706 14.1441 11.1626 8.52699 14.9053C8.47417 14.9412 8.40374 14.9951 8.36852 15.0489C8.26287 15.2104 7.92831 15.5692 7.32962 15.318C6.73094 15.0668 6.8542 14.9592 7.62897 14.1518C8.34387 13.4054 8.75943 12.9353 8.81929 12.8671C8.82282 12.86 8.82986 12.8564 8.83338 12.8492C9.11864 12.4724 19.1167 -0.52839 36.8026 7.70342C37.2428 7.90078 37.6478 8.13402 38.0528 8.40315C41.3632 10.5095 54.3546 20.1014 48.8221 37.3437ZM65.4022 22.8178H68.6808C68.8464 22.8178 68.9802 22.9541 68.9802 23.1228V33.2708C68.9802 33.2959 68.9837 33.3211 68.9872 33.3426C69.0612 33.6548 69.6634 35.8006 71.868 35.8006C74.231 35.8006 74.9706 33.6978 74.9706 33.339V23.1013C74.9706 22.9326 75.1044 22.7963 75.2699 22.7963H78.1612C78.3267 22.7963 78.4606 22.9326 78.4606 23.1013V33.1237C78.4606 33.2672 78.4606 33.4108 78.443 33.5543C78.3021 34.7026 77.3864 39.0876 71.9384 39.0876C66.8601 39.0876 65.7332 35.4059 65.4867 34.0028C65.4339 33.7337 65.4163 33.4646 65.4163 33.1775V22.8142L65.4022 22.8178ZM88.3706 30.5221C88.3706 30.5221 90.2758 29.6788 90.2758 26.7507C90.2758 23.8225 86.9619 22.7998 85.4264 22.7998H80.3482C80.1827 22.7998 80.0488 22.9326 80.0488 23.1013C80.0242 25.3297 79.8904 39.1271 80.0524 39.1271H86.2224C86.4865 39.1271 86.7682 39.0912 87.0323 39.0194C88.1417 38.7144 90.8745 37.6558 90.8745 34.5483C90.8745 30.6656 88.3706 30.5221 88.3706 30.5221ZM83.4191 26.1658C83.4191 26.0007 83.5494 25.8643 83.7114 25.8608C84.1023 25.85 84.8278 25.8321 85.5356 25.8321C86.1871 25.8321 86.9971 26.4959 86.9971 27.4827C86.9971 28.1107 86.645 28.5234 86.328 28.7745C86.0287 28.9898 85.6765 29.0975 85.3243 29.0975H83.722C83.5564 29.0975 83.4226 28.9611 83.4226 28.7925V26.1658H83.4191ZM85.673 36.0734H83.7149C83.5494 36.0734 83.4156 35.937 83.4156 35.7683V32.5424C83.4156 32.3773 83.5424 32.2445 83.7043 32.2374C84.1516 32.223 85.0531 32.1943 85.9195 32.1943C86.6943 32.1943 87.6662 32.9837 87.6662 34.1715C87.6662 34.9071 87.2612 35.3916 86.8739 35.6966C86.5182 35.9478 86.0956 36.0734 85.673 36.0734ZM92.4416 22.8178H95.4034C95.5689 22.8178 95.7027 22.9541 95.7027 23.1228V38.8041C95.7027 38.9728 95.5689 39.1092 95.4034 39.1092H92.4416C92.2761 39.1092 92.1423 38.9728 92.1423 38.8041V23.1228C92.1423 22.9541 92.2761 22.8178 92.4416 22.8178ZM96.6747 35.8006L99.1293 33.8306C99.2702 33.7158 99.478 33.7553 99.5731 33.9131C99.9499 34.5519 100.964 35.9801 102.563 35.9801C104.627 35.9801 104.468 33.8952 104.468 33.8952C104.468 33.8952 104.521 32.8366 101.823 31.9898C99.1258 31.1465 97.4002 29.4025 97.5234 27.3751C97.6467 25.362 99.0201 23.191 101.049 22.8142C103.017 22.4482 105.518 22.4877 107.451 25.2041C107.55 25.3404 107.518 25.5306 107.384 25.6311L105.229 27.2351C105.084 27.3428 104.88 27.2997 104.792 27.1418C104.486 26.6 103.683 25.5378 102.14 25.6885C100.077 25.8859 100.464 27.6298 101.013 28.186C101.506 28.6884 104.063 29.6214 104.644 29.8367C104.729 29.8726 104.993 29.9731 105.092 30.0125C105.099 30.0161 105.106 30.0197 105.113 30.0233C105.708 30.3176 107.747 31.5197 107.853 33.1991C107.993 35.2121 108.046 37.0602 105.12 38.553C102.19 40.0242 98.3827 38.6211 96.6747 35.8006ZM135.896 32.5711H129.585C129.419 32.5711 129.285 32.7074 129.285 32.8761V38.8041C129.285 38.9728 129.152 39.1092 128.986 39.1092H126.289C126.123 39.1092 125.989 38.9728 125.989 38.8041V23.1766C125.989 23.008 126.123 22.8716 126.289 22.8716H136.283C136.449 22.8716 136.582 23.008 136.582 23.1766V26.033C136.582 26.2017 136.449 26.338 136.283 26.338H129.62C129.455 26.338 129.321 26.4744 129.321 26.643V29.4815C129.321 29.6501 129.455 29.7865 129.62 29.7865H135.896V32.5711ZM142.136 38.8006V26.7112C142.136 26.5426 142.002 26.4062 141.837 26.4062H138.1C137.935 26.4062 137.801 26.2698 137.801 26.1012V23.173C137.801 23.0044 137.935 22.868 138.1 22.868H149.701C149.866 22.868 150 23.0044 150 23.173V26.1012C150 26.2698 149.866 26.4062 149.701 26.4062H146.084C145.918 26.4062 145.785 26.5426 145.785 26.7112V38.8006C145.785 38.9692 145.651 39.1056 145.485 39.1056H142.435C142.27 39.1056 142.136 38.9692 142.136 38.8006ZM117.016 22.4912C114.818 22.4912 112.829 23.3525 111.367 24.7663C111.244 24.8847 111.24 25.0821 111.36 25.2041L111.388 25.2328C111.505 25.3512 111.505 25.5486 111.385 25.667C109.923 27.1418 109.138 29.32 109.138 31.5807C109.138 32.3342 109.244 33.0699 109.437 33.7732C109.508 34.0244 109.596 34.2576 109.719 34.4909C111.075 37.1678 113.843 38.9979 117.016 38.9979C121.404 38.9979 124.753 35.5315 124.982 31.168C124.982 31.0245 125 30.8989 125 30.7553C124.982 26.1945 121.545 22.4912 117.016 22.4912ZM117.21 35.876C116.646 35.9298 116.1 35.8939 115.569 35.7863C114.019 35.4274 112.836 34.2612 112.466 32.6787C112.378 32.3019 112.325 31.8893 112.325 31.4946C112.325 30.1417 112.843 28.9253 113.684 28.0102C113.79 27.8954 113.794 27.716 113.688 27.5975L113.618 27.5186C113.505 27.393 113.519 27.1956 113.646 27.0844C114.487 26.3452 115.435 25.8931 116.664 25.8931C118.213 25.8931 119.59 26.4313 120.506 27.5653C121.334 28.57 121.774 29.9192 121.615 31.3546C121.404 33.7014 119.537 35.6212 117.21 35.876ZM135.896 32.3881V29.9982V32.3881Z" fill="white"/>
</svg>
