<svg width="100" height="36" viewBox="0 0 100 36" fill="none" xmlns="http://www.w3.org/2000/svg">
<path d="M94.6393 7.0332C93.958 7.03322 93.3934 7.27772 92.9376 7.77153C92.4817 8.26536 92.2585 8.93557 92.2585 9.78588V11.102H90.9642V12.2095H92.2585V19.2156H93.4489V12.2095H94.9349H96.8923V17.0086C96.8923 18.5931 97.5471 19.3922 98.8656 19.3922C99.3312 19.3922 99.7158 19.3044 100 19.1353V18.0279C99.7795 18.2074 99.513 18.2927 99.2092 18.2927C98.8121 18.2927 98.5259 18.18 98.3543 17.9476C98.1827 17.7152 98.0986 17.3279 98.0986 16.7839V12.2095H100V11.102H98.0986V8.70246L96.8923 9.11978V11.102H94.9349H93.4489V9.85008C93.4489 8.70401 93.8681 8.13268 94.7112 8.13267C95.0102 8.13268 95.2828 8.19874 95.5181 8.34133V7.16963C95.3024 7.07458 95.0069 7.03322 94.6393 7.0332ZM52.5359 7.35421C52.3202 7.35423 52.1286 7.4339 51.9766 7.59497C51.8247 7.75607 51.7529 7.96196 51.7529 8.2049C51.7529 8.44786 51.8247 8.64836 51.9766 8.80679C52.1286 8.96525 52.3202 9.03954 52.5359 9.03953C52.7565 9.03954 52.9487 8.9625 53.1031 8.79877C53.2575 8.63505 53.3348 8.43729 53.3348 8.2049C53.3348 7.96196 53.2575 7.75607 53.1031 7.59497C52.9487 7.4339 52.7565 7.35423 52.5359 7.35421ZM42.2377 22.3134C41.7819 22.3134 41.3262 22.3685 40.8876 22.4899C40.4489 22.6114 40.0642 22.7954 39.7211 23.0437C39.378 23.2919 39.101 23.6078 38.8902 23.9907C38.6795 24.3736 38.5707 24.8293 38.5707 25.3469C38.5707 25.7695 38.6436 26.1322 38.7784 26.4464C38.9132 26.7606 39.0944 27.0408 39.3296 27.289C39.5649 27.5373 39.8499 27.7652 40.1685 27.9712C40.4871 28.1772 40.8235 28.3804 41.1911 28.5811C41.5391 28.7713 41.8644 28.9552 42.1658 29.1268C42.4673 29.2985 42.7282 29.477 42.9488 29.6645C43.1693 29.852 43.3431 30.0634 43.4681 30.2905C43.5931 30.5176 43.6598 30.7787 43.6598 31.085C43.6598 31.6554 43.4675 32.0975 43.0926 32.4012C42.7176 32.7048 42.1426 32.8506 41.3829 32.8506C41.1623 32.8506 40.9236 32.8339 40.6639 32.7864C40.4041 32.7388 40.1542 32.6649 39.8969 32.5777C39.6395 32.4906 39.3947 32.3835 39.1619 32.2567C38.929 32.13 38.7213 31.9898 38.5547 31.8314V33.4043C38.6919 33.5047 38.878 33.5953 39.1059 33.6772C39.3339 33.759 39.5781 33.8224 39.833 33.8778C40.0878 33.9333 40.3389 33.9772 40.584 34.0062C40.829 34.0353 41.0325 34.0544 41.1991 34.0544C41.6991 34.0544 42.1703 33.9941 42.6212 33.8858C43.0722 33.7776 43.474 33.6071 43.8196 33.3642C44.1652 33.1213 44.4391 32.8054 44.6425 32.4172C44.8459 32.029 44.9461 31.5485 44.9461 30.9887C44.9461 30.5662 44.8719 30.1926 44.7224 29.8652C44.5729 29.5377 44.3701 29.2437 44.1152 28.9744C43.8603 28.705 43.5666 28.4579 43.2284 28.236C42.8902 28.0142 42.5273 27.8027 42.1499 27.602C41.7822 27.4066 41.457 27.2281 41.1752 27.0643C40.8933 26.9006 40.6602 26.733 40.4641 26.5587C40.2681 26.3845 40.1172 26.1922 40.0167 25.9809C39.9162 25.7697 39.8649 25.517 39.8649 25.2265C39.8649 24.9149 39.9323 24.6486 40.0647 24.432C40.197 24.2155 40.3732 24.0397 40.584 23.9024C40.7947 23.7651 41.0334 23.6662 41.303 23.6054C41.5726 23.5447 41.8403 23.5172 42.1099 23.5172C43.0853 23.5172 43.8842 23.7426 44.5067 24.2073V22.7146C44.0312 22.4453 43.2769 22.3134 42.2377 22.3134ZM38.5547 7.85178V19.2156H39.7451V11.6076C39.7451 10.5777 39.7204 9.83883 39.6812 9.38461H39.7131C39.821 9.90749 39.9218 10.2948 40.0247 10.5483L43.6199 19.2156H44.2271L47.8302 10.4841C47.9233 10.2623 48.0321 9.89693 48.1498 9.38461H48.1817C48.1131 10.2561 48.0699 10.9895 48.0699 11.5916V19.2156H49.3002V7.85178H47.7503L44.4508 15.7406C44.3233 16.047 44.1582 16.5138 43.9474 17.137H43.9075C43.834 16.836 43.6701 16.3801 43.4201 15.7727L40.1845 7.85178H38.5547ZM48.4853 23.3486L47.279 23.7659V25.7482H45.9847V26.8557H47.279V31.6548C47.279 33.2393 47.9418 34.0383 49.2603 34.0383C49.7259 34.0383 50.0945 33.9505 50.3788 33.7815V32.674C50.1582 32.8536 49.8917 32.9389 49.5879 32.9389C49.1908 32.9389 48.9125 32.8262 48.741 32.5938C48.5694 32.3614 48.4853 31.9741 48.4853 31.4301V26.8557H50.3788V25.7482H48.4853V23.3486ZM58.9672 10.9094C57.7811 10.9094 56.8258 11.3186 56.1151 12.1293C55.4044 12.94 55.0445 14.0112 55.0445 15.3474C55.0445 16.5463 55.3759 17.524 56.0352 18.2766C56.6944 19.0293 57.5663 19.4082 58.6397 19.4082C59.4337 19.4082 60.1145 19.2134 60.6929 18.8384V17.6025C60.1145 18.0726 59.4962 18.3087 58.8394 18.3087C58.0601 18.3087 57.4411 18.0394 56.9779 17.4902C56.5147 16.9409 56.2829 16.1857 56.2829 15.2351C56.2829 14.2685 56.5333 13.4939 57.0259 12.8997C57.5185 12.3055 58.1498 12.0089 58.9193 12.0089C59.5565 12.0089 60.1501 12.2123 60.7089 12.6349V11.3107C60.204 11.0466 59.6289 10.9094 58.9672 10.9094ZM71.0949 10.9094C69.9186 10.9094 68.9818 11.2912 68.2907 12.057C67.5996 12.8229 67.2521 13.8885 67.2521 15.2511C67.2521 16.5028 67.5866 17.5107 68.2508 18.2686C68.9149 19.0265 69.8065 19.4082 70.9192 19.4082C72.0612 19.4082 72.9646 19.0155 73.6435 18.2365C74.3224 17.4575 74.6661 16.4167 74.6661 15.1227C74.6661 13.8023 74.3532 12.7696 73.7234 12.0249C73.0936 11.2803 72.2174 10.9094 71.0949 10.9094ZM79.0363 10.9094C78.6687 10.9094 78.3113 10.9616 77.9657 11.0619C77.6201 11.1623 77.3085 11.3133 77.039 11.5113C76.7694 11.7094 76.5536 11.9565 76.3918 12.2496C76.2301 12.5428 76.1521 12.8725 76.1521 13.2528C76.1521 13.5644 76.1942 13.839 76.28 14.0714C76.3657 14.3038 76.4944 14.5152 76.6635 14.6974C76.8326 14.8796 77.0342 15.0417 77.2866 15.1869C77.539 15.3321 77.8401 15.4777 78.1734 15.6203C78.4136 15.7206 78.6362 15.8168 78.8445 15.9092C79.0528 16.0016 79.2334 16.106 79.3878 16.2222C79.5422 16.3384 79.6646 16.4729 79.7553 16.6234C79.846 16.774 79.8911 16.9526 79.8911 17.1692C79.8911 17.9297 79.36 18.3087 78.3013 18.3087C77.5121 18.3087 76.793 18.0532 76.1362 17.5303V18.9187C76.7047 19.2408 77.375 19.4082 78.1495 19.4082C78.5416 19.4082 78.9181 19.3588 79.2759 19.2638C79.6338 19.1687 79.9522 19.0178 80.2267 18.8224C80.5011 18.6269 80.7176 18.3878 80.8818 18.0921C81.046 17.7963 81.1295 17.4421 81.1295 17.0407C81.1295 16.7133 81.0781 16.4358 80.9777 16.1981C80.8772 15.9604 80.7325 15.7463 80.5462 15.5641C80.36 15.3819 80.1318 15.2198 79.8672 15.0745C79.6025 14.9293 79.3057 14.7865 78.9724 14.6492C78.7224 14.5436 78.4973 14.4501 78.3013 14.3603C78.1052 14.2705 77.9432 14.1663 77.8059 14.0553C77.6687 13.9444 77.5654 13.8208 77.4943 13.6781C77.4233 13.5356 77.3825 13.3597 77.3825 13.1485C77.3825 12.9795 77.4233 12.823 77.4943 12.683C77.5654 12.5431 77.66 12.4222 77.7899 12.3219C77.9198 12.2215 78.08 12.1446 78.2613 12.0891C78.4427 12.0337 78.651 12.0089 78.8765 12.0089C79.597 12.0089 80.2241 12.2039 80.7779 12.5947V11.2786C80.2633 11.0356 79.6882 10.9094 79.0363 10.9094ZM86.2985 10.9094C85.1221 10.9094 84.1854 11.2912 83.4943 12.057C82.8032 12.8229 82.4557 13.8885 82.4557 15.2511C82.4557 16.5028 82.7902 17.5107 83.4543 18.2686C84.1185 19.0265 85.0101 19.4082 86.1227 19.4082C87.2648 19.4082 88.1682 19.0155 88.8471 18.2365C89.5259 17.4575 89.8697 16.4167 89.8697 15.1227C89.8697 13.8023 89.5568 12.7696 88.927 12.0249C88.2971 11.2803 87.421 10.9094 86.2985 10.9094ZM55.3321 25.5556C54.1558 25.5556 53.219 25.9374 52.5279 26.7032C51.8368 27.469 51.4893 28.5347 51.4893 29.8973C51.4893 31.149 51.8238 32.1569 52.488 32.9148C53.1521 33.6727 54.0437 34.0544 55.1564 34.0544C56.2984 34.0544 57.2018 33.6617 57.8807 32.8827C58.5596 32.1037 58.9033 31.0628 58.9033 29.7689C58.9033 28.4485 58.5904 27.4158 57.9606 26.6711C57.3307 25.9264 56.4546 25.5556 55.3321 25.5556ZM69.0257 25.5556C68.0405 25.5556 67.2052 25.9565 66.5411 26.7514C65.8769 27.5462 65.5424 28.5708 65.5424 29.8331C65.5424 31.1693 65.8454 32.2101 66.4532 32.9469C67.061 33.6836 67.9062 34.0544 68.9698 34.0544C70.0579 34.0544 70.9366 33.7935 71.5983 33.2759V32.0561C70.8875 32.6582 70.1054 32.9549 69.2574 32.9549C68.5026 32.9549 67.9071 32.7078 67.4758 32.2166C67.0445 31.7254 66.8163 31.0331 66.7967 30.13H72.1096V29.4479C72.1096 28.2278 71.8498 27.2774 71.3107 26.5908C70.7715 25.9043 70.0109 25.5556 69.0257 25.5556ZM65.7421 10.9576C65.3059 10.9576 64.9126 11.1196 64.5597 11.4391C64.2068 11.7586 63.9403 12.2009 63.7688 12.7713H63.7368V11.102H62.5305V19.2156H63.7368V15.0826C63.7368 14.1794 63.9106 13.4627 64.2561 12.9398C64.6017 12.417 65.0277 12.1533 65.5424 12.1533C65.9394 12.1533 66.2504 12.2439 66.4612 12.4182V11.0699C66.2945 10.996 66.0558 10.9576 65.7421 10.9576ZM64.0324 25.6037C63.5962 25.6037 63.2029 25.7657 62.85 26.0853C62.4971 26.4048 62.2306 26.8471 62.0591 27.4175H62.0351V25.7482H60.8287V33.8618H62.0351V29.7287C62.0351 28.8256 62.2089 28.1089 62.5544 27.586C62.9 27.0631 63.334 26.7995 63.8487 26.7995C64.2457 26.7995 64.5487 26.8901 64.7595 27.0643V25.7161C64.5928 25.6422 64.3461 25.6037 64.0324 25.6037ZM51.9207 11.102V19.2156H53.1191V11.102H51.9207ZM70.9991 12.0089C71.7784 12.0089 72.3856 12.2782 72.8046 12.8275C73.2237 13.3767 73.4278 14.1568 73.4278 15.1709C73.4278 16.1743 73.2237 16.9542 72.8046 17.4982C72.3856 18.0422 71.7784 18.3087 70.9991 18.3087C70.2344 18.3087 69.6254 18.0367 69.1695 17.4821C68.7137 16.9276 68.4904 16.1642 68.4904 15.203C68.4904 14.2048 68.7106 13.4273 69.1615 12.8596C69.6125 12.2918 70.2246 12.0089 70.9991 12.0089ZM86.2026 12.0089C86.982 12.0089 87.5891 12.2782 88.0082 12.8275C88.4273 13.3767 88.6314 14.1568 88.6314 15.1709C88.6314 16.1743 88.4273 16.9542 88.0082 17.4982C87.5891 18.0422 86.982 18.3087 86.2026 18.3087C85.438 18.3087 84.8289 18.0367 84.3731 17.4821C83.9173 16.9276 83.694 16.1642 83.694 15.203C83.694 14.2048 83.9142 13.4273 84.3651 12.8596C84.816 12.2918 85.4282 12.0089 86.2026 12.0089ZM55.2363 26.6551C56.0156 26.6551 56.6228 26.9244 57.0418 27.4736C57.4609 28.0229 57.665 28.803 57.665 29.817C57.665 30.8205 57.4609 31.6004 57.0418 32.1444C56.6228 32.6883 56.0156 32.9549 55.2363 32.9549C54.4716 32.9549 53.8626 32.6829 53.4067 32.1283C52.9509 31.5737 52.7276 30.8103 52.7276 29.8491C52.7276 28.8509 52.9478 28.0735 53.3987 27.5057C53.8497 26.938 54.4618 26.6551 55.2363 26.6551ZM69.0018 26.6551C69.5899 26.6551 70.0451 26.8558 70.3759 27.273C70.7068 27.6902 70.8743 28.2806 70.8792 29.0305H66.8127C66.9058 28.3228 67.1507 27.7435 67.5477 27.3051C67.9447 26.8667 68.4332 26.6551 69.0018 26.6551Z" fill="white"/>
<path fill-rule="evenodd" clip-rule="evenodd" d="M14.7359 3.32741C14.8058 3.64081 14.8302 3.97203 14.8351 4.29249L14.8371 4.41788L14.7219 4.46761C14.3118 4.64456 13.82 4.86387 13.5224 5.20817C13.0839 5.71534 13.0549 6.55451 13.0549 7.18921V8.52444L11.7879 8.78008V7.18222C11.7879 6.00382 11.9409 4.69118 12.9453 3.92415C13.3984 3.57812 13.9578 3.37858 14.4907 3.19133L14.6899 3.12132L14.7359 3.32742L14.7359 3.32741ZM17.1176 2.57445C17.6419 2.49601 18.2207 2.43485 18.7496 2.49282C19.1487 2.53656 19.5335 2.65257 19.8419 2.91961C20.2168 3.24431 20.3918 3.71847 20.4895 4.1918C20.6272 4.8588 20.6392 5.61042 20.6392 6.29014V7.00395L19.3818 7.26172V6.29025C19.3818 5.83103 19.3939 5.34111 19.3414 4.88539C19.3101 4.61368 19.2465 4.29023 19.0561 4.08124C18.6792 3.66759 17.7963 3.77227 17.3098 3.84225L17.1155 3.87021L17.0964 3.67487C17.0677 3.381 17.0239 3.08801 16.962 2.79924L16.9202 2.60401L17.1176 2.57445V2.57445ZM8.14698 9.50761L6.88037 9.7595V5.16925C6.88037 3.62371 7.24759 2.15757 8.59221 1.25061C9.4306 0.68511 10.4713 0.443659 11.4446 0.22297C12.827 -0.0904796 14.586 -0.234235 15.6451 0.912322C16.4824 1.81875 16.6252 3.26003 16.6252 4.43777V7.80913L15.3569 8.06561V4.36084C15.3569 3.93958 15.3381 3.51107 15.2512 3.09785C15.1932 2.82193 15.1032 2.54831 14.9614 2.30349C14.7236 1.89245 14.3765 1.62754 13.9229 1.48926C13.2332 1.27893 12.395 1.39016 11.7074 1.55141C10.7389 1.77855 9.53642 2.11441 8.85611 2.89029C8.28392 3.54284 8.14699 4.41319 8.14699 5.2536V9.50761L8.14698 9.50761Z" fill="white"/>
<path fill-rule="evenodd" clip-rule="evenodd" d="M30.1957 32.9163V8.82298V8.56141L29.948 8.47129L25.043 6.68702L24.8422 6.6709L0.301883 11.5777L0 11.638V11.9455V29.7933V30.1007L0.301883 30.1611L24.8422 35.0681L25.043 35.052L29.948 33.2681L30.1957 33.178V32.9164V32.9163ZM12.6806 14.7908L19.5452 13.7856L19.9746 13.7227V14.1564V20.1282V20.5034H19.5994H12.7348H12.3597V20.1282V15.1615V14.8378L12.6806 14.7908V14.7908ZM11.4721 20.1283V20.5034H11.0969H5.65162H5.27647V20.1283V15.9706V15.6456L5.60033 15.5999L11.0456 14.8309L11.4721 14.7707V15.2017V20.1283L11.4721 20.1283ZM5.65163 21.3413H11.0969H11.4721V21.7165V27.0041V27.435L11.0456 27.3749L5.60034 26.6072L5.27648 26.5615V26.2365V21.7164V21.3413H5.65163L5.65163 21.3413ZM12.7348 21.3413H19.5995H19.9746V21.7165V28.0504V28.4839L19.5452 28.4212L12.6806 27.4176L12.3597 27.3706V27.0468V21.7165V21.3413H12.7348Z" fill="white"/>
</svg>
