<svg width="104" height="37" viewBox="0 0 104 37" fill="none" xmlns="http://www.w3.org/2000/svg">
<path d="M98.4093 7.26855C97.7051 7.26857 97.1217 7.52126 96.6506 8.0316C96.1795 8.54196 95.9488 9.23461 95.9488 10.1134V11.4736H94.6112V12.6182H95.9488V19.8588H97.179V12.6182H98.7148H100.738V17.5779C100.738 19.2154 101.414 20.0412 102.777 20.0412C103.258 20.0412 103.656 19.9505 103.95 19.7758V18.6313C103.722 18.8169 103.446 18.905 103.132 18.905C102.722 18.905 102.426 18.7885 102.249 18.5483C102.071 18.3082 101.984 17.9079 101.984 17.3457V12.6182H103.95V11.4736H101.984V8.9937L100.738 9.42498V11.4736H98.7148H97.179V10.1797C97.179 8.9953 97.6123 8.40484 98.4836 8.40483C98.7926 8.40484 99.0744 8.47311 99.3175 8.62047V7.40955C99.0946 7.31131 98.7892 7.26857 98.4093 7.26855ZM54.8964 7.60031C54.6735 7.60033 54.4755 7.68267 54.3184 7.84913C54.1614 8.01562 54.0872 8.2284 54.0872 8.47947C54.0872 8.73057 54.1614 8.93778 54.3184 9.10152C54.4755 9.26528 54.6735 9.34205 54.8964 9.34204C55.1243 9.34205 55.323 9.26244 55.4826 9.09322C55.6422 8.92403 55.7221 8.71965 55.7221 8.47947C55.7221 8.2284 55.6422 8.01562 55.4826 7.84913C55.323 7.68267 55.1243 7.60033 54.8964 7.60031ZM44.2535 23.0602C43.7824 23.0603 43.3115 23.1172 42.8581 23.2427C42.4047 23.3683 42.0072 23.5585 41.6526 23.815C41.298 24.0715 41.0117 24.398 40.7939 24.7937C40.5761 25.1894 40.4637 25.6605 40.4637 26.1954C40.4637 26.632 40.539 27.0069 40.6783 27.3316C40.8176 27.6564 41.0049 27.946 41.248 28.2025C41.4912 28.459 41.7857 28.6946 42.115 28.9075C42.4443 29.1204 42.7919 29.3304 43.1719 29.5378C43.5315 29.7343 43.8676 29.9244 44.1792 30.1018C44.4907 30.2792 44.7604 30.4637 44.9883 30.6575C45.2163 30.8513 45.3958 31.0697 45.525 31.3044C45.6542 31.5391 45.7232 31.809 45.7232 32.1255C45.7232 32.715 45.5245 33.1719 45.137 33.4857C44.7494 33.7996 44.1552 33.9502 43.37 33.9502C43.1421 33.9502 42.8954 33.933 42.6269 33.8839C42.3584 33.8347 42.1002 33.7583 41.8343 33.6682C41.5683 33.5781 41.3153 33.4675 41.0747 33.3365C40.834 33.2055 40.6194 33.0606 40.4471 32.8969V34.5225C40.589 34.6262 40.7813 34.7199 41.0169 34.8045C41.2524 34.8891 41.5048 34.9545 41.7682 35.0118C42.0316 35.0691 42.2911 35.1145 42.5443 35.1445C42.7976 35.1746 43.0079 35.1943 43.1801 35.1943C43.6968 35.1943 44.1838 35.132 44.6498 35.0201C45.1158 34.9082 45.5312 34.7321 45.8883 34.481C46.2454 34.2299 46.5285 33.9035 46.7388 33.5023C46.949 33.1012 47.0525 32.6046 47.0525 32.026C47.0525 31.5893 46.9758 31.2033 46.8213 30.8649C46.6668 30.5264 46.4572 30.2226 46.1938 29.9442C45.9304 29.6659 45.6268 29.4104 45.2773 29.1812C44.9278 28.9519 44.5527 28.7334 44.1627 28.526C43.7827 28.324 43.4466 28.1395 43.1553 27.9703C42.8641 27.8011 42.6231 27.6279 42.4205 27.4477C42.2179 27.2676 42.062 27.0689 41.9581 26.8506C41.8543 26.6323 41.8012 26.3712 41.8012 26.0709C41.8012 25.7489 41.8709 25.4736 42.0077 25.2498C42.1444 25.0261 42.3265 24.8444 42.5443 24.7024C42.7622 24.5605 43.0088 24.4584 43.2875 24.3956C43.5661 24.3328 43.8428 24.3043 44.1214 24.3043C45.1294 24.3043 45.9551 24.5373 46.5984 25.0176V23.4749C46.107 23.1966 45.3274 23.0603 44.2535 23.0602ZM40.4471 8.11454V19.8588H41.6774V11.9961C41.6774 10.9318 41.6519 10.1681 41.6113 9.69868H41.6444C41.7558 10.2391 41.86 10.6393 41.9664 10.9013L45.6819 19.8588H46.3094L50.0332 10.835C50.1294 10.6057 50.2419 10.2281 50.3635 9.69868H50.3965C50.3256 10.5993 50.2809 11.3573 50.2809 11.9795V19.8588H51.5524V8.11454H49.9506L46.5406 16.2675C46.4089 16.5841 46.2382 17.0666 46.0204 17.7106H45.9791C45.9032 17.3995 45.7338 16.9284 45.4755 16.3007L42.1315 8.11454H40.4471ZM50.7102 24.1302L49.4635 24.5614V26.6101H48.1259V27.7546H49.4635V32.7144C49.4635 34.3519 50.1485 35.1777 51.5111 35.1777C51.9924 35.1777 52.3733 35.087 52.6671 34.9123V33.7677C52.4391 33.9533 52.1637 34.0414 51.8497 34.0414C51.4393 34.0414 51.1517 33.925 50.9745 33.6848C50.7972 33.4446 50.7102 33.0444 50.7102 32.4822V27.7546H52.6671V26.6101H50.7102V24.1302ZM61.543 11.2745C60.3172 11.2745 59.3299 11.6974 58.5954 12.5352C57.8609 13.3731 57.489 14.4802 57.489 15.8611C57.489 17.1001 57.8315 18.1106 58.5128 18.8884C59.1942 19.6662 60.0951 20.0578 61.2045 20.0578C62.0251 20.0578 62.7287 19.8565 63.3265 19.469V18.1917C62.7287 18.6775 62.0897 18.9216 61.4109 18.9216C60.6055 18.9216 59.9658 18.6432 59.4871 18.0756C59.0084 17.5079 58.7688 16.7275 58.7688 15.745C58.7688 14.7461 59.0276 13.9455 59.5367 13.3314C60.0458 12.7174 60.6982 12.4108 61.4935 12.4108C62.152 12.4108 62.7655 12.6211 63.343 13.0577V11.6892C62.8212 11.4163 62.2269 11.2745 61.543 11.2745ZM74.0767 11.2745C72.861 11.2745 71.8929 11.6691 71.1786 12.4606C70.4644 13.252 70.1053 14.3533 70.1053 15.7616C70.1053 17.0552 70.451 18.0968 71.1373 18.8801C71.8237 19.6634 72.7452 20.0578 73.8951 20.0578C75.0754 20.0578 76.009 19.652 76.7106 18.8469C77.4122 18.0418 77.7675 16.9661 77.7675 15.6289C77.7675 14.2643 77.4441 13.197 76.7932 12.4274C76.1423 11.6578 75.2368 11.2745 74.0767 11.2745ZM82.2839 11.2745C81.904 11.2745 81.5346 11.3284 81.1775 11.4321C80.8204 11.5358 80.4983 11.6919 80.2197 11.8966C79.9411 12.1013 79.7181 12.3567 79.5509 12.6596C79.3838 12.9626 79.3032 13.3034 79.3032 13.6964C79.3032 14.0184 79.3467 14.3022 79.4353 14.5424C79.524 14.7825 79.6569 15.001 79.8317 15.1893C80.0064 15.3776 80.2148 15.5451 80.4757 15.6952C80.7366 15.8453 81.0477 15.9957 81.3922 16.1431C81.6404 16.2468 81.8705 16.3462 82.0857 16.4417C82.301 16.5372 82.4876 16.6451 82.6472 16.7651C82.8068 16.8852 82.9333 17.0243 83.027 17.1798C83.1207 17.3354 83.1674 17.52 83.1674 17.7438C83.1674 18.5298 82.6185 18.9216 81.5243 18.9216C80.7087 18.9216 79.9655 18.6574 79.2867 18.117V19.5519C79.8743 19.8849 80.567 20.0578 81.3674 20.0578C81.7727 20.0578 82.1618 20.0068 82.5316 19.9085C82.9014 19.8103 83.2305 19.6543 83.5142 19.4524C83.7978 19.2504 84.0215 19.0033 84.1912 18.6976C84.3609 18.392 84.4472 18.0259 84.4472 17.6111C84.4472 17.2727 84.3941 16.9859 84.2903 16.7402C84.1864 16.4946 84.0369 16.2733 83.8444 16.085C83.6519 15.8967 83.4161 15.7292 83.1426 15.5791C82.8691 15.429 82.5623 15.2814 82.2179 15.1395C81.9595 15.0304 81.7269 14.9337 81.5243 14.8409C81.3217 14.7481 81.1542 14.6404 81.0124 14.5258C80.8705 14.4111 80.7638 14.2833 80.6904 14.1359C80.6169 13.9886 80.5748 13.8069 80.5748 13.5885C80.5748 13.4139 80.6169 13.2522 80.6904 13.1075C80.7638 12.9629 80.8616 12.838 80.9959 12.7343C81.1301 12.6306 81.2956 12.5511 81.483 12.4937C81.6704 12.4364 81.8858 12.4108 82.1188 12.4108C82.8634 12.4108 83.5115 12.6124 84.0839 13.0163V11.6561C83.552 11.405 82.9576 11.2745 82.2839 11.2745ZM89.7893 11.2745C88.5735 11.2745 87.6054 11.6691 86.8912 12.4606C86.1769 13.252 85.8178 14.3533 85.8178 15.7616C85.8178 17.0552 86.1635 18.0968 86.8499 18.8801C87.5363 19.6634 88.4577 20.0578 89.6076 20.0578C90.7879 20.0578 91.7216 19.652 92.4232 18.8469C93.1247 18.0418 93.48 16.9661 93.48 15.6289C93.48 14.2643 93.1566 13.197 92.5057 12.4274C91.8548 11.6578 90.9493 11.2745 89.7893 11.2745ZM57.7862 26.411C56.5705 26.411 55.6024 26.8056 54.8881 27.597C54.1739 28.3885 53.8148 29.4898 53.8148 30.898C53.8148 32.1916 54.1605 33.2333 54.8469 34.0166C55.5332 34.7998 56.4547 35.1943 57.6046 35.1943C58.7849 35.1943 59.7185 34.7885 60.4201 33.9834C61.1217 33.1783 61.477 32.1026 61.477 30.7653C61.477 29.4008 61.1536 28.3335 60.5027 27.5639C59.8518 26.7943 58.9463 26.411 57.7862 26.411ZM71.9382 26.411C70.9201 26.411 70.0568 26.8253 69.3704 27.6468C68.684 28.4683 68.3383 29.5272 68.3383 30.8317C68.3383 32.2126 68.6514 33.2883 69.2796 34.0497C69.9077 34.8112 70.7812 35.1943 71.8804 35.1943C73.005 35.1943 73.913 34.9247 74.5969 34.3898V33.1291C73.8624 33.7513 73.054 34.058 72.1777 34.058C71.3976 34.058 70.7822 33.8026 70.3364 33.295C69.8907 32.7874 69.6549 32.0719 69.6346 31.1386H75.1253V30.4336C75.1253 29.1727 74.8569 28.1905 74.2997 27.4809C73.7424 26.7714 72.9564 26.411 71.9382 26.411ZM68.5447 11.3243C68.0939 11.3243 67.6875 11.4917 67.3227 11.8219C66.958 12.1522 66.6826 12.6092 66.5053 13.1987H66.4723V11.4736H65.2255V19.8588H66.4723V15.5874C66.4723 14.654 66.6519 13.9133 67.009 13.3729C67.3661 12.8325 67.8064 12.5601 68.3383 12.5601C68.7486 12.5601 69.07 12.6537 69.2878 12.8338V11.4404C69.1156 11.364 68.8689 11.3243 68.5447 11.3243ZM66.7778 26.4608C66.327 26.4608 65.9205 26.6282 65.5558 26.9584C65.1911 27.2886 64.9157 27.7457 64.7384 28.3352H64.7136V26.6101H63.4669V34.9952H64.7136V30.7239C64.7136 29.7905 64.8932 29.0497 65.2503 28.5094C65.6074 27.969 66.056 27.6966 66.5879 27.6966C66.9982 27.6966 67.3113 27.7901 67.5292 27.9703V26.5769C67.3569 26.5005 67.102 26.4608 66.7778 26.4608ZM54.2606 11.4736V19.8588H55.4991V11.4736H54.2606ZM73.9777 12.4108C74.7831 12.4108 75.4106 12.6891 75.8437 13.2568C76.2768 13.8245 76.4877 14.6306 76.4877 15.6786C76.4877 16.7157 76.2768 17.5217 75.8437 18.0839C75.4106 18.6461 74.7831 18.9216 73.9777 18.9216C73.1874 18.9216 72.558 18.6404 72.0869 18.0673C71.6158 17.4942 71.385 16.7052 71.385 15.7118C71.385 14.6802 71.6126 13.8767 72.0786 13.29C72.5446 12.7032 73.1773 12.4108 73.9777 12.4108ZM89.6902 12.4108C90.4956 12.4108 91.1231 12.6891 91.5562 13.2568C91.9893 13.8245 92.2002 14.6306 92.2002 15.6786C92.2002 16.7157 91.9893 17.5217 91.5562 18.0839C91.1231 18.6461 90.4956 18.9216 89.6902 18.9216C88.8999 18.9216 88.2705 18.6404 87.7994 18.0673C87.3283 17.4942 87.0976 16.7052 87.0976 15.7118C87.0976 14.6802 87.3251 13.8767 87.7911 13.29C88.2572 12.7032 88.8898 12.4108 89.6902 12.4108ZM57.6872 27.5473C58.4926 27.5473 59.1201 27.8256 59.5532 28.3933C59.9863 28.9609 60.1972 29.7671 60.1972 30.8151C60.1972 31.8522 59.9863 32.6581 59.5532 33.2203C59.1201 33.7825 58.4926 34.058 57.6872 34.058C56.8969 34.058 56.2675 33.7769 55.7964 33.2037C55.3253 32.6306 55.0945 31.8417 55.0946 30.8483C55.0945 29.8167 55.3221 29.0132 55.7881 28.4264C56.2541 27.8397 56.8868 27.5473 57.6872 27.5473ZM71.9135 27.5473C72.5213 27.5473 72.9917 27.7547 73.3336 28.1859C73.6756 28.6171 73.8487 29.2272 73.8538 30.0023H69.6511C69.7474 29.2709 70.0004 28.6721 70.4108 28.2191C70.8211 27.7661 71.3259 27.5473 71.9135 27.5473Z" fill="white"/>
<path fill-rule="evenodd" clip-rule="evenodd" d="M15.8311 3.4388C15.9034 3.76269 15.9286 4.105 15.9337 4.43619L15.9357 4.56578L15.8166 4.61717C15.3928 4.80004 14.8846 5.02669 14.577 5.38252C14.1238 5.90667 14.0938 6.77394 14.0938 7.42988V8.80981L12.7845 9.07401V7.42266C12.7845 6.20481 12.9426 4.84822 13.9806 4.05552C14.4488 3.69791 15.0269 3.49168 15.5777 3.29816L15.7835 3.22581L15.8311 3.43881L15.8311 3.4388ZM18.2926 2.66063C18.8344 2.57956 19.4325 2.51636 19.9792 2.57627C20.3917 2.62148 20.7893 2.74137 21.108 3.01735C21.4955 3.35291 21.6763 3.84295 21.7773 4.33213C21.9196 5.02146 21.932 5.79823 21.932 6.50072V7.23842L20.6326 7.50482V6.50083C20.6326 6.02623 20.6451 5.51991 20.5908 5.04894C20.5584 4.76813 20.4927 4.43385 20.296 4.21787C19.9064 3.79037 18.994 3.89855 18.4911 3.97087L18.2904 3.99977L18.2706 3.79789C18.241 3.49418 18.1957 3.19139 18.1317 2.89295L18.0885 2.69118L18.2926 2.66064V2.66063ZM9.02163 9.82589L7.71262 10.0862V5.3423C7.71262 3.74502 8.09213 2.2298 9.48176 1.29247C10.3482 0.708045 11.4238 0.458511 12.4296 0.230434C13.8583 -0.0935085 15.6762 -0.242076 16.7708 0.942863C17.6361 1.87963 17.7836 3.36917 17.7836 4.58633V8.07056L16.4729 8.33562V4.50683C16.4729 4.07147 16.4535 3.62861 16.3637 3.20155C16.3037 2.9164 16.2107 2.63362 16.0642 2.3806C15.8184 1.9558 15.4597 1.68202 14.9909 1.53911C14.2781 1.32174 13.4118 1.4367 12.7012 1.60335C11.7003 1.83809 10.4576 2.18519 9.75449 2.98705C9.16315 3.66144 9.02163 4.56092 9.02163 5.42947V9.82589L9.02163 9.82589Z" fill="white"/>
<path fill-rule="evenodd" clip-rule="evenodd" d="M31.8084 34.0186V9.11866V8.84834L31.5525 8.7552L26.4832 6.9112L26.2757 6.89453L0.913857 11.9656L0.601868 12.028V12.3457V30.791V31.1087L0.913857 31.1711L26.2757 36.2424L26.4832 36.2258L31.5525 34.3821L31.8084 34.289V34.0187V34.0186ZM13.7069 15.2862L20.8014 14.2474L21.2451 14.1825V14.6306V20.8024V21.1901H20.8574H13.763H13.3753V20.8024V15.6694V15.3348L13.7069 15.2862V15.2862ZM12.458 20.8024V21.1901H12.0703H6.44268H6.05498V20.8024V16.5056V16.1697L6.38968 16.1224L12.0173 15.3277L12.458 15.2655V15.7109V20.8024L12.458 20.8024ZM6.4427 22.0561H12.0703H12.458V22.4438V27.9085V28.3537L12.0173 28.2916L6.38969 27.4982L6.05499 27.451V27.1151V22.4437V22.056H6.44269L6.4427 22.0561ZM13.763 22.0561H20.8574H21.2452V22.4438V28.9897V29.4378L20.8014 29.3729L13.707 28.3358L13.3753 28.2872V27.9526V22.4438V22.0561H13.763Z" fill="white"/>
</svg>
