<svg width="135" height="41" viewBox="0 0 135 41" fill="none" xmlns="http://www.w3.org/2000/svg">
<path d="M20.4102 0C9.77696 0 1.10606 8.1689 0.284607 18.574L11.1004 23.0463C12.0131 22.4074 13.1084 22.0423 14.295 22.0423C14.3862 22.0423 14.5231 22.0423 14.6144 22.0423L19.4519 15.1056C19.4519 15.06 19.4519 15.06 19.4519 15.0144C19.4519 10.8158 22.8746 7.39309 27.0731 7.39309C31.2717 7.39309 34.6944 10.8158 34.6944 15.0144C34.6944 19.2129 31.2717 22.6356 27.0731 22.6356C27.0275 22.6356 26.9362 22.6356 26.8906 22.6356L20.0451 27.5187C20.0451 27.61 20.0451 27.7013 20.0451 27.7925C20.0451 30.9414 17.4895 33.4971 14.3406 33.4971C11.5568 33.4971 9.27497 31.5347 8.72733 28.8878L0.969152 25.6933C3.34224 34.1816 11.1461 40.3882 20.4102 40.3882C31.5455 40.3882 40.5815 31.3522 40.5815 20.2169C40.5815 9.03599 31.5455 0 20.4102 0Z" fill="white"/>
<path d="M12.9258 30.6216L10.4615 29.6176C10.9179 30.5304 11.648 31.3062 12.652 31.7169C14.8426 32.6296 17.3526 31.58 18.2653 29.3894C18.7217 28.3398 18.7217 27.1533 18.2653 26.1036C17.8089 25.054 16.9875 24.2325 15.9378 23.7762C14.8882 23.3198 13.7473 23.3654 12.7889 23.7305L15.3446 24.7802C16.9418 25.4647 17.7177 27.2902 17.0331 28.8874C16.3942 30.5304 14.5231 31.3062 12.9258 30.6216Z" fill="white"/>
<path d="M32.1388 14.969C32.1388 12.1851 29.857 9.90332 27.0731 9.90332C24.2893 9.90332 22.0075 12.1851 22.0075 14.969C22.0075 17.7528 24.2893 20.0346 27.0731 20.0346C29.857 20.0346 32.1388 17.7984 32.1388 14.969ZM23.2397 14.969C23.2397 12.8697 24.9282 11.1811 27.0731 11.1811C29.218 11.1811 30.9066 12.8697 30.9066 14.969C30.9066 17.0682 29.218 18.7568 27.0731 18.7568C24.9282 18.7568 23.2397 17.0682 23.2397 14.969Z" fill="white"/>
<path d="M62.1675 13.8277L60.7984 16.2008C59.7488 15.4706 58.334 15.0143 57.1019 15.0143C55.6871 15.0143 54.82 15.6076 54.82 16.6572C54.82 17.935 56.3717 18.2088 58.6535 19.0303C61.1179 19.8974 62.5326 20.947 62.5326 23.1832C62.5326 26.2865 60.1139 28.0206 56.5999 28.0206C54.9113 28.0206 52.812 27.5643 51.2604 26.6059L52.2644 23.959C53.5422 24.6436 55.0939 25.0543 56.4629 25.0543C58.334 25.0543 59.2011 24.3697 59.2011 23.3657C59.2011 22.2248 57.8777 21.8597 55.6871 21.1296C53.2228 20.3081 51.5342 19.2128 51.5342 16.7028C51.5342 13.8734 53.816 12.2305 57.0562 12.2305C59.2924 12.3217 61.1179 13.0519 62.1675 13.8277Z" fill="white"/>
<path d="M72.7095 15.3339V27.7926H69.5606V15.3339H64.9057V12.5957H77.3188V15.3339H72.7095Z" fill="white"/>
<path d="M84.0273 15.2882V18.7566H90.1425V21.4492H84.0273V25.0544H91.1009V27.7926H80.8784V12.5957H91.1009V15.2882H84.0273Z" fill="white"/>
<path d="M98.2202 24.8262L97.2162 27.7926H93.8847L99.5893 12.5957H102.784L108.625 27.7926H105.157L104.107 24.8262H98.2202ZM101.187 16.201L99.0873 22.2706H103.286L101.187 16.201Z" fill="white"/>
<path d="M125.009 18.4828L120.856 27.3362H119.03L114.969 18.5284V27.7926H111.911V12.5957H114.923L120.034 23.5484L124.963 12.5957H128.066V27.7926H125.009V18.4828Z" fill="white"/>
<path d="M134.227 14.5122C134.227 15.8357 133.269 16.6115 132.128 16.6115C130.987 16.6115 130.029 15.79 130.029 14.5122C130.029 13.1888 131.033 12.4129 132.128 12.4129C133.223 12.3673 134.227 13.1888 134.227 14.5122ZM130.348 14.5122C130.348 15.6075 131.124 16.292 132.082 16.292C133.041 16.292 133.817 15.6075 133.817 14.5122C133.817 13.4169 133.041 12.7324 132.082 12.7324C131.124 12.7324 130.348 13.4169 130.348 14.5122ZM132.128 13.4169C132.676 13.4169 132.858 13.6908 132.858 14.0102C132.858 14.284 132.676 14.4666 132.493 14.6035L132.995 15.5162H132.584L132.174 14.6948H131.717V15.5162H131.398V13.4169H132.128ZM131.763 14.3753H132.128C132.356 14.3753 132.493 14.2384 132.493 14.0558C132.493 13.8733 132.402 13.7364 132.128 13.7364H131.763V14.3753Z" fill="white"/>
</svg>
