<svg width="157" height="35" viewBox="0 0 157 35" fill="none" xmlns="http://www.w3.org/2000/svg">
<path d="M59.0794 11.38H57.3894V13.81H59.0794C59.2461 13.81 59.3294 13.7267 59.3294 13.56V11.63C59.3294 11.4633 59.2461 11.38 59.0794 11.38ZM59.1394 15.19H57.3894V17.62H59.1394C59.3061 17.62 59.3894 17.5367 59.3894 17.37V15.44C59.3894 15.2733 59.3061 15.19 59.1394 15.19ZM55.8894 10H59.8294C60.1094 10 60.3461 10.0967 60.5394 10.29C60.7327 10.4833 60.8294 10.72 60.8294 11V13.75C60.8294 13.9433 60.7594 14.11 60.6194 14.25C60.4861 14.39 60.3094 14.4733 60.0894 14.5C60.3094 14.5267 60.4961 14.6133 60.6494 14.76C60.8094 14.9 60.8894 15.0633 60.8894 15.25V18C60.8894 18.28 60.7927 18.5167 60.5994 18.71C60.4061 18.9033 60.1694 19 59.8894 19H55.8894V10ZM61.8914 12.25H63.3914V16.44L65.0714 12.25H66.8914V19H65.3914V14.82L63.7114 19H61.8914V12.25ZM70.8933 13.63H69.6433C69.4766 13.63 69.3933 13.7133 69.3933 13.88V17.37C69.3933 17.5367 69.4766 17.62 69.6433 17.62H70.8933C71.06 17.62 71.1433 17.5367 71.1433 17.37V13.88C71.1433 13.7133 71.06 13.63 70.8933 13.63ZM67.8933 12.25H69.1933L69.3333 12.7H69.3433C69.3833 12.5733 69.4666 12.4667 69.5933 12.38C69.7266 12.2933 69.8666 12.25 70.0133 12.25H71.6433C71.9233 12.25 72.16 12.3467 72.3533 12.54C72.5466 12.7333 72.6433 12.97 72.6433 13.25V18C72.6433 18.28 72.5466 18.5167 72.3533 18.71C72.16 18.9033 71.9233 19 71.6433 19H70.0733C69.92 19 69.7733 18.9533 69.6333 18.86C69.5 18.7667 69.42 18.6467 69.3933 18.5V21.25H67.8933V12.25ZM73.6492 12.25H77.8892V13.63H76.5192V19H75.0192V13.63H73.6492V12.25ZM78.8992 12.25H80.3992V17.37C80.3992 17.5367 80.4825 17.62 80.6492 17.62H81.8992C82.0658 17.62 82.1492 17.5367 82.1492 17.37V12.25H83.6492V20.25C83.6492 20.53 83.5525 20.7667 83.3592 20.96C83.1658 21.1533 82.9292 21.25 82.6492 21.25H78.8992V19.88H81.8992C82.0658 19.88 82.1492 19.7967 82.1492 19.63V18.5C82.1225 18.6467 82.0392 18.7667 81.8992 18.86C81.7658 18.9533 81.6225 19 81.4692 19H79.8992C79.6192 19 79.3825 18.9033 79.1892 18.71C78.9958 18.5167 78.8992 18.28 78.8992 18V12.25ZM87.905 16.32H86.405C86.2384 16.32 86.155 16.4033 86.155 16.57V17.37C86.155 17.5367 86.2384 17.62 86.405 17.62H87.655C87.8217 17.62 87.905 17.5367 87.905 17.37V16.32ZM84.905 12.25H88.405C88.685 12.25 88.9217 12.3467 89.115 12.54C89.3084 12.7333 89.405 12.97 89.405 13.25V19H88.105L87.965 18.55H87.955C87.915 18.6767 87.8284 18.7833 87.695 18.87C87.5684 18.9567 87.4317 19 87.285 19H85.655C85.375 19 85.1384 18.9033 84.945 18.71C84.7517 18.5167 84.655 18.28 84.655 18V15.93C84.655 15.65 84.7517 15.4133 84.945 15.22C85.1384 15.0267 85.375 14.93 85.655 14.93H87.905V13.88C87.905 13.7133 87.8217 13.63 87.655 13.63H84.905V12.25ZM91.8009 12.25H95.1609V19H93.6609V13.63H93.0009L91.7009 19H90.1609L91.8009 12.25ZM99.1667 15.63H97.6667V17.62H99.1667C99.3334 17.62 99.4167 17.5367 99.4167 17.37V15.88C99.4167 15.7133 99.3334 15.63 99.1667 15.63ZM96.1667 12.25H97.6667V14.25H99.9167C100.197 14.25 100.433 14.3467 100.627 14.54C100.82 14.7333 100.917 14.97 100.917 15.25V18C100.917 18.28 100.82 18.5167 100.627 18.71C100.433 18.9033 100.197 19 99.9167 19H96.1667V12.25ZM101.923 12.25H103.423V14.93H105.423V12.25H106.923V19H105.423V16.32H103.423V19H101.923V12.25ZM110.925 15.63H109.425V17.62H110.925C111.091 17.62 111.175 17.5367 111.175 17.37V15.88C111.175 15.7133 111.091 15.63 110.925 15.63ZM107.925 12.25H109.425V14.25H111.675C111.955 14.25 112.191 14.3467 112.385 14.54C112.578 14.7333 112.675 14.97 112.675 15.25V18C112.675 18.28 112.578 18.5167 112.385 18.71C112.191 18.9033 111.955 19 111.675 19H107.925V12.25ZM114.175 12.25H115.675V19H114.175V12.25ZM118.18 10H118.96C118.96 10.1733 119.03 10.32 119.17 10.44C119.31 10.56 119.48 10.62 119.68 10.62C119.88 10.62 120.05 10.56 120.19 10.44C120.33 10.32 120.4 10.1733 120.4 10H121.18C121.18 10.4133 121.034 10.7667 120.74 11.06C120.447 11.3533 120.094 11.5 119.68 11.5C119.267 11.5 118.914 11.3533 118.62 11.06C118.327 10.7667 118.18 10.4133 118.18 10ZM117.18 12.25H118.68V16.44L120.36 12.25H122.18V19H120.68V14.82L119 19H117.18V12.25ZM126.682 12.25H131.682V19H130.182V13.63H128.182V19H126.682V12.25ZM132.684 12.25H134.184V14.93H134.614L135.894 12.25H137.554L135.954 15.62V15.63L137.554 19H135.894L134.614 16.32H134.184V19H132.684V12.25Z" fill="white"/>
<path d="M42.81 8.74186e-07H2.55787C1.87948 8.74186e-07 1.22887 0.26949 0.749182 0.749183C0.269489 1.22888 0 1.87948 0 2.55787L0 26.4008C0 27.0792 0.269489 27.7298 0.749182 28.2095C1.22887 28.6892 1.87948 28.9587 2.55787 28.9587H21.4069V31.8316H15.1831C14.8628 31.8316 14.5555 31.9589 14.329 32.1854C14.1025 32.4119 13.9752 32.7192 13.9752 33.0395C13.9752 33.3599 14.1025 33.6671 14.329 33.8936C14.5555 34.1202 14.8628 34.2474 15.1831 34.2474H30.1547C30.4751 34.2474 30.7823 34.1202 31.0088 33.8936C31.2354 33.6671 31.3626 33.3599 31.3626 33.0395C31.3626 32.7192 31.2354 32.4119 31.0088 32.1854C30.7823 31.9589 30.4751 31.8316 30.1547 31.8316H23.8227V28.9587H42.8121C43.4905 28.9587 44.1411 28.6892 44.6208 28.2095C45.1005 27.7298 45.37 27.0792 45.37 26.4008V2.55787C45.37 2.22179 45.3037 1.889 45.1751 1.57853C45.0464 1.26805 44.8578 0.985982 44.6201 0.748435C44.3823 0.510887 44.1001 0.32252 43.7895 0.1941C43.4789 0.0656792 43.1461 -0.000276971 42.81 8.74186e-07ZM42.8193 24.5611C42.8193 25.0883 42.6099 25.5939 42.2371 25.9667C41.8643 26.3394 41.3587 26.5489 40.8315 26.5489H4.53759C4.0104 26.5489 3.50481 26.3394 3.13203 25.9667C2.75925 25.5939 2.54983 25.0883 2.54983 24.5611V4.39845C2.54983 3.87126 2.75925 3.36567 3.13203 2.99289C3.50481 2.62011 4.0104 2.41069 4.53759 2.41069H40.8303C41.3575 2.41069 41.8631 2.62011 42.2358 2.99289C42.6086 3.36567 42.818 3.87126 42.818 4.39845L42.8193 24.5611Z" fill="white"/>
</svg>
