<svg width="35" height="41" viewBox="0 0 35 41" fill="none" xmlns="http://www.w3.org/2000/svg">
<path fill-rule="evenodd" clip-rule="evenodd" d="M3.2935 0H31.6243C33.9206 0 34.7681 0.847459 34.7681 3.14485V30.8664C34.7681 31.1263 34.7576 31.3679 34.7346 31.5916C34.7302 31.6334 34.7262 31.6751 34.7221 31.7167C34.6775 32.1746 34.6336 32.6251 34.2061 33.1322C34.1606 33.1865 33.6844 33.5408 33.6844 33.5408C33.6381 33.5635 33.5945 33.5851 33.5525 33.6059C33.3614 33.7006 33.2013 33.7799 32.9645 33.8752L19.0141 39.7199C18.2898 40.0519 17.9869 40.1813 17.4609 40.1709V40.171H17.4588H17.4568V40.1709C16.9308 40.1813 16.628 40.0519 15.9038 39.7199L1.95327 33.8752C1.71626 33.7798 1.55598 33.7003 1.3646 33.6055C1.32273 33.5848 1.27937 33.5633 1.2334 33.5408C1.2334 33.5408 0.757246 33.1865 0.711676 33.1322C0.284168 32.6251 0.240264 32.1746 0.195649 31.7167C0.19159 31.6751 0.187531 31.6334 0.18317 31.5916C0.160206 31.3679 0.149719 31.1263 0.149719 30.8664V3.14485C0.149719 0.847459 0.997178 0 3.2935 0ZM27.3616 14.4255V17.9021C27.3616 18.5182 27.0768 18.8041 26.4858 18.8041H26.0476C25.4347 18.8041 25.1499 18.5182 25.1499 17.9021V8.17637C25.1499 7.56028 25.4347 7.27442 26.0476 7.27442H26.4419C27.0332 7.27442 27.3179 7.56028 27.3179 8.17637V11.1911H29.6169V8.04435C29.6169 6.13026 28.6972 5.20605 26.7925 5.20605H25.6535C23.7488 5.20605 22.8069 6.15208 22.8069 8.06653V18.012C22.8069 19.9265 23.7488 20.8725 25.6535 20.8725H26.8142C28.7195 20.8725 29.6608 19.9265 29.6608 18.012V14.4255H27.3616ZM7.59987 13.964H10.3588V11.8299H7.59987V7.47299H10.4687V5.33887H5.25696V20.7412H10.5123V18.607H7.59987V13.964ZM21.5686 20.7412H19.2253V5.33887H21.5686V20.7412ZM15.8255 12.1814C15.8255 12.7975 15.5412 13.0838 14.9499 13.0838H13.9862V7.40674H14.9499C15.5412 7.40674 15.8255 7.69268 15.8255 8.30869V12.1814ZM15.322 5.33887H11.6434V20.7412H13.9863V15.1522H15.322C17.2271 15.1522 18.1686 14.2062 18.1686 12.2921V8.19935C18.1686 6.2849 17.2271 5.33887 15.322 5.33887ZM29.7203 27.934L29.7268 27.87L29.7332 27.7997V27.7293V27.7165V27.6462L29.7268 27.5759L29.7203 27.5119L29.7076 27.448L29.6948 27.384L29.682 27.3265L29.6632 27.2689L29.644 27.2114L29.6185 27.1603L29.5864 27.1026L29.5549 27.0515L29.5165 26.994L29.4785 26.9428L29.4338 26.8981L29.3894 26.8468L29.3383 26.8022L29.2875 26.7574L29.2366 26.7254L29.1855 26.687L29.1348 26.6551L29.0776 26.6231L29.02 26.5911L28.9564 26.5591L28.8929 26.5336L28.8293 26.5016L28.759 26.4764L28.7018 26.4573L28.6447 26.438L28.5806 26.4189L28.5236 26.3997L28.46 26.3805L28.3964 26.3613L28.3324 26.3486L28.2625 26.3294L28.1989 26.3101L28.129 26.2974L28.059 26.2782L27.989 26.259L27.9187 26.2398L27.8551 26.227L27.798 26.2078L27.7404 26.1951L27.6897 26.1759L27.6389 26.1631L27.5625 26.1376L27.4922 26.112L27.4286 26.0864L27.3778 26.0544L27.3203 26.0224L27.2759 25.9776L27.2503 25.9393L27.2188 25.8689L27.2123 25.7859V25.773L27.2188 25.7092L27.2439 25.6516L27.2823 25.594L27.3394 25.5428L27.3842 25.5173L27.435 25.4916L27.4922 25.4789L27.5561 25.466L27.6261 25.4533H27.7024H27.766L27.8232 25.4597L27.8871 25.466L27.9507 25.4725L28.0142 25.4853L28.0778 25.4981L28.1418 25.5109L28.2053 25.5301L28.2688 25.5493L28.3389 25.5684L28.39 25.594L28.4472 25.6132L28.498 25.6387L28.5555 25.6643L28.6063 25.6899L28.6634 25.7154L28.7146 25.7475L28.7718 25.773L28.8229 25.8114L28.8737 25.8433L28.9309 25.8754L28.982 25.9137L29.02 25.8626L29.052 25.8114L29.0899 25.7603L29.1284 25.7092L29.1663 25.6516L29.1984 25.6004L29.2366 25.5493L29.2747 25.4981L29.3066 25.447L29.3447 25.3958L29.383 25.3446L29.415 25.2935L29.453 25.236L29.4914 25.1848L29.5294 25.1336L29.5613 25.0825L29.5992 25.0313L29.5485 24.9929L29.4977 24.9546L29.4466 24.9162L29.3958 24.8843L29.3383 24.8459L29.2875 24.8139L29.2303 24.782L29.1728 24.75L29.122 24.7244L29.0647 24.6924L29.0009 24.6668L28.9436 24.6412L28.8865 24.6157L28.8293 24.5965L28.7654 24.571L28.7082 24.5581L28.651 24.5389L28.5871 24.5198L28.5299 24.5069L28.4663 24.4941L28.4028 24.4813L28.3452 24.4686L28.2816 24.4558L28.2117 24.4494L28.1481 24.4366L28.0778 24.4302H28.0142L27.9443 24.4238L27.8743 24.4175H27.8044H27.7344H27.6641H27.6005L27.5369 24.4238L27.4734 24.4302L27.4094 24.4366L27.3459 24.443L27.2886 24.4558L27.2251 24.4686L27.1676 24.4813L27.1104 24.4941L27.0596 24.5069L27.002 24.5262L26.9385 24.5517L26.875 24.571L26.8174 24.5965L26.7602 24.6285L26.7031 24.6541L26.6455 24.686L26.5948 24.7179L26.5439 24.7563L26.4927 24.7947L26.4484 24.8266L26.3972 24.8714L26.3528 24.9226L26.3081 24.9674L26.2638 25.0185L26.2253 25.0697L26.1873 25.1208L26.1554 25.1783L26.1237 25.236L26.0982 25.2935L26.0726 25.351L26.0474 25.4085L26.0347 25.466L26.0155 25.5237L26.0026 25.5813L25.9898 25.6387L25.9835 25.7027L25.9771 25.7603L25.9707 25.8242V25.8882V25.9009V25.9713L25.9771 26.0416L25.9835 26.1055L25.9898 26.1695L26.0026 26.227L26.0155 26.291L26.0347 26.3421L26.0534 26.3997L26.0726 26.4509L26.0982 26.4953L26.1302 26.5528L26.1617 26.604L26.1938 26.6487L26.2317 26.6934L26.2701 26.7382L26.3146 26.783L26.3593 26.8277L26.4036 26.8661L26.4547 26.8981L26.5055 26.9365L26.5627 26.9684L26.6139 27.0003L26.6775 27.0323L26.7346 27.0643L26.7985 27.0899L26.8621 27.1154L26.9257 27.141L26.9956 27.1666L27.0532 27.1858L27.1104 27.205L27.1676 27.2242L27.2311 27.237L27.2886 27.2561L27.3523 27.2753L27.4158 27.2881L27.4797 27.3073L27.5433 27.3201L27.6133 27.3393L27.6769 27.3521L27.7468 27.3713L27.8108 27.384L27.8743 27.4032L27.9315 27.4159L27.989 27.4352L28.0398 27.448L28.0842 27.4608L28.1605 27.4927L28.2245 27.5183L28.2816 27.5439L28.3324 27.5694L28.3836 27.6078L28.428 27.6462L28.46 27.691L28.4856 27.7549L28.4919 27.8316V27.8444L28.4856 27.9084L28.4663 27.9659L28.4407 28.0171L28.4028 28.0619L28.3517 28.1002L28.3072 28.1258L28.2561 28.145L28.1989 28.1577L28.1418 28.1706L28.0778 28.1833L28.0078 28.1897H27.9315H27.8679L27.798 28.1833H27.7344L27.6704 28.1706L27.6005 28.1641L27.5369 28.1513L27.4734 28.1386L27.4094 28.1258L27.3523 28.1066L27.2886 28.0874L27.2251 28.0682L27.1676 28.0427L27.1104 28.0235L27.0532 27.9978L26.9956 27.9723L26.9385 27.9467L26.8878 27.9147L26.8301 27.8892L26.7795 27.8572L26.7222 27.8188L26.6711 27.7869L26.6139 27.7485L26.5627 27.7102L26.5055 27.6718L26.4547 27.6335L26.4164 27.6846L26.3721 27.7293L26.3336 27.7805L26.2893 27.8316L26.251 27.8763L26.2129 27.9275L26.1682 27.9787L26.1302 28.0235L26.0854 28.0746L26.0474 28.1194L26.0026 28.1706L25.9647 28.2217L25.9263 28.2664L25.8819 28.3175L25.8435 28.3688L25.7992 28.4135L25.7608 28.4647L25.8116 28.5094L25.8563 28.5478L25.9072 28.5862L25.9583 28.6245L26.0091 28.6629L26.0598 28.7013L26.1109 28.7332L26.1617 28.7652L26.2193 28.7972L26.2701 28.8291L26.3273 28.8611L26.3848 28.8867L26.442 28.9183L26.4992 28.9439L26.5567 28.9694L26.6203 28.995L26.6775 29.0142L26.741 29.0333L26.7985 29.059L26.8621 29.0781L26.9257 29.0973L26.9829 29.1102L27.0468 29.1293L27.1104 29.1421L27.1739 29.1549L27.2375 29.1677L27.3015 29.1804L27.365 29.1868L27.4286 29.1996L27.4986 29.206L27.5625 29.2124L27.6261 29.2189H27.696L27.7596 29.2253H27.8232H27.8935H27.9634H28.027L28.0906 29.2189L28.1605 29.2124L28.2245 29.206L28.2816 29.1996L28.3452 29.1933L28.4093 29.1804L28.4663 29.1677L28.5236 29.1549L28.5871 29.1421L28.6447 29.1229L28.7082 29.1036L28.7718 29.0846L28.8353 29.059L28.8993 29.0333L28.9564 29.0014L29.0136 28.9758L29.0712 28.9439L29.122 28.9055L29.1728 28.8739L29.2239 28.8356L29.2683 28.7972L29.3194 28.7524L29.3574 28.7141L29.4022 28.6692L29.4402 28.6245L29.4721 28.5734L29.5102 28.5222L29.5421 28.471L29.5741 28.4199L29.5992 28.3624L29.6249 28.3112L29.6504 28.2537L29.6696 28.1897L29.682 28.1321L29.7012 28.0682L29.714 28.0042L29.7203 27.934ZM25.1985 29.149H25.2624H25.326V29.0851V29.0274V28.9635V28.8996V28.8361V28.7784V28.7146V28.6506V28.593V28.5291V28.4652V28.4077V28.3436V28.2797V28.2158V28.1582V28.0942H25.2624H25.1985H25.1349H25.0713H25.0078H24.9439H24.8803H24.8167H24.7531H24.6828H24.6192H24.5557H24.4922H24.4281H24.3646H24.301H24.2374H24.1735H24.1099H24.0464H23.9829H23.9192H23.8553H23.7918H23.7282H23.6646H23.6006H23.537H23.4735H23.4035H23.3396H23.276H23.2125H23.149H23.085H23.0214H22.9579H22.8942H22.8304V28.0303V27.96V27.8961V27.8321V27.7618V27.6979V27.6339V27.5636V27.4996V27.4357V27.3653V27.3014H22.8942H22.9579H23.0214H23.085H23.149H23.2125H23.276H23.3396H23.3972H23.4608H23.5243H23.5878H23.6519H23.7154H23.779H23.8425H23.9064H23.97H24.0337H24.0972H24.1611H24.2246H24.2882H24.3518H24.4158H24.4793H24.5366H24.6001H24.664H24.7276H24.7911H24.8547H24.9186H24.9822H25.0458V27.2375V27.1798V27.1159V27.052V26.9945V26.9305V26.8666V26.8026V26.7451V26.6811V26.6172V26.5596V26.4958V26.4321V26.3746V26.3106H24.9822H24.9186H24.8547H24.7911H24.7276H24.664H24.6001H24.5366H24.4793H24.4158H24.3518H24.2882H24.2246H24.1611H24.0972H24.0337H23.97H23.9064H23.8425H23.779H23.7154H23.6519H23.5878H23.5243H23.4608H23.3972H23.3396H23.276H23.2125H23.149H23.085H23.0214H22.9579H22.8942H22.8304V26.2467V26.1828V26.1188V26.0549V25.9909V25.927V25.8694V25.8055V25.7415V25.6776V25.6137V25.5498H22.8942H22.9579H23.0214H23.085H23.149H23.2125H23.2696H23.3332H23.3972H23.4608H23.5243H23.5878H23.6519H23.7154H23.779H23.8425H23.9064H23.97H24.0337H24.0907H24.1548H24.2183H24.2818H24.3454H24.4093H24.4729H24.5366H24.6001H24.664H24.7276H24.7911H24.8547H24.9122H24.9758H25.0394H25.103H25.1669H25.2305H25.294V25.4858V25.4283V25.3643V25.3004V25.2365V25.1788V25.1149V25.0509V24.9934V24.9295V24.8655V24.808V24.744V24.6801V24.6161V24.5586V24.4946H25.2305H25.1669H25.103H25.0394H24.9758H24.9122H24.8483H24.7847H24.7212H24.6576H24.5937H24.5301H24.4666H24.403H24.3454H24.2818H24.2183H24.1548H24.0907H24.0272H23.9637H23.9001H23.8361H23.7725H23.7089H23.6455H23.5819H23.5179H23.4543H23.3908H23.3272H23.2633H23.1997H23.1361H23.0726H23.0086H22.945H22.8815H22.8179H22.754H22.6904H22.6268H22.5632H22.5057H22.4421H22.3787H22.315H22.2511H22.1875H22.1239H22.0604H21.9965H21.9329H21.8692H21.8058H21.7419H21.6783H21.6147V24.5586V24.6226V24.6864V24.7505V24.8144V24.8783V24.9423V25.0062V25.0702V25.1341V25.198V25.262V25.3259V25.3899V25.4538V25.5177V25.5818V25.6456V25.7032V25.7671V25.8311V25.895V25.959V26.0229V26.0868V26.1508V26.2147V26.2787V26.3426V26.4066V26.4705V26.5341V26.598V26.662V26.7259V26.7898V26.8538V26.9177V26.9817V27.0456V27.1095V27.1736V27.2375V27.3014V27.3653V27.4292V27.4932V27.5572V27.6211V27.6851V27.749V27.813V27.8768V27.9408V27.9983V28.0624V28.1263V28.1902V28.2542V28.318V28.3821V28.446V28.5099V28.5739V28.6379V28.7018V28.7657V28.8295V28.8936V28.9572V29.0211V29.0851V29.149H21.6783H21.7419H21.8058H21.8692H21.9329H21.9965H22.0604H22.1239H22.1875H22.2575H22.3211H22.385H22.4486H22.5122H22.5756H22.6396H22.7032H22.7667H22.8304H22.8942H22.9579H23.0214H23.085H23.149H23.2125H23.276H23.3396H23.4035H23.4735H23.537H23.6006H23.6646H23.7282H23.7918H23.8553H23.9192H23.9829H24.0464H24.1099H24.1735H24.2374H24.301H24.3646H24.4281H24.4922H24.5557H24.6192H24.6828H24.7531H24.8167H24.8803H24.9439H25.0078H25.0713H25.1349H25.1985ZM20.5477 29.149H20.6112H20.6747V29.0851V29.0211V28.9572V28.8936V28.8295V28.7657V28.7018V28.6379V28.5739V28.5099V28.446V28.3821V28.318V28.2542V28.1902V28.1263V28.0624V27.9983V27.9408V27.8768V27.813V27.749V27.6851V27.6211V27.5572V27.4932V27.4292V27.3653V27.3014V27.2375V27.1736V27.1095V27.0456V26.9817V26.9177V26.8538V26.7898V26.7259V26.662V26.598V26.5341V26.4705V26.4066V26.3426V26.2787V26.2147V26.1508V26.0868V26.0229V25.959V25.895V25.8311V25.7671V25.7032V25.6456V25.5818V25.5177V25.4538V25.3899V25.3259V25.262V25.198V25.1341V25.0702V25.0062V24.9423V24.8783V24.8144V24.7505V24.6864V24.6226V24.5586V24.4946H20.6112H20.5477H20.4901H20.4265H20.363H20.2994H20.2419H20.1783H20.1147H20.0511H19.9936H19.9299H19.8665H19.8029H19.7453H19.6818H19.6182H19.5546H19.4971H19.4335H19.37L19.338 24.5458L19.3064 24.6033L19.268 24.6541L19.236 24.7116L19.2044 24.7628L19.1725 24.8204L19.1345 24.8712L19.1025 24.9287L19.0706 24.9799L19.0389 25.0311L19.0006 25.0882L18.9689 25.1394L18.937 25.1969L18.9051 25.2481L18.8671 25.3053L18.835 25.3564L18.8035 25.4075L18.7715 25.4648L18.7395 25.5158L18.7015 25.5734L18.6697 25.6246L18.6376 25.6817L18.606 25.7329L18.5676 25.7904L18.5361 25.8412L18.5041 25.8923L18.4721 25.9499L18.4341 26.0011L18.4022 26.0586L18.3705 26.1094L18.3386 26.167L18.3006 26.2182L18.2686 26.2753L18.2367 26.3265L18.2051 26.2753L18.1731 26.2182L18.1347 26.167L18.1031 26.1094L18.0712 26.0586L18.0395 26.0011L18.0076 25.9499L17.9692 25.8923L17.9376 25.8412L17.9056 25.7904L17.8741 25.7329L17.8421 25.6817L17.8038 25.6246L17.7721 25.5734L17.7401 25.5158L17.7086 25.4648L17.6766 25.4075L17.6382 25.3564L17.6066 25.3053L17.5746 25.2481L17.5427 25.1969L17.5047 25.1394L17.4727 25.0882L17.4412 25.0311L17.4091 24.9799L17.3772 24.9287L17.3391 24.8712L17.3072 24.8204L17.2756 24.7628L17.2436 24.7116L17.2116 24.6541L17.1737 24.6033L17.1417 24.5458L17.1102 24.4946H17.0461H16.9826H16.9255H16.8619H16.7979H16.7343H16.6772H16.6136H16.5497H16.4862H16.4289H16.3654H16.3014H16.2379H16.1807H16.1168H16.0532H15.9896H15.9324H15.8684H15.8049V24.5586V24.6226V24.6864V24.7505V24.8144V24.8783V24.9423V25.0062V25.0702V25.1341V25.198V25.262V25.3259V25.3899V25.4538V25.5177V25.5818V25.6456V25.7032V25.7671V25.8311V25.895V25.959V26.0229V26.0868V26.1508V26.2147V26.2787V26.3426V26.4066V26.4705V26.5341V26.598V26.662V26.7259V26.7898V26.8538V26.9177V26.9817V27.0456V27.1095V27.1736V27.2375V27.3014V27.3653V27.4292V27.4932V27.5572V27.6211V27.6851V27.749V27.813V27.8768V27.9408V27.9983V28.0624V28.1263V28.1902V28.2542V28.318V28.3821V28.446V28.5099V28.5739V28.6379V28.7018V28.7657V28.8295V28.8936V28.9572V29.0211V29.0851V29.149H15.8684H15.9324H15.996H16.0596H16.1232H16.1871H16.2507H16.3143H16.3778H16.4417H16.5053H16.5689H16.6325H16.6964H16.7599H16.8235H16.8871H16.951H17.0146V29.0851V29.0211V28.9572V28.8932V28.8289V28.7649V28.701V28.637V28.5731V28.5092V28.4516V28.3873V28.3233V28.2594V28.1954V28.1316V28.0672V28.0033V27.9393V27.8754V27.8115V27.7474V27.6832V27.6192V27.5553V27.4913V27.4274V27.3635V27.2991V27.2352V27.1712V27.1074V27.0498V26.9858V26.9216V26.8575V26.7936V26.7297V26.6657V26.6015V26.5374V26.4735V26.4096L17.0525 26.4607L17.0846 26.5187L17.1225 26.5697L17.1545 26.6273L17.1928 26.6785L17.2245 26.736L17.2628 26.7876L17.2944 26.8452L17.3328 26.8963L17.3647 26.9539L17.4027 27.005L17.4347 27.063L17.4727 27.1141L17.5047 27.1716L17.5427 27.2228L17.5746 27.2807L17.6131 27.3318L17.651 27.3894L17.683 27.4405L17.7209 27.4984L17.753 27.5496L17.7913 27.6072L17.8229 27.6583L17.8613 27.7163L17.8928 27.7674L17.9312 27.8249L17.9632 27.8761L18.0012 27.9337L18.0331 27.9853L18.0712 28.0428L18.1031 28.0939L18.1411 28.1514L18.1731 28.203L18.2114 28.2605H18.2367L18.2686 28.2094L18.3067 28.1514L18.3386 28.1003L18.377 28.0491L18.4085 27.9916L18.4469 27.9404L18.4785 27.8889L18.5105 27.8314L18.5489 27.7802L18.5804 27.7291L18.6189 27.6775L18.6504 27.62L18.6887 27.5688L18.7208 27.5176L18.7523 27.4598L18.7908 27.4086L18.8222 27.3574L18.8606 27.2999L18.8922 27.2487L18.9306 27.1972L18.9627 27.1397L18.9942 27.0885L19.0326 27.0374L19.0642 26.9795L19.1025 26.9283L19.1345 26.8771L19.1725 26.826L19.2044 26.7681L19.236 26.7169L19.2744 26.6657L19.3064 26.6082L19.3444 26.557L19.3763 26.5059L19.4144 26.4479L19.4462 26.3967V26.4607V26.5247V26.5886V26.6529V26.7169V26.7808V26.8448V26.9087V26.973V27.037V27.1009V27.1649V27.2287V27.2927V27.357V27.421V27.4849V27.5489V27.6129V27.6768V27.7412V27.805V27.869V27.9329V27.9968V28.0608V28.1251V28.1891V28.253V28.3169V28.381V28.4452V28.5092V28.5731V28.637V28.701V28.7649V28.8289V28.8932V28.9572V29.0211V29.0851V29.149H19.5099H19.5734H19.6374H19.7073H19.7709H19.8345H19.8984H19.962H20.0255H20.0955H20.1591H20.223H20.2866H20.3502H20.4138H20.484H20.5477ZM13.2058 27.1728L13.225 27.2307L13.2506 27.2883H13.187H13.1231H13.0595H12.9959H12.9324H12.8688H12.8048H12.7413H12.6842H12.6202H12.5565H12.493H12.4295H12.3655H12.3019H12.2384H12.1748L12.2 27.2307L12.2192 27.1728L12.2448 27.1089L12.2704 27.0513L12.2891 26.9934L12.3147 26.9358L12.3403 26.8719L12.3655 26.814L12.3847 26.7564L12.4103 26.6989L12.4358 26.641L12.4547 26.577L12.4803 26.5195L12.5058 26.4615L12.5251 26.404L12.5502 26.3465L12.5759 26.2822L12.6014 26.2245L12.6202 26.167L12.6458 26.1091L12.6714 26.0452L12.6905 25.9873L12.7157 25.9297L12.7413 25.9873L12.7605 26.0452L12.7857 26.1091L12.8113 26.167L12.8304 26.2245L12.856 26.2822L12.8812 26.3465L12.9003 26.404L12.9259 26.4615L12.9515 26.5195L12.9703 26.577L12.9959 26.641L13.0151 26.6989L13.0403 26.7564L13.0659 26.814L13.0851 26.8719L13.1106 26.9358L13.1358 26.9934L13.155 27.0513L13.1806 27.1089L13.2058 27.1728ZM15.1602 29.1497H15.2241H15.2876L15.2621 29.0921L15.2365 29.0346L15.2114 28.977L15.1921 28.9131L15.1665 28.8559L15.141 28.7984L15.1157 28.7409L15.0902 28.6833L15.0647 28.6257L15.0395 28.5618L15.0139 28.5042L14.9946 28.4467L14.9694 28.3891L14.9439 28.3316L14.9183 28.2741L14.8927 28.2101L14.8676 28.1525L14.842 28.095L14.8163 28.0375L14.7976 27.9799L14.772 27.9223L14.7464 27.8584L14.7208 27.8009L14.6956 27.7433L14.67 27.6858L14.6444 27.6282L14.6192 27.5706L14.6001 27.5067L14.5745 27.4492L14.5493 27.3916L14.5237 27.334L14.4981 27.2766L14.4725 27.219L14.4473 27.155L14.4218 27.0975L14.4026 27.04L14.3775 26.9824L14.3519 26.9249L14.3262 26.8673L14.3007 26.8034L14.2754 26.7458L14.2498 26.6882L14.2243 26.6307L14.2055 26.5732L14.18 26.5156L14.1543 26.4585L14.1292 26.3945L14.1035 26.337L14.0779 26.2794L14.0524 26.2218L14.0272 26.1643L14.008 26.1067L13.9824 26.0428L13.9573 25.9853L13.9316 25.9277L13.9061 25.8701L13.8805 25.8126L13.8552 25.7551L13.8297 25.6911L13.8105 25.6336L13.7854 25.576L13.7597 25.5185L13.7342 25.4609L13.709 25.4034L13.6834 25.3395L13.6578 25.2819L13.6323 25.2244L13.6135 25.1668L13.5878 25.1093L13.5622 25.0516L13.5371 24.9878L13.5115 24.9302L13.486 24.8726L13.4604 24.8151L13.4352 24.7576L13.416 24.7001L13.3904 24.636L13.3652 24.5785L13.3396 24.521L13.3141 24.4634H13.2505H13.1933H13.1293H13.0658H13.0023H12.945H12.8812H12.8176H12.754H12.6969H12.6329H12.5693H12.5057H12.4486H12.3846H12.321H12.2575H12.1999H12.1364L12.1112 24.521L12.0856 24.5785L12.0601 24.636L12.0408 24.7001L12.0156 24.7576L11.9901 24.8151L11.9645 24.8726L11.9393 24.9302L11.9137 24.9878L11.8881 25.0516L11.8625 25.1093L11.8437 25.1668L11.8181 25.2244L11.7925 25.2819L11.7673 25.3395L11.7417 25.4034L11.7162 25.4609L11.691 25.5185L11.6655 25.576L11.6462 25.6336L11.6207 25.6911L11.5955 25.7551L11.5699 25.8126L11.5444 25.8701L11.5191 25.9277L11.4936 25.9853L11.468 26.0428L11.4488 26.1067L11.4236 26.1643L11.398 26.2218L11.3725 26.2794L11.3472 26.337L11.3217 26.3945L11.2961 26.4585L11.2709 26.5156L11.2517 26.5732L11.2261 26.6307L11.2006 26.6882L11.1754 26.7458L11.1498 26.8034L11.1242 26.8673L11.099 26.9249L11.0734 26.9824L11.0542 27.04L11.0287 27.0975L11.0034 27.155L10.9779 27.219L10.9523 27.2766L10.9271 27.334L10.9015 27.3916L10.8759 27.4492L10.8568 27.5067L10.8316 27.5706L10.806 27.6282L10.7804 27.6858L10.7553 27.7433L10.7296 27.8009L10.704 27.8584L10.6788 27.9223L10.6597 27.9799L10.6341 28.0375L10.6085 28.095L10.5833 28.1525L10.5577 28.2101L10.5321 28.2741L10.5069 28.3316L10.4813 28.3891L10.4623 28.4467L10.4366 28.5042L10.4115 28.5618L10.3858 28.6257L10.3602 28.6833L10.335 28.7409L10.3095 28.7984L10.2839 28.8559L10.2647 28.9131L10.2395 28.977L10.2139 29.0346L10.1883 29.0921L10.1631 29.1497H10.2268H10.2904H10.3539H10.4179H10.4879H10.5514H10.6148H10.6788H10.7425H10.806H10.8696H10.9334H10.997H11.0606H11.1306H11.1941H11.2582H11.3217H11.3852H11.4488L11.4744 29.0921L11.4936 29.0346L11.5191 28.977L11.5444 28.9131L11.5635 28.8559L11.5892 28.7984L11.6143 28.7409L11.6335 28.6833L11.6591 28.6257L11.6846 28.5681L11.7035 28.5107L11.729 28.4467L11.7546 28.3891L11.7738 28.3316L11.799 28.2741H11.8625H11.9265H11.9901H12.0535H12.1112H12.1747H12.2383H12.3019H12.3655H12.4294H12.4929H12.5564H12.6201H12.6841H12.7412H12.8048H12.8687H12.9323H12.9958H13.0594H13.123H13.1869H13.2505H13.3141H13.3716H13.4352H13.4987H13.5622H13.6258L13.6515 28.3316L13.6706 28.3891L13.6962 28.4467L13.7215 28.5107L13.7406 28.5681L13.7662 28.6257L13.7917 28.6833L13.8105 28.7409L13.8362 28.7984L13.8617 28.8559L13.8805 28.9131L13.9061 28.977L13.9316 29.0346L13.9508 29.0921L13.9761 29.1497H14.04H14.1035H14.1607H14.2243H14.2882H14.3519H14.4154H14.4725H14.5365H14.6001H14.6636H14.7272H14.7912H14.8483H14.9119H14.9754H15.0395H15.1029H15.1602ZM9.59603 28.5931L9.64716 28.5548L9.69152 28.5165V28.4525V28.3886V28.3248V28.2671V28.2032V28.1393V28.0753V28.0113V27.9474V27.8899V27.826V27.762V27.6981V27.6341V27.5701V27.5062V27.4487V27.3847V27.3208V27.2568V27.1929V27.1289V27.065V27.0075V26.9435V26.8795V26.8156V26.7516V26.6877V26.6302V26.5662V26.5023V26.4387H9.62791H9.56439H9.50045H9.43693H9.37332H9.3098H9.24578H9.18226H9.11865H9.05505H8.99119H8.92759H8.86407H8.80046H8.73652H8.673H8.60948H8.54579H8.48185H8.41833H8.35473H8.29121H8.22727H8.16366H8.10014H8.03654H7.9726H7.90908H7.84547H7.78195H7.71834H7.6544H7.5908V26.5023V26.5598V26.6238V26.6877V26.7516V26.8093V26.8731V26.9372V27.001V27.0586V27.1225V27.1865V27.2505V27.308V27.3719H7.6544H7.7119H7.77551H7.83911H7.90271H7.96021H8.02373H8.08725H8.15094H8.20844H8.27204H8.33556H8.39917H8.45666H8.52027V27.4359V27.4998V27.5638V27.6277V27.6981V27.762V27.826V27.8899V27.9538L8.46947 27.9858L8.42469 28.0113L8.36762 28.0369L8.31648 28.0625L8.25915 28.0881L8.20208 28.1009L8.13847 28.12L8.07453 28.1328L8.01101 28.1457L7.94741 28.152L7.87744 28.1584L7.80706 28.1648H7.73073H7.66077L7.5908 28.1584L7.52728 28.152L7.46367 28.1393L7.39973 28.1265L7.33621 28.1072L7.27252 28.0881L7.21511 28.0625L7.15795 28.0369L7.10071 28.0113L7.04957 27.9794L6.99886 27.9474L6.94806 27.9091L6.89684 27.8706L6.85257 27.8323L6.81407 27.7876L6.76971 27.7428L6.73138 27.6981L6.69339 27.6469L6.66142 27.5957L6.62945 27.5446L6.59781 27.487L6.57229 27.4294L6.54668 27.3655L6.52785 27.3144L6.50868 27.2568L6.49596 27.1993L6.48307 27.1417L6.47035 27.0842L6.46391 27.0203L6.45755 26.9627L6.4516 26.8987V26.8348V26.822V26.7516L6.45755 26.6877L6.46391 26.6238L6.47671 26.5534L6.48952 26.4959L6.50224 26.4323L6.52149 26.3684L6.54668 26.3108L6.56593 26.2533L6.59145 26.1957L6.62342 26.1446L6.65497 26.087L6.68694 26.0359L6.71858 25.9911L6.75699 25.94L6.80135 25.8952L6.83968 25.8504L6.88403 25.8121L6.92889 25.7737L6.97325 25.7355L7.02447 25.7034L7.07518 25.6713L7.12632 25.6394L7.18348 25.6138L7.24072 25.5882L7.2978 25.5691L7.35538 25.55L7.41254 25.5371L7.47614 25.5244L7.53364 25.5179L7.59724 25.5116H7.66077H7.73073L7.80103 25.5179L7.871 25.5244L7.93468 25.5307L7.99821 25.5435L8.06173 25.5564L8.11931 25.5691L8.17647 25.5882L8.23363 25.6075L8.28476 25.6267L8.33556 25.6523L8.3867 25.6778L8.44386 25.7098L8.49466 25.7417L8.54579 25.7737L8.59659 25.8057L8.64739 25.844L8.69853 25.8761L8.74933 25.9207L8.80046 25.9592L8.83846 25.908L8.88315 25.8632L8.92123 25.8121L8.966 25.761L9.00391 25.7098L9.04233 25.665L9.08677 25.6138L9.12502 25.5627L9.16945 25.5116L9.20787 25.4667L9.24578 25.4156L9.29056 25.3645L9.32855 25.3198L9.36696 25.2685L9.41132 25.2174L9.44973 25.1663L9.49409 25.1215L9.53242 25.0704L9.48162 25.0319L9.43049 24.9873L9.37977 24.9488L9.32855 24.9105L9.27783 24.8785L9.22703 24.8401L9.16945 24.8082L9.11865 24.7762L9.06158 24.7442L9.01036 24.7122L8.9532 24.6866L8.89604 24.6548L8.83846 24.6291L8.7813 24.6035L8.72414 24.578L8.66656 24.5588L8.61576 24.5396L8.55868 24.5269L8.5011 24.5076L8.44386 24.4948L8.3867 24.482L8.3292 24.4693L8.2656 24.4565L8.20208 24.4437L8.1445 24.4373L8.07453 24.4245L8.01101 24.4182H7.94741L7.87744 24.4117L7.80706 24.4053H7.73709H7.66721H7.6036H7.53364L7.4697 24.4117L7.4061 24.4182L7.34257 24.4245L7.27897 24.4309L7.21511 24.4437L7.15142 24.4501L7.0879 24.4629L7.03074 24.482L6.9668 24.4948L6.90964 24.514L6.85257 24.5269L6.7949 24.5524L6.73138 24.5716L6.68058 24.5907L6.61698 24.6228L6.55948 24.6483L6.50224 24.6739L6.44516 24.7059L6.38758 24.7379L6.33042 24.7698L6.2797 24.8018L6.22849 24.8338L6.17769 24.8721L6.12655 24.9041L6.07575 24.9425L6.03131 24.9808L5.98019 25.0256L5.93583 25.0639L5.89111 25.1088L5.84667 25.1534L5.8083 25.1982L5.76394 25.2429L5.72556 25.2878L5.68755 25.3389L5.64918 25.3901L5.61123 25.4412L5.57921 25.4923L5.54733 25.5435L5.51567 25.5947L5.48372 25.6458L5.45176 25.7034L5.42658 25.761L5.40098 25.8185L5.37544 25.8761L5.35019 25.9335L5.32459 25.9975L5.3054 26.0551L5.28621 26.119L5.26746 26.1766L5.25462 26.2405L5.23544 26.3045L5.22267 26.362L5.21632 26.426L5.20355 26.4895L5.19707 26.5598L5.19107 26.6238V26.6877L5.18473 26.7581V26.822V26.8348V26.8987V26.969L5.19107 27.033L5.19707 27.097L5.20355 27.161L5.20983 27.2184L5.22267 27.2824L5.22909 27.34L5.24186 27.4039L5.26104 27.4615L5.27381 27.5254L5.29263 27.5829L5.3054 27.6404L5.33101 27.6981L5.35019 27.7492L5.37544 27.8067L5.40098 27.8643L5.42658 27.9218L5.45176 27.9794L5.48372 28.0305L5.51567 28.0881L5.54733 28.1393L5.57921 28.1903L5.61723 28.2416L5.64918 28.2927L5.68755 28.3375L5.72556 28.3886L5.76394 28.4334L5.8083 28.4782L5.85309 28.5229L5.89746 28.5613L5.94225 28.606L5.98661 28.6444L6.03131 28.6828L6.08219 28.7211L6.13299 28.7594L6.18413 28.7979L6.23485 28.8297L6.28606 28.8618L6.34323 28.8938L6.39394 28.9254L6.4516 28.9574L6.50868 28.983L6.56593 29.0085L6.62342 29.034L6.68694 29.0596L6.7441 29.0788L6.80135 29.1043L6.85893 29.1236L6.92245 29.1364L6.97961 29.1555L7.04355 29.1684L7.10071 29.1811L7.16431 29.194L7.22783 29.2067L7.29186 29.2131L7.35538 29.2196L7.4189 29.2259L7.48886 29.2323L7.55247 29.2387H7.61641H7.68629H7.75634H7.8263L7.89619 29.2323L7.96021 29.2259L8.03018 29.2196L8.0937 29.2131L8.16366 29.2067L8.22727 29.2003L8.29121 29.1875L8.35473 29.1748L8.41197 29.162L8.47591 29.1492L8.53307 29.1299L8.59659 29.1109L8.65384 29.0916L8.71133 29.0724L8.76858 29.0532L8.82565 29.0276L8.88968 29.0021L8.94684 28.9764L9.01036 28.9509L9.06752 28.919L9.12502 28.8938L9.18226 28.8618L9.23942 28.8297L9.297 28.7979L9.3478 28.7659L9.39893 28.7339L9.44973 28.6955L9.50045 28.6636L9.55159 28.6252L9.59603 28.5931ZM10.7844 34.668H24.197L17.3509 36.9256L10.7844 34.668Z" fill="white"/>
</svg>
