<svg width="98" height="37" viewBox="0 0 98 37" fill="none" xmlns="http://www.w3.org/2000/svg">
<path d="M35.702 16.109C34.5619 6.54802 27.2158 2.47431 23.8545 1.09963C22.967 0.733659 22.043 0.459181 21.0986 0.299068C7.93109 -1.89676 1.82071 8.67065 1.04468 10.13C0.996886 10.2215 1.02647 10.3358 1.1175 10.3884L2.43971 11.1776C2.52391 11.2279 2.55805 11.3354 2.51709 11.4246C-2.551 22.5936 4.32175 30.3064 7.05493 32.7904C7.61249 33.2936 8.21784 33.7511 8.86642 34.1422C20.6116 41.2398 29.9171 32.5274 29.9171 32.5274C37.9346 25.2926 35.702 16.109 35.702 16.109ZM6.222 18.0212C4.77463 20.8941 5.10461 23.5062 4.99082 24.181C4.88386 24.8145 4.48561 24.2587 4.43782 24.1878C4.43554 24.1832 4.43327 24.1787 4.42871 24.1741C3.60717 22.7651 3.7915 19.5171 3.80516 19.3021C3.80516 19.2952 3.80743 19.2884 3.80743 19.2792C4.10556 17.5958 5.03861 15.0294 5.84423 14.2174C6.6635 13.394 7.22333 12.168 10.2979 10.6675C13.3838 9.17843 16.4947 9.39573 19.4327 10.6675C22.3707 11.9392 24.5918 15.1781 24.8217 16.5299C25.0265 17.7284 24.271 16.9004 24.1117 16.7129C24.0957 16.6946 24.0844 16.6763 24.0775 16.6534C24.0411 16.5482 23.7566 16.0633 21.5992 14.3638C19.0709 12.383 15.6982 11.8226 13.1016 12.4973C10.4822 13.1675 7.66938 15.1483 6.222 18.0212ZM21.7039 24.9403C18.4382 28.472 15.259 25.8919 15.1338 25.7889C15.1316 25.7866 15.1293 25.7844 15.1247 25.7821C11.9205 23.4467 13.65 19.8465 13.7889 19.5743C13.7934 19.5629 13.8002 19.5537 13.8071 19.5446C15.9577 16.7197 18.172 17.0628 19.3212 17.5317C19.7991 17.7261 20.2201 18.0349 20.5751 18.4123C22.6825 20.7362 21.2055 23.1128 20.7527 23.7303C20.6889 23.8173 20.7071 23.9385 20.7936 24.0025L21.6766 24.6498C21.7699 24.7185 21.7836 24.8534 21.7039 24.9403ZM32.252 23.8035C32.252 23.8035 28.6859 34.7712 17.1024 33.5818C17.1024 33.5818 9.46494 32.461 8.19508 24.3388C8.19508 24.3342 8.1928 24.3273 8.1928 24.3228C8.14501 24.1306 7.19602 20.0661 11.9364 16.4247C11.941 16.4201 11.9478 16.4178 11.9523 16.4132C12.0024 16.3835 12.2254 16.2668 12.1253 16.6946C12.0115 17.1749 10.621 17.5866 10.0635 21.7084C9.50591 25.8301 12.9559 28.2798 13.8458 28.8974C14.7333 29.515 20.3385 31.7474 24.5418 27.6371C28.6449 23.6251 28.0578 18.4558 28.0282 18.2111C28.0282 18.2042 28.0259 18.1996 28.0259 18.1928C28.0191 17.9617 27.828 13.2613 23.1285 9.40945C18.3904 5.52559 12.5509 6.6784 12.3574 6.71728C12.3551 6.71728 12.3506 6.71957 12.3483 6.71957C12.2277 6.73787 9.84272 7.11527 6.2129 9.50095C6.17876 9.52382 6.13325 9.55813 6.11049 9.59244C6.04222 9.69537 5.82602 9.9241 5.43915 9.76399C5.05227 9.60388 5.13192 9.53526 5.63258 9.02061C6.09456 8.54485 6.3631 8.24521 6.40179 8.20175C6.40406 8.19718 6.40862 8.19489 6.41089 8.19031C6.59523 7.95015 13.0561 -0.336806 24.4849 4.9103C24.7694 5.0361 25.0311 5.18478 25.2928 5.35633C27.432 6.69898 35.8272 12.813 32.252 23.8035ZM42.9662 14.5445H45.0849C45.1919 14.5445 45.2784 14.6314 45.2784 14.7389V21.2074C45.2784 21.2234 45.2807 21.2395 45.2829 21.2532C45.3307 21.4522 45.7199 22.82 47.1445 22.82C48.6715 22.82 49.1494 21.4796 49.1494 21.2509V14.7252C49.1494 14.6177 49.2359 14.5308 49.3429 14.5308H51.2113C51.3182 14.5308 51.4047 14.6177 51.4047 14.7252V21.1137C51.4047 21.2052 51.4047 21.2966 51.3933 21.3881C51.3023 22.1201 50.7106 24.9152 47.19 24.9152C43.9084 24.9152 43.1801 22.5684 43.0208 21.674C42.9867 21.5025 42.9753 21.331 42.9753 21.148V14.5422L42.9662 14.5445ZM57.8087 19.4554C57.8087 19.4554 59.0398 18.9178 59.0398 17.0514C59.0398 15.1849 56.8984 14.533 55.9061 14.533H52.6245C52.5175 14.533 52.4311 14.6177 52.4311 14.7252C52.4151 16.1456 52.3287 24.9403 52.4333 24.9403H56.4205C56.5911 24.9403 56.7732 24.9175 56.9439 24.8717C57.6607 24.6773 59.4267 24.0025 59.4267 22.0217C59.4267 19.5468 57.8087 19.4554 57.8087 19.4554ZM54.609 16.6786C54.609 16.5733 54.6932 16.4864 54.7978 16.4841C55.0504 16.4773 55.5193 16.4658 55.9767 16.4658C56.3977 16.4658 56.9211 16.889 56.9211 17.518C56.9211 17.9183 56.6935 18.1813 56.4887 18.3414C56.2953 18.4787 56.0677 18.5473 55.8401 18.5473H54.8047C54.6977 18.5473 54.6112 18.4604 54.6112 18.3529V16.6786H54.609ZM56.0654 22.9938H54.8001C54.6932 22.9938 54.6067 22.9069 54.6067 22.7994V20.7431C54.6067 20.6379 54.6886 20.5533 54.7933 20.5487C55.0823 20.5395 55.6649 20.5212 56.2247 20.5212C56.7254 20.5212 57.3535 21.0245 57.3535 21.7816C57.3535 22.2505 57.0918 22.5592 56.8415 22.7537C56.6116 22.9138 56.3385 22.9938 56.0654 22.9938ZM60.4394 14.5445H62.3533C62.4603 14.5445 62.5468 14.6314 62.5468 14.7389V24.7345C62.5468 24.842 62.4603 24.9289 62.3533 24.9289H60.4394C60.3325 24.9289 60.246 24.842 60.246 24.7345V14.7389C60.246 14.6314 60.3325 14.5445 60.4394 14.5445ZM63.1749 22.82L64.7611 21.5643C64.8521 21.4911 64.9864 21.5162 65.0478 21.6169C65.2913 22.024 65.9467 22.9344 66.9799 22.9344C68.3135 22.9344 68.2111 21.6054 68.2111 21.6054C68.2111 21.6054 68.2452 20.9307 66.502 20.3909C64.7588 19.8533 63.6437 18.7417 63.7233 17.4494C63.803 16.1662 64.6905 14.7824 66.0014 14.5422C67.2735 14.3089 68.8893 14.334 70.1387 16.0655C70.2024 16.1525 70.1819 16.2737 70.0954 16.3377L68.7027 17.3602C68.6094 17.4288 68.4774 17.4013 68.4205 17.3007C68.2225 16.9553 67.7036 16.2783 66.7068 16.3743C65.3732 16.5001 65.6236 17.6118 65.9786 17.9663C66.2972 18.2865 67.9494 18.8812 68.3249 19.0185C68.3795 19.0413 68.5502 19.1054 68.6139 19.1306C68.6185 19.1328 68.623 19.1351 68.6276 19.1374C69.0122 19.325 70.3298 20.0912 70.3981 21.1617C70.4891 22.4449 70.5233 23.6228 68.6321 24.5744C66.7387 25.5122 64.2786 24.6178 63.1749 22.82ZM88.5199 20.7614H84.4417C84.3348 20.7614 84.2483 20.8483 84.2483 20.9558V24.7345C84.2483 24.842 84.1618 24.9289 84.0549 24.9289H82.3116C82.2047 24.9289 82.1182 24.842 82.1182 24.7345V14.7732C82.1182 14.6657 82.2047 14.5788 82.3116 14.5788H88.7702C88.8772 14.5788 88.9636 14.6657 88.9636 14.7732V16.5939C88.9636 16.7014 88.8772 16.7883 88.7702 16.7883H84.4645C84.3575 16.7883 84.2711 16.8753 84.2711 16.9828V18.792C84.2711 18.8995 84.3575 18.9865 84.4645 18.9865H88.5199V20.7614ZM92.5525 24.7322V17.0262C92.5525 16.9187 92.466 16.8318 92.3591 16.8318H89.9445C89.8375 16.8318 89.7511 16.7449 89.7511 16.6374V14.7709C89.7511 14.6634 89.8375 14.5765 89.9445 14.5765H97.4408C97.5478 14.5765 97.6342 14.6634 97.6342 14.7709V16.6374C97.6342 16.7449 97.5478 16.8318 97.4408 16.8318H95.1036C94.9967 16.8318 94.9102 16.9187 94.9102 17.0262V24.7322C94.9102 24.8397 94.8237 24.9266 94.7167 24.9266H92.7459C92.639 24.9266 92.5525 24.8397 92.5525 24.7322ZM76.3196 14.3363C74.8995 14.3363 73.6137 14.8853 72.6693 15.7865C72.5896 15.862 72.5874 15.9878 72.6647 16.0655L72.6829 16.0838C72.758 16.1593 72.758 16.2851 72.6807 16.3606C71.7362 17.3007 71.2287 18.6891 71.2287 20.1301C71.2287 20.6104 71.297 21.0793 71.4222 21.5277C71.4677 21.6878 71.5246 21.8365 71.6042 21.9851C72.4804 23.6915 74.2691 24.858 76.3196 24.858C79.1552 24.858 81.3194 22.6484 81.4673 19.8671C81.4673 19.7756 81.4787 19.6955 81.4787 19.604C81.4673 16.6968 79.2462 14.3363 76.3196 14.3363ZM76.4448 22.868C76.0806 22.9023 75.7279 22.8795 75.3843 22.8108C74.3829 22.5821 73.6183 21.8387 73.3793 20.83C73.3224 20.5899 73.2883 20.3268 73.2883 20.0752C73.2883 19.2129 73.6228 18.4375 74.1667 17.8542C74.235 17.781 74.2373 17.6667 74.169 17.5912L74.1235 17.5409C74.0507 17.4608 74.0598 17.335 74.1417 17.2641C74.6856 16.7929 75.2978 16.5047 76.092 16.5047C77.0933 16.5047 77.9832 16.8478 78.5749 17.5706C79.1097 18.2111 79.3941 19.0711 79.2917 19.986C79.1552 21.4819 77.949 22.7056 76.4448 22.868ZM88.5199 20.6448V19.1214V20.6448Z" fill="white"/>
</svg>
