<svg width="53" height="53" viewBox="0 0 53 53" fill="none" xmlns="http://www.w3.org/2000/svg">
<circle cx="26.5" cy="26.5" r="26.5" fill="#00C5FF"/>
<path d="M28.2584 28.2378H24.744C24.7054 28.2378 24.6703 28.2622 24.6563 28.2971L21.3523 35.3436C21.3278 35.4064 21.3734 35.4727 21.44 35.4692H31.5553C31.622 35.4692 31.664 35.3994 31.643 35.3401L28.339 28.2936C28.3285 28.2622 28.2934 28.2378 28.2584 28.2378Z" fill="black"/>
<path d="M21.3979 33.4626L24.2635 27.3968C24.2705 27.3794 24.274 27.3584 24.267 27.3375L20.1212 18.4901C20.0932 18.3854 19.9388 18.3994 19.9388 18.5111L21.2225 33.4277C21.2155 33.5254 21.3593 33.5568 21.3979 33.4626Z" fill="black"/>
<path d="M16.2596 23.8962L18.9638 18.0399C19.0199 17.9631 19.1356 18.005 19.1321 18.0992L20.5561 34.3071C20.5526 34.4048 20.4158 34.4328 20.3773 34.342L16.1018 25.205C15.9229 24.7722 15.9825 24.2766 16.2596 23.8962Z" fill="black"/>
<path d="M31.7798 33.4274L33.0635 18.5109C33.0635 18.4027 32.9092 18.3852 32.8811 18.4899L28.7354 27.3373C28.7284 27.3582 28.7319 27.3791 28.7389 27.3966L31.6044 33.4623C31.643 33.5566 31.7868 33.5252 31.7798 33.4274Z" fill="black"/>
<path d="M36.8971 25.2049L32.6216 34.3419C32.583 34.4362 32.4462 34.4082 32.4427 34.307L33.8667 18.0991C33.8632 18.0049 33.9789 17.9665 34.035 18.0398L36.7428 23.8961C37.0198 24.2766 37.076 24.7722 36.8971 25.2049Z" fill="black"/>
</svg>
