<svg width="101" height="37" viewBox="0 0 101 37" fill="none" xmlns="http://www.w3.org/2000/svg">
<path d="M12.8241 0.0463783C13.0103 -0.0603389 13.3029 0.0196978 13.3827 0.259812C13.4625 0.446567 13.3295 0.633322 13.2231 0.766719C12.4783 1.80721 11.9995 3.03446 11.7601 4.28839C11.6271 4.34175 11.5739 4.50182 11.6271 4.63522C11.7069 4.6619 11.7601 4.68858 11.8399 4.71526C13.2763 4.58186 14.7127 4.60854 16.1225 4.92869C18.6761 5.4356 21.0701 6.74288 22.9055 8.61044C24.7409 10.4513 26.0177 12.8258 26.5497 15.387C27.1349 18.1349 26.8157 21.0697 25.6453 23.6576C23.1981 28.9134 19.0751 33.3422 14.0211 36.1435C13.8615 36.2235 13.6221 36.2235 13.5157 36.0634C13.3827 35.9034 13.4359 35.6633 13.5689 35.5032C14.2605 34.5427 14.7127 33.4489 14.9787 32.3017C15.0319 32.0616 15.0851 31.8214 15.0851 31.5813C15.0053 31.4746 14.8723 31.5013 14.7393 31.5013C12.2921 31.7414 9.76513 31.3145 7.55733 30.2207C5.18994 29.0735 3.16835 27.2059 1.83836 24.9115C0.614761 22.8038 -0.0502361 20.376 0.0029637 17.9482C0.0029637 15.7071 0.614761 13.4928 1.67876 11.5452C4.17915 6.71621 8.08933 2.66095 12.8241 0.0463783ZM12.6911 12.8791C11.2281 13.0659 9.89812 13.9463 9.07353 15.1469C8.51493 15.9739 8.19573 16.9877 8.19573 18.0016C8.14253 19.3622 8.70113 20.7228 9.63213 21.6833C10.4567 22.5637 11.5739 23.124 12.7709 23.2841C13.9679 23.4441 15.2447 23.1507 16.2555 22.4837C17.2929 21.8167 18.0909 20.7762 18.4367 19.6023C19.1017 17.548 18.3037 15.1469 16.5747 13.8663C15.4841 13.0392 14.0477 12.6657 12.6911 12.8791Z" fill="white"/>
<path d="M59.4271 7.83647C60.3847 7.56967 61.4487 7.96986 61.9807 8.79692C62.3531 9.38386 62.4595 10.1309 62.2733 10.7712C62.0073 11.5982 61.2625 12.2652 60.3847 12.3986C59.5335 12.532 58.6291 12.1585 58.1237 11.4382C57.5917 10.7178 57.5651 9.65066 58.0439 8.90364C58.3365 8.39673 58.8419 7.99654 59.4271 7.83647ZM80.7869 7.83647C81.8508 7.56967 83.0478 8.15662 83.4734 9.17043C83.9256 10.1842 83.5532 11.4915 82.5956 12.0785C82.0371 12.4253 81.3455 12.532 80.7071 12.3453C80.0953 12.1852 79.5633 11.7316 79.2707 11.1447C78.9249 10.4777 78.9515 9.65066 79.2973 8.98368C79.5899 8.42341 80.1485 7.96986 80.7869 7.83647ZM37.03 10.1576C38.6792 9.97081 40.3816 10.2109 41.8978 10.9313C43.2278 11.5716 44.3716 12.5854 45.143 13.8126C46.5794 16.0537 46.739 19.0418 45.5952 21.4696C44.9568 22.8569 43.8928 24.0308 42.5894 24.8312C40.222 26.2985 37.1364 26.4586 34.5828 25.3648C33.0932 24.7245 31.7898 23.5772 30.9653 22.1632C30.0077 20.5625 29.6885 18.6149 29.9811 16.774C30.2471 15.1466 31.0185 13.6259 32.1888 12.4787C33.4656 11.1714 35.2212 10.371 37.03 10.1576ZM37.4822 13.9994C36.631 14.1061 35.833 14.5596 35.2478 15.1999C33.838 16.774 33.8646 19.442 35.301 20.9894C36.0724 21.8431 37.2162 22.2966 38.36 22.2166C39.3442 22.1632 40.2752 21.7097 40.9402 20.9894C42.4298 19.3352 42.3234 16.4806 40.6476 14.9598C39.7964 14.1595 38.5994 13.8393 37.4822 13.9994ZM97.1458 11.865H98.5822V12.1852H98.0502V13.6259H97.7044V12.1852H97.1458V11.865ZM98.928 11.865H99.327C99.4866 12.1318 99.6462 12.3986 99.8324 12.6387C100.019 12.3719 100.178 12.1052 100.338 11.8384H100.71V13.5992H100.364V12.4253C100.178 12.6921 100.019 12.9589 99.8324 13.2257C99.6462 12.9589 99.46 12.6654 99.3004 12.3986V13.5992H98.9546C98.928 13.0389 98.928 12.452 98.928 11.865ZM76.2117 12.6921C76.3447 12.5854 76.5043 12.532 76.6639 12.4787C76.8235 12.5587 77.0097 12.6654 77.0097 12.8789V23.1504C76.9831 24.4577 76.7969 25.845 76.0255 26.9655C75.3605 27.9793 74.2965 28.6463 73.1527 28.9665C71.6897 29.3666 70.1203 29.3933 68.6307 29.2333C67.3007 29.0732 65.9707 28.7263 64.7471 28.1394C64.5343 28.0594 64.4013 27.8193 64.5343 27.6058C64.8535 26.9122 65.1993 26.2185 65.5451 25.5248C65.6249 25.2847 65.9175 25.258 66.1303 25.3914C67.4603 26.0851 68.9499 26.4052 70.4395 26.2719C71.1843 26.1918 71.9557 25.8983 72.4079 25.2847C72.9133 24.6444 72.9665 23.764 72.9399 22.9903C72.3015 23.7106 71.5035 24.3243 70.5725 24.5644C69.1095 24.9379 67.4869 24.6444 66.2367 23.7907C65.2259 23.097 64.5343 21.9765 64.2683 20.8026C64.0289 19.8155 64.0289 18.775 64.2417 17.7878C64.4811 16.5606 65.1461 15.4134 66.1303 14.6664C66.7687 14.1595 67.5401 13.8393 68.3381 13.7059C68.8169 13.6259 69.2957 13.6525 69.7745 13.6525H72.7537C72.8601 13.6525 72.9931 13.6525 73.0729 13.7326C73.3123 13.946 73.5251 14.1861 73.7645 14.4262C74.5359 13.8126 75.3871 13.279 76.2117 12.6921ZM69.8011 16.9875C69.3223 17.0942 68.8967 17.361 68.5775 17.7612C67.8593 18.6149 67.9125 20.0022 68.6839 20.8026C69.6149 21.7631 71.3439 21.7631 72.2749 20.8026C73.0995 19.9489 73.0995 18.4548 72.2483 17.6278C71.6365 16.9341 70.6523 16.7473 69.8011 16.9875ZM91.746 13.9727C92.5174 13.6259 93.3686 13.5725 94.1932 13.7059C95.0444 13.8393 95.869 14.2395 96.401 14.9065C96.9064 15.4934 97.1724 16.2404 97.3054 17.0141C97.4118 17.6544 97.3852 18.2947 97.3852 18.935V25.3114C97.4118 25.5515 97.2522 25.7916 96.9862 25.7649H93.608C93.3952 25.7916 93.1824 25.6049 93.209 25.3914V19.4153C93.209 18.855 93.076 18.2414 92.677 17.8145C91.9854 17.1209 90.6288 17.2809 90.1234 18.1347C89.8574 18.5615 89.8042 19.0684 89.8042 19.5487V25.3914C89.8308 25.5782 89.6712 25.7649 89.485 25.7649H86.1866C86.027 25.7649 85.8674 25.7916 85.7344 25.6582C85.6014 25.5248 85.628 25.3114 85.628 25.1513V14.3462C85.6014 14.1061 85.7876 13.8927 86.027 13.9193C87.1176 13.8927 88.2348 13.9193 89.3254 13.9193C89.5116 13.9193 89.751 13.9994 89.7776 14.2128C89.8042 14.6664 89.7776 15.1199 89.7776 15.5735C90.3362 14.8798 90.9746 14.2929 91.746 13.9727ZM53.8412 14.2128C54.3732 13.866 55.0116 13.7059 55.6234 13.6792C55.8362 13.6525 56.049 13.866 56.0224 14.0794V17.6811C56.049 17.9479 55.783 18.108 55.5436 18.0813C54.6924 18.0813 53.788 18.3481 53.2028 19.0151C52.5644 19.7354 52.3516 20.7226 52.2984 21.683V25.3648C52.325 25.5782 52.1122 25.7916 51.8994 25.7649H48.5212C48.3084 25.7916 48.1222 25.6049 48.1488 25.3914V14.2662C48.1488 14.0261 48.3882 13.8927 48.601 13.9193H51.8994C52.1122 13.9193 52.325 14.0794 52.325 14.2929C52.3516 14.9332 52.325 15.6001 52.325 16.2404C52.6442 15.4401 53.123 14.693 53.8412 14.2128ZM58.3365 13.8927C59.4005 13.866 60.4645 13.8927 61.5285 13.8927C61.6881 13.8927 61.8743 13.866 62.0073 14.0261C62.1137 14.1328 62.1137 14.2929 62.1137 14.4262V25.3114C62.1403 25.5248 62.0073 25.7916 61.7679 25.7649H58.3099C58.0705 25.7916 57.9109 25.5248 57.9375 25.3114V14.3462C57.9109 14.0794 58.0971 13.8927 58.3365 13.8927ZM79.5899 13.8927C80.7071 13.866 81.8242 13.8927 82.9414 13.8927C83.1542 13.866 83.4468 13.9994 83.4468 14.2395V25.3648C83.4734 25.5515 83.3138 25.7649 83.101 25.7383H79.6431C79.4569 25.7649 79.3239 25.6049 79.2973 25.4448C79.2441 25.178 79.2707 24.9112 79.2707 24.6711V14.3195C79.2441 14.1328 79.3771 13.9193 79.5899 13.8927ZM79.6697 30.5139C79.8559 30.4872 80.0421 30.4605 80.2283 30.4338V34.8893H79.7495C79.7495 34.8092 79.7229 34.7292 79.7229 34.6225C79.2973 34.8893 78.7387 35.0493 78.2599 34.8626C77.9407 34.7559 77.8077 34.409 77.8077 34.0889V32.6215C77.8077 32.3014 77.9407 31.9279 78.2599 31.7945C78.7121 31.6077 79.2175 31.7144 79.6697 31.7678V30.5139ZM78.3663 32.6482V34.0355C78.3397 34.1956 78.4195 34.3824 78.6057 34.4357C79.0047 34.5424 79.3771 34.329 79.6963 34.1156V32.3014C79.3505 32.248 79.0047 32.168 78.6855 32.248C78.4461 32.248 78.3397 32.4614 78.3663 32.6482ZM82.835 30.5139L83.3936 30.4338V31.9012C83.7926 31.7411 84.2448 31.6611 84.697 31.7411C85.0428 31.8211 85.2822 32.168 85.2822 32.4881V34.0088C85.2822 34.3824 85.0428 34.7292 84.697 34.8359C84.1118 35.0227 83.4734 34.9159 82.8616 34.8092C82.835 33.3952 82.835 31.9545 82.835 30.5139ZM83.3936 32.4348V34.4357C83.7128 34.4624 84.032 34.5158 84.3512 34.4357C84.5374 34.3824 84.6704 34.2223 84.697 34.0355C84.7502 33.6353 84.7236 33.2085 84.7236 32.8083C84.7236 32.5948 84.697 32.3281 84.4842 32.248C84.1118 32.1146 83.7394 32.3014 83.3936 32.4348ZM57.9375 30.6473H59.5335C59.8793 30.6473 60.2783 30.7006 60.5177 30.9941C60.7571 31.2876 60.7305 31.6877 60.7305 32.0346C60.7305 32.3547 60.7305 32.7282 60.5177 33.0217C60.3049 33.2885 59.9591 33.3685 59.6665 33.3685C59.2941 33.3952 58.8951 33.3685 58.5227 33.3685V34.8893H57.9641C57.9375 33.4753 57.9375 32.0613 57.9375 30.6473ZM58.4961 31.1542V32.8616C58.9483 32.835 59.4005 32.915 59.8527 32.8083C60.2251 32.7016 60.1453 32.248 60.1453 31.9545C60.1453 31.6877 60.1985 31.3142 59.9059 31.2075C59.4537 31.0741 58.9483 31.1542 58.4961 31.1542ZM90.7618 34.8893V30.6206H93.2622V31.1275H91.3204V32.4614H93.1026V32.9684H91.2938V34.3824H93.2356V34.9159C92.4376 34.8893 91.613 34.8893 90.7618 34.8893ZM95.204 30.6473H95.9754C96.4276 32.0613 96.933 33.4753 97.4118 34.8893H96.8266C96.6936 34.5424 96.5872 34.2223 96.4808 33.8754H94.6986C94.5922 34.2223 94.4858 34.5424 94.3528 34.8893H93.7676C94.2464 33.4753 94.7252 32.0613 95.204 30.6473ZM94.8316 33.3685H96.3212C96.0552 32.5948 95.8424 31.8478 95.5764 31.0741C95.3104 31.8478 95.0976 32.6215 94.8316 33.3685ZM62.1669 31.7678C62.5127 31.6877 62.8851 31.6611 63.2043 31.7678C63.5767 31.8745 63.8427 32.1947 63.8959 32.5682C63.9491 32.9417 63.9225 33.3419 63.9225 33.7154C63.9225 34.0355 63.8427 34.3824 63.6033 34.6225C63.3373 34.8893 62.9117 34.9693 62.5659 34.9426C62.1935 34.9426 61.7945 34.8092 61.5817 34.4891C61.3689 34.1689 61.3955 33.7687 61.3955 33.4219C61.3955 33.0484 61.3423 32.6482 61.5285 32.2747C61.6615 32.0346 61.9009 31.8478 62.1669 31.7678ZM62.3797 32.2213C62.1137 32.2747 61.9541 32.5415 61.9541 32.7816C61.9541 33.1818 61.9275 33.6087 61.9807 34.0088C62.0871 34.4624 62.7255 34.5424 63.0713 34.3557C63.3905 34.1956 63.3639 33.7687 63.3639 33.4753C63.3373 33.1284 63.4171 32.7816 63.2575 32.4614C63.1245 32.168 62.6989 32.1413 62.3797 32.2213ZM69.7213 31.9012C70.0671 31.6877 70.4661 31.6877 70.8651 31.7411C71.1843 31.7945 71.4769 31.9812 71.6099 32.3014C71.7695 32.7016 71.6897 33.1551 71.7163 33.5553H69.8809C69.8809 33.8488 69.8277 34.249 70.1469 34.409C70.6257 34.5958 71.1311 34.4357 71.6099 34.3557C71.6365 34.5158 71.6631 34.6491 71.6897 34.8092C71.1311 34.9693 70.5459 35.0493 69.9873 34.8893C69.6149 34.7825 69.3755 34.409 69.3489 34.0355C69.3223 33.6353 69.3489 33.2085 69.3489 32.8083C69.2957 32.4614 69.4287 32.0879 69.7213 31.9012ZM70.0405 32.3014C69.8011 32.4881 69.8543 32.8083 69.8543 33.0751H71.1577C71.1577 32.8083 71.1843 32.4348 70.9183 32.248C70.6523 32.1146 70.2799 32.1413 70.0405 32.3014ZM72.6207 31.7678H73.0995C73.0995 31.9012 73.1261 32.0613 73.1261 32.1947C73.3921 32.0079 73.6847 31.8478 73.9773 31.7144C74.0039 31.8745 74.0305 32.0613 74.0571 32.2213C73.7645 32.3814 73.4453 32.5682 73.1793 32.7549V34.8893H72.6207V31.7678ZM74.6157 32.5148C74.6689 32.1146 75.0413 31.7945 75.4403 31.7411C75.8925 31.6611 76.4245 31.6877 76.7437 32.0346C77.0895 32.4614 76.9565 33.0484 76.9831 33.5553H75.1477C75.1477 33.8488 75.0945 34.3023 75.4403 34.4357C75.9191 34.5691 76.3979 34.4357 76.8501 34.3557C76.8767 34.5158 76.9033 34.6491 76.9033 34.8092C76.3447 34.9693 75.7063 35.076 75.1477 34.8626C74.7487 34.7292 74.5625 34.2756 74.5891 33.9021C74.5891 33.4219 74.5359 32.9684 74.6157 32.5148ZM75.3605 32.2747C75.0945 32.4614 75.1211 32.8083 75.1211 33.1017H76.4245C76.4245 32.835 76.4777 32.5148 76.2383 32.3014C75.9989 32.1146 75.6265 32.1413 75.3605 32.2747ZM85.8142 31.7678H86.3462C86.6388 32.6482 86.9048 33.5286 87.1708 34.409C87.4634 33.5286 87.7294 32.6482 88.022 31.7678H88.5806C88.1018 33.2351 87.623 34.7025 87.1176 36.1432H86.5856C86.7186 35.743 86.8782 35.3161 87.0112 34.9159H86.7984C86.4792 33.8488 86.1334 32.8083 85.8142 31.7678ZM64.5077 31.7678H65.0397C65.1993 32.6215 65.3855 33.4486 65.5451 34.3023C65.7845 33.4486 66.0505 32.6215 66.2899 31.7678H66.9549C67.1943 32.6215 67.4603 33.4486 67.6997 34.3023C67.8859 33.4486 68.0455 32.6215 68.2051 31.7678H68.7371C68.5243 32.8083 68.3115 33.8488 68.0721 34.8893H67.3805C67.1411 34.0355 66.9017 33.1551 66.6357 32.3014C66.3963 33.1551 66.1569 34.0355 65.8909 34.8893H65.1993C64.9599 33.8488 64.7471 32.8083 64.5077 31.7678Z" fill="white"/>
</svg>
