<svg width="205" height="39" viewBox="0 0 205 39" fill="none" xmlns="http://www.w3.org/2000/svg">
<path fill-rule="evenodd" clip-rule="evenodd" d="M200.006 23.3294V24.7044H200.44C200.73 24.7044 200.946 24.6323 201.091 24.4861C201.176 24.4487 201.248 24.3881 201.299 24.3113C201.35 24.2345 201.379 24.1448 201.381 24.0525C201.381 23.763 201.235 23.6178 201.091 23.5457C200.946 23.4005 200.731 23.3284 200.367 23.3284H200.006V23.3294ZM198.632 22.5322H200.585C201.31 22.5322 201.815 22.6043 202.178 22.8937C202.538 23.1111 202.757 23.4726 202.757 23.9072C202.757 24.2677 202.684 24.5582 202.467 24.7755C202.249 24.9928 202.033 25.137 201.67 25.2823L202.829 27.4535H201.31L200.367 25.4986H200.007V27.4535H198.632V22.5322ZM200.511 21.3745C201.019 21.3745 201.525 21.4466 201.96 21.6639C202.394 21.8812 202.828 22.0986 203.191 22.4601C203.481 22.8216 203.77 23.2563 203.915 23.6909C204.132 24.1256 204.205 24.5582 204.205 25.066C204.205 25.5737 204.132 26.0795 203.915 26.5141C203.762 26.9668 203.486 27.368 203.118 27.6728C202.758 28.0344 202.394 28.3248 201.888 28.469C201.454 28.6863 201.02 28.7584 200.512 28.7584C200.007 28.7584 199.572 28.6863 199.066 28.469C198.632 28.2517 198.198 27.9623 197.908 27.6728C197.545 27.3113 197.255 26.8767 197.11 26.442C196.894 26.0074 196.821 25.5747 196.821 25.067C196.821 24.5602 196.894 24.1266 197.11 23.6198C197.329 23.1852 197.545 22.7505 197.908 22.389C198.268 22.0996 198.703 21.8102 199.137 21.6649C199.571 21.4466 200.006 21.3745 200.511 21.3745ZM200.511 20.5783C201.164 20.5783 201.743 20.6504 202.322 20.8678C202.828 21.1572 203.336 21.4466 203.77 21.8813C204.205 22.3159 204.494 22.8226 204.711 23.3294C204.929 23.9082 205 24.4871 205 25.066C205 25.7179 204.929 26.2978 204.711 26.8035C204.502 27.3652 204.153 27.8638 203.697 28.2517C203.262 28.6863 202.757 29.0479 202.249 29.2652C201.67 29.4825 201.09 29.5546 200.511 29.5546C199.935 29.5546 199.353 29.4825 198.776 29.2652C198.268 28.9758 197.762 28.6863 197.328 28.1796C196.893 27.7449 196.604 27.3113 196.314 26.7324C196.096 26.2247 196.025 25.6468 196.025 25.066C196.025 24.4871 196.096 23.9082 196.385 23.3294C196.604 22.7495 196.964 22.2438 197.399 21.8092C197.833 21.3745 198.267 21.0851 198.847 20.8678C199.354 20.6504 199.935 20.5783 200.511 20.5783ZM148.031 13.9185H161.784C165.62 13.9185 165.259 16.308 164.606 18.7676C163.882 21.3004 163.231 23.9083 162.508 26.5131H155.776C156.5 23.9083 157.369 20.5052 158.093 17.9714C158.382 16.8127 158.309 16.307 157.079 16.307H154.112C153.169 19.6359 152.229 23.1111 151.288 26.5131H144.556C145.061 24.8486 145.496 23.2563 145.931 21.5908C146.365 19.9253 146.873 17.9714 149.985 17.9714C150.419 16.307 148.682 16.307 147.379 16.307L148.031 13.9185ZM80.637 24.0525C80.1302 25.7169 80.0581 26.5131 78.61 26.5131H65.146C63.2633 26.5131 62.6123 25.2833 63.0469 23.9082C63.2643 23.1121 63.4816 22.1707 63.6989 21.3745C64.2057 19.4196 64.423 17.9725 66.3048 17.9725H75.4984C75.5705 17.7551 75.6436 17.4657 75.7147 17.2484C75.8599 16.6685 75.7878 16.308 74.9185 16.308H66.3048C65.5076 16.308 65.5076 15.656 65.7259 15.0051C65.9422 14.4252 66.3048 13.9195 66.8836 13.9195H80.2033C82.0861 13.9195 82.8823 15.5839 82.4477 17.1042C81.8342 19.4177 81.2307 21.7338 80.637 24.0525ZM74.1944 22.9669C74.3397 22.5322 74.6281 20.9399 74.7733 20.5052H70.6472C70.5751 21.012 70.1404 22.5322 69.9952 23.039C69.7789 23.8351 70.3578 23.8351 71.3702 23.8351H72.6732C73.3251 23.8361 73.9771 23.8362 74.1944 22.9669ZM167.286 16.307C166.692 18.6322 166.064 20.9489 165.403 23.2563C165.041 24.7765 165.62 26.5131 167.647 26.5131H180.894C182.487 26.5131 182.992 24.6313 183.211 23.9082H173.149C172.208 23.9082 172.135 23.4015 172.354 22.5332C172.425 22.3159 172.57 21.8091 172.57 21.5918H181.908C183.791 21.5918 184.08 20.6504 184.586 18.7686C184.804 17.9725 185.02 17.1032 185.239 16.308C185.673 14.933 184.731 13.9185 182.993 13.9185H170.543C169.169 13.9185 167.792 14.6425 167.286 16.307ZM173.8 17.2484C174.018 16.308 174.742 16.308 175.466 16.308H176.841C177.928 16.308 178.508 16.308 178.289 17.1763C178.218 17.5378 178.144 17.9004 178 18.2619C177.929 18.6955 178 18.7686 177.494 18.7686H173.801C173.366 18.7686 173.366 18.8407 173.511 18.4071C173.584 17.9725 173.729 17.6109 173.8 17.2484ZM118.352 16.307C118.785 14.6415 120.161 13.9174 121.61 13.9174H133.987C135.724 13.9174 136.593 14.9309 136.232 16.307C136.014 17.1022 135.798 17.9715 135.579 18.7676C135.074 20.6504 134.784 21.5908 132.901 21.5908H123.636C123.563 21.8081 123.418 22.3149 123.418 22.5322C123.129 23.4005 123.273 23.9072 124.07 23.9072H134.204C133.986 24.6313 133.48 26.5121 131.888 26.5121H118.641C116.687 26.5121 116.035 24.7755 116.47 23.2553C117.12 20.7225 117.7 18.8407 118.352 16.307ZM124.793 17.2484C124.648 17.6109 124.577 17.9725 124.433 18.4061C124.362 18.8407 124.362 18.7676 124.793 18.7676H128.487C128.921 18.7676 128.847 18.6955 128.993 18.2609C129.066 17.8993 129.138 17.5368 129.282 17.1753C129.5 16.307 128.921 16.307 127.763 16.307H126.387C125.662 16.307 125.011 16.307 124.793 17.2484ZM97.2135 13.9185H98.5174L99.4578 10.4433H106.191L105.248 13.9185H107.999V16.308H104.597C103.729 19.6369 102.788 23.1121 101.847 26.5141C95.9106 26.5141 95.549 24.9949 96.4183 21.5918L97.8655 16.308H93.5941C92.6527 19.6369 91.7113 23.1121 90.8431 26.5141C84.9073 26.5141 84.4726 24.9949 85.414 21.5918L86.8612 16.308H83.6765L84.9804 13.9185H87.5141L88.4545 10.4433H95.1875L94.2461 13.9185H97.2135ZM187.337 13.9185H189.87L190.812 10.4433H197.544L196.604 13.9185H199.571V16.308H195.952C195.011 19.6369 194.143 23.1121 193.201 26.5141C187.266 26.5141 186.903 24.9949 187.772 21.5918L189.22 16.308H186.034L187.337 13.9185ZM111.257 9.50293L106.624 26.5131H113.356L117.989 9.50293H111.257ZM55.3005 26.5131C57.5438 26.5131 60.0775 26.5131 61.3805 21.5908C62.1045 18.985 61.5257 21.3004 62.2487 18.7676C62.9007 16.307 63.5527 13.9185 59.715 13.9185H52.4042L53.5629 9.50293H46.8309L45.0202 16.308C46.3242 16.308 47.9886 16.308 47.554 17.9725C44.5135 17.9725 44.0067 19.9263 43.5721 21.5918C43.1385 23.2573 42.7038 24.8496 42.2692 26.5141H55.3005V26.5131ZM49.6541 23.9082L51.7532 16.308H54.6495C55.9524 16.308 56.0245 16.7416 55.7351 17.9004C55.1563 19.7821 54.9389 20.7956 54.6495 21.5918C54.0696 23.9083 54.0696 23.9082 49.6541 23.9082Z" fill="white"/>
<path d="M33.3609 17.1876C33.3609 17.1876 36.489 17.3509 36.489 15.4629C36.489 12.9982 32.3217 10.7783 32.3217 10.7783C32.3217 10.7783 32.9739 9.35826 33.3821 8.5639C33.7903 7.76953 34.9355 4.67913 35.0363 3.97182C35.1635 3.07952 34.9674 2.80204 34.9674 2.80204C34.6864 4.70633 31.6643 10.1907 31.4204 10.3757C28.4726 8.96108 24.422 8.5639 24.422 8.5639C24.422 8.5639 20.4562 0 16.7237 0C13.0231 0 13.0443 7.33426 13.0443 7.33426C13.0443 7.33426 11.9998 5.25586 10.685 5.25586C8.76569 5.25586 8.13477 8.22656 8.13477 11.453C4.34927 11.453 1.16286 12.3235 0.876564 12.4051C0.595567 12.4867 -0.300442 13.156 0.102497 13.0744C0.934885 12.8023 4.82643 12.1821 8.23021 12.4867C8.42107 15.5499 10.1654 19.5435 10.1654 19.5435C10.1654 19.5435 6.42228 25.1041 6.42228 29.0705C6.42228 30.1151 6.86764 32.0248 9.55036 32.0248C11.8036 32.0248 14.3326 30.6374 14.8045 30.3599C14.3909 30.9639 14.0834 32.1228 14.0834 32.656C14.0834 33.0912 14.3379 34.3263 16.0716 34.3263C18.2984 34.3263 20.7902 32.5744 20.7902 32.5744C20.7902 32.5744 23.1443 36.5788 25.1537 38.4124C25.6944 38.9075 26.214 39 26.214 39C26.214 39 24.2152 37.0304 21.5855 31.9487C24.0297 30.4035 26.5745 26.7472 26.5745 26.7472C26.5745 26.7472 26.8768 26.7581 29.199 26.7581C32.836 26.7581 38 25.9746 38 23.0093C38.0053 19.9516 33.3609 17.1876 33.3609 17.1876ZM33.7638 15.3432C33.7638 16.4259 32.7618 16.415 32.7618 16.415L31.9983 16.464C31.9983 16.464 30.5509 15.686 29.6708 15.316C29.6708 15.316 31.0334 13.1669 31.3515 12.5684C31.5901 12.7153 33.7638 14.1081 33.7638 15.3432ZM18.5423 4.31459C20.2548 4.31459 22.6936 8.44964 22.6936 8.44964C22.6936 8.44964 18.8869 8.10142 15.7535 9.9894C15.8383 7.01325 16.8139 4.31459 18.5423 4.31459ZM11.7718 7.66615C12.3126 7.66615 12.8428 8.34626 13.0655 8.91755C13.0655 9.29841 13.2563 11.5183 13.2563 11.5183L10.1177 11.3931C10.1177 8.49317 11.2257 7.66615 11.7718 7.66615ZM11.4431 27.8245C9.72532 27.8245 9.3754 26.8451 9.3754 25.9637C9.3754 23.9669 10.9288 21.1703 10.9288 21.1703C10.9288 21.1703 12.6731 24.93 15.7111 26.5133C14.2054 27.4219 12.9594 27.8245 11.4431 27.8245ZM17.0153 31.7582C15.8118 31.7582 15.6634 30.9584 15.6634 30.7734C15.6634 30.2022 16.1034 29.522 16.1034 29.522C16.1034 29.522 18.1234 28.1237 18.2507 27.9714L19.7458 30.8333C19.7458 30.8333 18.2189 31.7582 17.0153 31.7582ZM20.769 30.2022C20.0374 28.8909 19.4966 27.5198 19.4966 27.5198C19.4966 27.5198 22.5027 27.7157 24.1198 26.0073C23.1125 26.4697 21.506 27.0573 19.6397 26.8778C23.5419 23.3521 25.8217 20.7949 27.7463 18.1561C27.5819 17.9494 26.7018 17.3182 26.4844 17.2148C25.3233 18.6512 20.8009 23.6078 16.6124 26.0617C11.3106 23.0964 10.1972 14.3747 10.0858 12.5629L12.9806 12.8458C12.9806 12.8458 11.8938 14.8263 11.8938 16.2845C11.8938 17.7372 12.0634 17.8133 12.0634 17.8133C12.0634 17.8133 12.0263 15.2779 13.5532 13.3192C14.7196 19.6741 15.9338 22.9277 16.8775 24.8701C17.36 24.6634 18.256 24.2553 18.256 24.2553C18.256 24.2553 15.5838 16.3498 15.7323 11.0014C16.9464 10.3376 18.7437 9.65207 20.769 9.65207C26.1027 9.65207 30.3919 12.0025 30.3919 12.0025L28.7165 14.4074C28.7165 14.4074 27.2214 11.6325 25.1059 11.1374C26.2193 11.9862 27.4706 13.1124 28.1174 14.7284C23.6957 12.9601 18.362 12.0243 16.6495 11.8175C16.5011 12.465 16.5223 13.3899 16.5223 13.3899C16.5223 13.3899 23.6744 14.7447 28.8808 17.797C28.8437 24.4784 21.7499 29.6091 20.769 30.2022ZM27.5448 25.2075C27.5448 25.2075 29.7663 22.2204 29.7291 18.2595C29.7291 18.2595 33.3185 20.5392 33.3185 22.7645C33.3185 25.2455 27.5448 25.2075 27.5448 25.2075Z" fill="white"/>
</svg>
