<svg width="101" height="37" viewBox="0 0 101 37" fill="none" xmlns="http://www.w3.org/2000/svg">
<path d="M12.8324 0.0463783C13.0186 -0.0603389 13.3112 0.0196978 13.391 0.259812C13.4708 0.446567 13.3378 0.633322 13.2314 0.766719C12.4866 1.80721 12.0078 3.03446 11.7684 4.28839C11.6354 4.34175 11.5822 4.50182 11.6354 4.63522C11.7152 4.6619 11.7684 4.68858 11.8482 4.71526C13.2846 4.58186 14.721 4.60854 16.1308 4.92869C18.6844 5.4356 21.0784 6.74288 22.9138 8.61044C24.7491 10.4513 26.0259 12.8258 26.5579 15.387C27.1431 18.1349 26.8239 21.0697 25.6535 23.6576C23.2064 28.9134 19.0834 33.3422 14.0294 36.1435C13.8698 36.2235 13.6304 36.2235 13.524 36.0634C13.391 35.9034 13.4442 35.6633 13.5772 35.5032C14.2688 34.5427 14.721 33.4489 14.987 32.3017C15.0402 32.0616 15.0934 31.8214 15.0934 31.5813C15.0136 31.4746 14.8806 31.5013 14.7476 31.5013C12.3004 31.7414 9.7734 31.3145 7.56561 30.2207C5.19822 29.0735 3.17663 27.2059 1.84663 24.9115C0.623039 22.8038 -0.0419582 20.376 0.0112416 17.9482C0.0112416 15.7071 0.623039 13.4928 1.68704 11.5452C4.18743 6.71621 8.09761 2.66095 12.8324 0.0463783ZM12.6994 12.8791C11.2364 13.0659 9.9064 13.9463 9.08181 15.1469C8.52321 15.9739 8.20401 16.9877 8.20401 18.0016C8.15081 19.3622 8.70941 20.7228 9.6404 21.6833C10.465 22.5637 11.5822 23.124 12.7792 23.2841C13.9762 23.4441 15.253 23.1507 16.2638 22.4837C17.3012 21.8167 18.0992 20.7762 18.445 19.6023C19.11 17.548 18.312 15.1469 16.583 13.8663C15.4924 13.0392 14.056 12.6657 12.6994 12.8791Z" fill="white"/>
<path d="M59.4354 7.83598C60.393 7.56918 61.457 7.96937 61.989 8.79643C62.3614 9.38338 62.4678 10.1304 62.2816 10.7707C62.0156 11.5978 61.2708 12.2647 60.393 12.3981C59.5418 12.5315 58.6374 12.158 58.132 11.4377C57.6 10.7173 57.5734 9.65017 58.0522 8.90315C58.3448 8.39624 58.8502 7.99605 59.4354 7.83598ZM80.7951 7.83598C81.8591 7.56918 83.0561 8.15613 83.4817 9.16994C83.9339 10.1838 83.5615 11.491 82.6039 12.078C82.0453 12.4248 81.3537 12.5315 80.7153 12.3448C80.1035 12.1847 79.5715 11.7312 79.2789 11.1442C78.9331 10.4772 78.9597 9.65017 79.3055 8.98319C79.5981 8.42292 80.1567 7.96937 80.7951 7.83598ZM37.0383 10.1571C38.6875 9.97032 40.3899 10.2104 41.9061 10.9308C43.2361 11.5711 44.3799 12.5849 45.1512 13.8121C46.5876 16.0532 46.7472 19.0413 45.6035 21.4691C44.9651 22.8564 43.9011 24.0303 42.5977 24.8307C40.2303 26.298 37.1447 26.4581 34.5911 25.3643C33.1015 24.724 31.7981 23.5768 30.9735 22.1628C30.0159 20.562 29.6967 18.6144 29.9893 16.7735C30.2553 15.1461 31.0267 13.6254 32.1971 12.4782C33.4739 11.1709 35.2295 10.3705 37.0383 10.1571ZM37.4905 13.9989C36.6393 14.1056 35.8413 14.5592 35.2561 15.1995C33.8463 16.7735 33.8729 19.4415 35.3093 20.9889C36.0807 21.8426 37.2245 22.2962 38.3683 22.2161C39.3525 22.1628 40.2835 21.7092 40.9485 20.9889C42.4381 19.3347 42.3317 16.4801 40.6559 14.9593C39.8047 14.159 38.6077 13.8388 37.4905 13.9989ZM97.154 11.8645H98.5904V12.1847H98.0584V13.6254H97.7126V12.1847H97.154V11.8645ZM98.9362 11.8645H99.3352C99.4948 12.1313 99.6544 12.3981 99.8406 12.6383C100.027 12.3715 100.186 12.1047 100.346 11.8379H100.718V13.5987H100.373V12.4248C100.186 12.6916 100.027 12.9584 99.8406 13.2252C99.6544 12.9584 99.4682 12.6649 99.3086 12.3981V13.5987H98.9628C98.9362 13.0384 98.9362 12.4515 98.9362 11.8645ZM76.2199 12.6916C76.3529 12.5849 76.5125 12.5315 76.6721 12.4782C76.8317 12.5582 77.0179 12.6649 77.0179 12.8784V23.1499C76.9913 24.4572 76.8051 25.8445 76.0337 26.965C75.3687 27.9788 74.3047 28.6458 73.1609 28.966C71.6979 29.3662 70.1286 29.3928 68.639 29.2328C67.309 29.0727 65.979 28.7259 64.7554 28.1389C64.5426 28.0589 64.4096 27.8188 64.5426 27.6053C64.8618 26.9117 65.2076 26.218 65.5534 25.5243C65.6332 25.2842 65.9258 25.2575 66.1386 25.3909C67.4686 26.0846 68.9582 26.4048 70.4478 26.2714C71.1925 26.1913 71.9639 25.8979 72.4161 25.2842C72.9215 24.6439 72.9747 23.7635 72.9481 22.9898C72.3097 23.7102 71.5117 24.3238 70.5807 24.5639C69.1178 24.9374 67.4952 24.6439 66.245 23.7902C65.2342 23.0965 64.5426 21.976 64.2766 20.8021C64.0372 19.815 64.0372 18.7745 64.25 17.7873C64.4894 16.5601 65.1544 15.4129 66.1386 14.6659C66.777 14.159 67.5484 13.8388 68.3464 13.7054C68.8252 13.6254 69.304 13.6521 69.7828 13.6521H72.7619C72.8683 13.6521 73.0013 13.6521 73.0811 13.7321C73.3205 13.9455 73.5333 14.1856 73.7727 14.4258C74.5441 13.8121 75.3953 13.2786 76.2199 12.6916ZM69.8094 16.987C69.3306 17.0937 68.905 17.3605 68.5858 17.7607C67.8676 18.6144 67.9208 20.0017 68.6922 20.8021C69.6232 21.7626 71.3521 21.7626 72.2831 20.8021C73.1077 19.9484 73.1077 18.4543 72.2565 17.6273C71.6447 16.9336 70.6606 16.7469 69.8094 16.987ZM91.7543 13.9722C92.5257 13.6254 93.3769 13.572 94.2015 13.7054C95.0527 13.8388 95.8773 14.239 96.4092 14.906C96.9146 15.4929 97.1806 16.24 97.3136 17.0137C97.42 17.654 97.3934 18.2943 97.3934 18.9346V25.3109C97.42 25.551 97.2604 25.7911 96.9944 25.7645H93.6163C93.4035 25.7911 93.1907 25.6044 93.2173 25.3909V19.4148C93.2173 18.8545 93.0843 18.2409 92.6853 17.814C91.9937 17.1204 90.6371 17.2804 90.1317 18.1342C89.8657 18.5611 89.8125 19.068 89.8125 19.5482V25.3909C89.8391 25.5777 89.6795 25.7645 89.4933 25.7645H86.1949C86.0353 25.7645 85.8757 25.7911 85.7427 25.6577C85.6097 25.5243 85.6363 25.3109 85.6363 25.1508V14.3457C85.6097 14.1056 85.7959 13.8922 86.0353 13.9189C87.1259 13.8922 88.2431 13.9189 89.3337 13.9189C89.5199 13.9189 89.7593 13.9989 89.7859 14.2123C89.8125 14.6659 89.7859 15.1194 89.7859 15.573C90.3445 14.8793 90.9829 14.2924 91.7543 13.9722ZM53.8494 14.2123C54.3814 13.8655 55.0198 13.7054 55.6316 13.6787C55.8444 13.6521 56.0572 13.8655 56.0306 14.0789V17.6806C56.0572 17.9474 55.7912 18.1075 55.5518 18.0808C54.7006 18.0808 53.7962 18.3476 53.211 19.0146C52.5726 19.7349 52.3598 20.7221 52.3066 21.6825V25.3643C52.3332 25.5777 52.1204 25.7911 51.9076 25.7645H48.5294C48.3166 25.7911 48.1304 25.6044 48.157 25.3909V14.2657C48.157 14.0256 48.3964 13.8922 48.6092 13.9189H51.9076C52.1204 13.9189 52.3332 14.0789 52.3332 14.2924C52.3598 14.9327 52.3332 15.5997 52.3332 16.24C52.6524 15.4396 53.1312 14.6926 53.8494 14.2123ZM58.3448 13.8922C59.4088 13.8655 60.4728 13.8922 61.5368 13.8922C61.6964 13.8922 61.8826 13.8655 62.0156 14.0256C62.122 14.1323 62.122 14.2924 62.122 14.4258V25.3109C62.1486 25.5243 62.0156 25.7911 61.7762 25.7645H58.3182C58.0788 25.7911 57.9192 25.5243 57.9458 25.3109V14.3457C57.9192 14.0789 58.1054 13.8922 58.3448 13.8922ZM79.5981 13.8922C80.7153 13.8655 81.8325 13.8922 82.9497 13.8922C83.1625 13.8655 83.4551 13.9989 83.4551 14.239V25.3643C83.4817 25.551 83.3221 25.7645 83.1093 25.7378H79.6513C79.4651 25.7645 79.3321 25.6044 79.3055 25.4443C79.2523 25.1775 79.2789 24.9107 79.2789 24.6706V14.319C79.2523 14.1323 79.3853 13.9189 79.5981 13.8922ZM79.6779 30.5134C79.8641 30.4867 80.0503 30.46 80.2365 30.4333V34.8888H79.7577C79.7577 34.8087 79.7311 34.7287 79.7311 34.622C79.3055 34.8888 78.7469 35.0488 78.2681 34.8621C77.9489 34.7554 77.8159 34.4085 77.8159 34.0884V32.621C77.8159 32.3009 77.9489 31.9274 78.2681 31.794C78.7203 31.6072 79.2257 31.7139 79.6779 31.7673V30.5134ZM78.3745 32.6477V34.035C78.3479 34.1951 78.4277 34.3819 78.6139 34.4352C79.0129 34.5419 79.3853 34.3285 79.7045 34.1151V32.3009C79.3587 32.2475 79.0129 32.1675 78.6937 32.2475C78.4543 32.2475 78.3479 32.461 78.3745 32.6477ZM82.8433 30.5134L83.4019 30.4333V31.9007C83.8009 31.7406 84.2531 31.6606 84.7053 31.7406C85.0511 31.8207 85.2905 32.1675 85.2905 32.4876V34.0084C85.2905 34.3819 85.0511 34.7287 84.7053 34.8354C84.1201 35.0222 83.4817 34.9155 82.8699 34.8087C82.8433 33.3947 82.8433 31.9541 82.8433 30.5134ZM83.4019 32.4343V34.4352C83.7211 34.4619 84.0403 34.5153 84.3595 34.4352C84.5457 34.3819 84.6787 34.2218 84.7053 34.035C84.7585 33.6348 84.7319 33.208 84.7319 32.8078C84.7319 32.5944 84.7053 32.3276 84.4925 32.2475C84.1201 32.1141 83.7477 32.3009 83.4019 32.4343ZM57.9458 30.6468H59.5418C59.8876 30.6468 60.2866 30.7001 60.526 30.9936C60.7654 31.2871 60.7388 31.6873 60.7388 32.0341C60.7388 32.3542 60.7388 32.7278 60.526 33.0212C60.3132 33.288 59.9674 33.3681 59.6748 33.3681C59.3024 33.3947 58.9034 33.3681 58.531 33.3681V34.8888H57.9724C57.9458 33.4748 57.9458 32.0608 57.9458 30.6468ZM58.5044 31.1537V32.8611C58.9566 32.8345 59.4088 32.9145 59.861 32.8078C60.2334 32.7011 60.1536 32.2475 60.1536 31.9541C60.1536 31.6873 60.2068 31.3137 59.9142 31.207C59.462 31.0736 58.9566 31.1537 58.5044 31.1537ZM90.7701 34.8888V30.6201H93.2705V31.127H91.3287V32.461H93.1109V32.9679H91.3021V34.3819H93.2439V34.9155C92.4459 34.8888 91.6213 34.8888 90.7701 34.8888ZM95.2122 30.6468H95.9837C96.4358 32.0608 96.9412 33.4748 97.42 34.8888H96.8348C96.7019 34.5419 96.5954 34.2218 96.489 33.875H94.7069C94.6005 34.2218 94.494 34.5419 94.3611 34.8888H93.7759C94.2547 33.4748 94.7335 32.0608 95.2122 30.6468ZM94.8399 33.3681H96.3294C96.0634 32.5944 95.8506 31.8473 95.5846 31.0736C95.3186 31.8473 95.1059 32.621 94.8399 33.3681ZM62.1752 31.7673C62.521 31.6873 62.8934 31.6606 63.2126 31.7673C63.585 31.874 63.851 32.1942 63.9042 32.5677C63.9574 32.9412 63.9308 33.3414 63.9308 33.7149C63.9308 34.035 63.851 34.3819 63.6116 34.622C63.3456 34.8888 62.92 34.9688 62.5742 34.9421C62.2018 34.9421 61.8028 34.8087 61.59 34.4886C61.3772 34.1684 61.4038 33.7682 61.4038 33.4214C61.4038 33.0479 61.3506 32.6477 61.5368 32.2742C61.6698 32.0341 61.9092 31.8473 62.1752 31.7673ZM62.388 32.2208C62.122 32.2742 61.9624 32.541 61.9624 32.7811C61.9624 33.1813 61.9358 33.6082 61.989 34.0084C62.0954 34.4619 62.7338 34.5419 63.0796 34.3552C63.3988 34.1951 63.3722 33.7682 63.3722 33.4748C63.3456 33.1279 63.4254 32.7811 63.2658 32.461C63.1328 32.1675 62.7072 32.1408 62.388 32.2208ZM69.7295 31.9007C70.0753 31.6873 70.4744 31.6873 70.8734 31.7406C71.1926 31.794 71.4851 31.9807 71.6181 32.3009C71.7777 32.7011 71.6979 33.1546 71.7245 33.5548H69.8892C69.8892 33.8483 69.836 34.2485 70.1552 34.4085C70.6339 34.5953 71.1393 34.4352 71.6181 34.3552C71.6447 34.5153 71.6713 34.6487 71.6979 34.8087C71.1394 34.9688 70.5541 35.0488 69.9955 34.8888C69.6231 34.7821 69.3838 34.4085 69.3572 34.035C69.3306 33.6348 69.3572 33.208 69.3572 32.8078C69.304 32.461 69.437 32.0874 69.7295 31.9007ZM70.0488 32.3009C69.8094 32.4876 69.8625 32.8078 69.8625 33.0746H71.166C71.166 32.8078 71.1925 32.4343 70.9265 32.2475C70.6605 32.1141 70.2882 32.1408 70.0488 32.3009ZM72.6289 31.7673H73.1077C73.1077 31.9007 73.1343 32.0608 73.1343 32.1942C73.4003 32.0074 73.6929 31.8473 73.9855 31.7139C74.0121 31.874 74.0387 32.0608 74.0653 32.2208C73.7727 32.3809 73.4535 32.5677 73.1875 32.7544V34.8888H72.6289V31.7673ZM74.6239 32.5143C74.6771 32.1141 75.0495 31.794 75.4485 31.7406C75.9007 31.6606 76.4327 31.6873 76.7519 32.0341C77.0977 32.461 76.9647 33.0479 76.9913 33.5548H75.1559C75.1559 33.8483 75.1027 34.3018 75.4485 34.4352C75.9273 34.5686 76.4061 34.4352 76.8583 34.3552C76.8849 34.5153 76.9115 34.6487 76.9115 34.8087C76.3529 34.9688 75.7145 35.0755 75.1559 34.8621C74.7569 34.7287 74.5707 34.2752 74.5973 33.9016C74.5973 33.4214 74.5441 32.9679 74.6239 32.5143ZM75.3687 32.2742C75.1027 32.461 75.1293 32.8078 75.1293 33.1013H76.4327C76.4327 32.8345 76.4859 32.5143 76.2465 32.3009C76.0071 32.1141 75.6347 32.1408 75.3687 32.2742ZM85.8225 31.7673H86.3545C86.6471 32.6477 86.9131 33.5281 87.1791 34.4085C87.4717 33.5281 87.7377 32.6477 88.0303 31.7673H88.5889C88.1101 33.2347 87.6313 34.702 87.1259 36.1427H86.5939C86.7269 35.7425 86.8865 35.3156 87.0195 34.9155H86.8067C86.4875 33.8483 86.1417 32.8078 85.8225 31.7673ZM64.516 31.7673H65.048C65.2076 32.621 65.3938 33.4481 65.5534 34.3018C65.7928 33.4481 66.0588 32.621 66.2982 31.7673H66.9632C67.2026 32.621 67.4686 33.4481 67.708 34.3018C67.8942 33.4481 68.0538 32.621 68.2134 31.7673H68.7454C68.5326 32.8078 68.3198 33.8483 68.0804 34.8888H67.3888C67.1494 34.035 66.91 33.1546 66.644 32.3009C66.4046 33.1546 66.1652 34.035 65.8992 34.8888H65.2076C64.9682 33.8483 64.7554 32.8078 64.516 31.7673Z" fill="white"/>
</svg>
