<svg width="31" height="31" viewBox="0 0 31 31" fill="none" xmlns="http://www.w3.org/2000/svg">
<circle cx="15.622" cy="15.5131" r="14.6674" fill="#141C24"/>
<path fill-rule="evenodd" clip-rule="evenodd" d="M7.39816 17.6629C8.53577 21.3955 12.0094 24.1111 16.118 24.1111C21.1512 24.1111 25.2316 20.035 25.2316 15.0072C25.2316 9.97928 21.1512 5.90332 16.118 5.90332C11.2881 5.90332 7.33603 9.65654 7.0239 14.4024C7.0275 14.4084 7.0311 14.4144 7.03468 14.4205C7.03534 14.4076 7.03573 14.401 7.03573 14.401L11.9078 16.4207C12.0404 16.3329 12.1816 16.2569 12.3324 16.195C12.6744 16.0531 13.0351 15.9896 13.3945 16.0061L15.6133 12.7604C15.6125 12.7459 15.6125 12.7306 15.6125 12.7152C15.6125 10.7997 17.1574 9.24141 19.0565 9.24141C20.9563 9.24141 22.5005 10.7997 22.5005 12.7152C22.5005 14.6306 20.9563 16.1903 19.0565 16.1903C19.0308 16.1903 19.0043 16.1895 18.9787 16.1887L15.804 18.4734C15.8133 18.8261 15.7487 19.1796 15.6102 19.5166C15.0778 20.8059 13.6022 21.4196 12.3224 20.8811C11.5402 20.5527 11.0101 19.8701 10.8371 19.0918L7.39816 17.6629Z" fill="white"/>
<path fill-rule="evenodd" clip-rule="evenodd" d="M15.0801 19.2924C14.6681 20.2886 13.5313 20.7612 12.5432 20.3466C12.0873 20.1554 11.7432 19.805 11.5446 19.3873L12.6658 19.8552C13.3945 20.1609 14.2305 19.8129 14.5334 19.0793C14.8373 18.3449 14.4926 17.5015 13.7643 17.1959L12.6053 16.7123C13.0525 16.5414 13.5609 16.5352 14.0359 16.7342C14.5148 16.9349 14.8863 17.3126 15.0832 17.7955C15.2802 18.2783 15.2794 18.8112 15.0801 19.2924Z" fill="white"/>
<path fill-rule="evenodd" clip-rule="evenodd" d="M19.0565 15.0303C17.7917 15.0303 16.762 13.9918 16.762 12.7152C16.762 11.4396 17.7917 10.4008 19.0565 10.4008C20.322 10.4008 21.3517 11.4396 21.3517 12.7152C21.3517 13.9918 20.322 15.0303 19.0565 15.0303ZM17.3372 12.7117C17.3372 13.6721 18.1093 14.4503 19.0604 14.4503C20.0122 14.4503 20.7843 13.6721 20.7843 12.7117C20.7843 11.7513 20.0122 10.9724 19.0604 10.9724C18.1093 10.9724 17.3372 11.7513 17.3372 12.7117Z" fill="white"/>
</svg>
