<svg width="100" height="31" viewBox="0 0 100 31" fill="none" xmlns="http://www.w3.org/2000/svg">
<path d="M15.0256 0C7.08688 0 0.613288 6.09881 0 13.8671L8.07496 17.2061C8.75639 16.7291 9.57411 16.4566 10.46 16.4566C10.5281 16.4566 10.6303 16.4566 10.6985 16.4566L14.3101 11.2777C14.3101 11.2436 14.3101 11.2436 14.3101 11.2095C14.3101 8.07496 16.8654 5.51959 20 5.51959C23.1346 5.51959 25.6899 8.07496 25.6899 11.2095C25.6899 14.3441 23.1346 16.8995 20 16.8995C19.9659 16.8995 19.8978 16.8995 19.8637 16.8995L14.753 20.5451C14.753 20.6133 14.753 20.6814 14.753 20.7496C14.753 23.1005 12.845 25.0085 10.494 25.0085C8.41567 25.0085 6.7121 23.5434 6.30324 21.5673L0.511073 19.1823C2.28279 25.5196 8.10903 30.1533 15.0256 30.1533C23.339 30.1533 30.0852 23.4072 30.0852 15.0937C30.0852 6.74617 23.339 0 15.0256 0Z" fill="white"/>
<path d="M9.4378 22.8617L7.59793 22.1121C7.93865 22.7935 8.48379 23.3727 9.23337 23.6794C10.8688 24.3608 12.7427 23.5772 13.4242 21.9417C13.7649 21.1581 13.7649 20.2722 13.4242 19.4886C13.0835 18.7049 12.4702 18.0916 11.6865 17.7509C10.9029 17.4102 10.0511 17.4443 9.33558 17.7169L11.2436 18.5005C12.4361 19.0116 13.0153 20.3744 12.5042 21.5669C12.0272 22.7935 10.6303 23.3727 9.4378 22.8617Z" fill="white"/>
<path d="M23.7819 11.1755C23.7819 9.09713 22.0784 7.39355 20 7.39355C17.9216 7.39355 16.218 9.09713 16.218 11.1755C16.218 13.2539 17.9216 14.9574 20 14.9574C22.0784 14.9574 23.7819 13.2879 23.7819 11.1755ZM17.138 11.1755C17.138 9.60821 18.3986 8.34756 20 8.34756C21.6014 8.34756 22.862 9.60821 22.862 11.1755C22.862 12.7428 21.6014 14.0034 20 14.0034C18.3986 14.0034 17.138 12.7428 17.138 11.1755Z" fill="white"/>
<path d="M46.201 10.3243L45.1789 12.0961C44.3952 11.5509 43.339 11.2102 42.4191 11.2102C41.3629 11.2102 40.7155 11.6531 40.7155 12.4368C40.7155 13.3908 41.8739 13.5952 43.5775 14.2085C45.4174 14.8559 46.4736 15.6395 46.4736 17.309C46.4736 19.6259 44.6678 20.9206 42.0443 20.9206C40.7836 20.9206 39.2164 20.5799 38.0579 19.8644L38.8075 17.8882C39.7615 18.3993 40.9199 18.7059 41.9421 18.7059C43.339 18.7059 43.9864 18.1949 43.9864 17.4453C43.9864 16.5935 42.9983 16.3209 41.3629 15.7758C39.523 15.1625 38.2624 14.3448 38.2624 12.4708C38.2624 10.3584 39.9659 9.13184 42.385 9.13184C44.0545 9.19998 45.4174 9.74512 46.201 10.3243Z" fill="white"/>
<path d="M54.0716 11.4476V20.7491H51.7206V11.4476H48.2453V9.40332H57.5128V11.4476H54.0716Z" fill="white"/>
<path d="M62.5213 11.4135V14.003H67.0869V16.0132H62.5213V18.7049H67.8024V20.7491H60.1703V9.40332H67.8024V11.4135H62.5213Z" fill="white"/>
<path d="M73.1175 18.5345L72.368 20.7491H69.8807L74.1397 9.40332H76.5247L80.8858 20.7491H78.2964L77.5128 18.5345H73.1175ZM75.3322 12.095L73.7649 16.6265H76.8995L75.3322 12.095Z" fill="white"/>
<path d="M93.1176 13.7986L90.0171 20.4084H88.6542L85.6218 13.8326V20.7491H83.3391V9.40332H85.5878L89.4038 17.5805L93.0835 9.40332H95.4004V20.7491H93.1176V13.7986Z" fill="white"/>
<path d="M100 10.8343C100 11.8223 99.2845 12.4016 98.4327 12.4016C97.581 12.4016 96.8654 11.7883 96.8654 10.8343C96.8654 9.84619 97.615 9.26697 98.4327 9.26697C99.2505 9.2329 100 9.84619 100 10.8343ZM97.104 10.8343C97.104 11.652 97.6832 12.1631 98.3987 12.1631C99.1142 12.1631 99.6934 11.652 99.6934 10.8343C99.6934 10.0165 99.1142 9.50548 98.3987 9.50548C97.6832 9.50548 97.104 10.0165 97.104 10.8343ZM98.4327 10.0165C98.8416 10.0165 98.9779 10.221 98.9779 10.4595C98.9779 10.6639 98.8416 10.8002 98.7053 10.9024L99.0801 11.5838H98.7735L98.4668 10.9706H98.1261V11.5838H97.8876V10.0165H98.4327ZM98.1602 10.7321H98.4327C98.6031 10.7321 98.7053 10.6298 98.7053 10.4936C98.7053 10.3573 98.6372 10.255 98.4327 10.255H98.1602V10.7321Z" fill="white"/>
</svg>
